<?xml version="1.0" standalone="no"?>
<!DOCTYPE svg PUBLIC "-//W3C//DTD SVG 1.1//EN" "http://www.w3.org/Graphics/SVG/1.1/DTD/svg11.dtd" >
<svg xmlns="http://www.w3.org/2000/svg" xmlns:xlink="http://www.w3.org/1999/xlink" version="1.1">
<metadata>
Created by FontForge 20201107 at Sun May 15 06:00:13 2016
 By 
copyright (c) 2014 by Eduardo Luiz Ramalho Sobreira  Projeto tipografico desenvolvido no curso superior de Design Grfico do IFPE-2014. All rights reserved.
</metadata>
<defs>
<font id="OfertadoDia" horiz-adv-x="509" >
  <font-face 
    font-family="Oferta do Dia"
    font-weight="400"
    font-stretch="normal"
    units-per-em="1000"
    panose-1="0 0 0 0 0 0 0 0 0 0"
    ascent="750"
    descent="-250"
    x-height="704.5"
    cap-height="706.5"
    bbox="-7.31567 -150 845.421 911.13"
    underline-thickness="50"
    underline-position="-100"
    unicode-range="U+000D-2026"
  />
<missing-glyph horiz-adv-x="500" 
 />
    <glyph glyph-name=".notdef" horiz-adv-x="500" 
 />
    <glyph glyph-name=".null" horiz-adv-x="0" 
 />
    <glyph glyph-name="nonmarkingreturn" unicode="&#xd;" horiz-adv-x="500" 
 />
    <glyph glyph-name="NULL" horiz-adv-x="0" 
 />
    <glyph glyph-name="NULL" horiz-adv-x="0" 
 />
    <glyph glyph-name="space" unicode=" " horiz-adv-x="333" 
 />
    <glyph glyph-name="exclam" unicode="!" horiz-adv-x="274" 
d="M19 58q5 11 6.5 19t2.5 13t3 6.5t8 -0.5q5 0 14.5 1t21 1.5t22 1.5t18.5 1q7 0 9 -3t1.5 -8t-2.5 -11t-4 -11q-8 -14 -12 -30t-8 -27q-3 -5 -6.5 -6t-9 0t-15 2t-25.5 -1q-16 0 -24 1.5t-11.5 4t-3.5 4.5v4q2 2 4.5 8t4.5 13q3 8 6 17zM43 158q2 2 5 18.5t7 39t8 47
t8 42.5q2 11 6.5 31.5t10 46.5t12 54t12 52.5t10 44t6.5 27.5q2 13 6.5 32t10 38t10 35.5t6.5 23.5q4 11 10 10.5t14 -0.5q5 0 20.5 0.5t41.5 3.5q14 0 19.5 -3t6.5 -7t-2 -9q-12 -25 -26.5 -73t-29.5 -106t-29 -119.5t-25 -112.5t-17.5 -85.5t-6.5 -39.5q-3 -14 -8.5 -16.5
t-9.5 -2.5q-8 3 -26.5 3.5t-35.5 0.5q-7 0 -10 3t-4 7t-0.5 8t0.5 6z" />
    <glyph glyph-name="quotedbl" unicode="&#x22;" horiz-adv-x="238" 
d="M28 468q-3 2 -5 8q-2 5 -3 16t1 30q1 21 1 29.5v11t-0.5 3t-0.5 4.5q-2 4 -2.5 24t-0.5 45t0.5 48.5t2.5 35.5q1 13 2 20t3 12t5.5 9.5t9.5 12.5q14 13 21.5 14.5t15.5 -9.5q8 -14 12.5 -21.5t4.5 -20.5q0 -15 3.5 -38t3.5 -64t-2 -70t-2 -52q0 -8 -3.5 -11t-7.5 -4
q-5 -1 -11 1q-1 -3 -2 -7q-2 -3 -3.5 -6t-6.5 -4q-9 -5 -10 -11.5t1 -8.5q-2 -1 -5 -1q-2 0 -5.5 0.5t-7.5 3.5q-5 7 -5 2.5t-4 -2.5zM135 468q-3 2 -5 8q-2 5 -3 16t1 30q1 21 1 29.5v11t-0.5 3t-0.5 4.5q-2 4 -2.5 24t-0.5 45t0.5 48.5t2.5 35.5q1 13 2 20t3 12t5.5 9.5
t9.5 12.5q14 13 21.5 14.5t15.5 -9.5q8 -14 12.5 -21.5t4.5 -20.5q0 -15 3.5 -38t3.5 -64t-2 -70t-2 -52q0 -8 -3.5 -11t-7.5 -4q-5 -1 -11 1q-1 -3 -2 -7q-2 -3 -3.5 -6t-6.5 -4q-9 -5 -10 -11.5t1 -8.5q-2 -1 -5 -1q-2 0 -5.5 0.5t-7.5 3.5q-5 7 -5 2.5t-4 -2.5z" />
    <glyph glyph-name="numbersign" unicode="#" horiz-adv-x="715" 
d="M701 349q-7 -7 -13 -8t-10 -1h-10q-7 0 -30.5 2.5t-49.5 5.5t-49.5 6t-30.5 5h-24q-3 -11 -6 -24.5t-8 -27.5q57 -9 91 -16t53 -12q22 -6 31 -10q14 -6 16.5 -13t2.5 -15q-4 0 -7 -7t-17 -7h-5q-7 2 -30 5t-49 6t-48.5 5.5t-27.5 2.5q-3 4 -7.5 4.5t-10.5 0.5
q-8 -36 -12.5 -77t-11.5 -83v-19q-4 -32 -7.5 -49t-20.5 -17q-4 0 -10 1t-9 9q-2 0 -3 2q-2 2 -2 6q0 2 0.5 20.5t2 49.5t5.5 72t11 89h-66h-52q-7 -48 -11.5 -79t-6.5 -49.5t-2 -27.5t2 -13v-24l-6 -4q0 -7 -1 -16t-3.5 -17t-7 -13.5t-11.5 -5.5t-13 3t-6 11q0 1 -0.5 21
t0 52t3 74t7.5 88q-47 -3 -79 -4t-53 -5h-19h-38h-14q-15 0 -24 15q-3 6 -2.5 13t8.5 15q1 -1 2 0q2 0 2 4q3 3 14.5 3.5t18.5 0.5h14q4 0 10 3t14 3h14q14 0 50 4.5t86 4.5q4 14 5 25t5 22q-39 0 -67.5 -0.5t-45.5 -4.5h-24h-14h-24h-14q-16 0 -23 19q0 8 5 18t9 10
q7 15 28 15l15 -5h14h23q14 4 49 6.5t79 2.5q3 4 3.5 7.5t0.5 6.5q11 57 14.5 88t3.5 48q-7 0 -10 3q-3 1 -4 3q-3 7 -2.5 15.5t8.5 26.5q6 31 14 42q1 0 3 2q0 1 1 3q3 11 8 19.5t16 8.5q9 0 14.5 -4.5t8.5 -10.5t4 -12.5t1 -10.5q1 -16 0 -40.5t-4 -48.5t-6 -41.5
t-4 -19.5v-29q-4 -14 -7.5 -28t-6.5 -28h23h99q14 53 34 98.5t41 80.5q0 7 1 17t9 21v9q3 7 6 17.5t18 10.5q6 0 9 -3t6 -7l3 -4q3 -7 2.5 -21t-6.5 -49q0 -4 -3.5 -11.5t-6.5 -22.5q0 -5 -0.5 -10.5t-1.5 -10.5t-2 -11v-5h-6q-5 -10 -11 -24q-5 -13 -12 -32t-14 -47
q57 -8 105.5 -18.5t87.5 -24.5q1 0 2 -1q3 -3 3 -4q1 0 3 -2q0 -1 1 -2v-15zM414 312q0 14 3 26t7 26h-5h-118q0 -14 -2 -26t-2 -26h18h99z" />
    <glyph glyph-name="dollar" unicode="$" horiz-adv-x="534" 
d="M468 447q33 -12 52 -47.5t16 -105.5q-2 -37 -16.5 -78t-41.5 -79t-65.5 -70t-89.5 -50q0 -4 -3 -10q-2 -3 -3.5 -8t-3.5 -19q-2 -12 -10.5 -20.5t-11.5 -3.5q-1 7 -4 7q-2 0 -4 -1q-3 -4 -5 -4h-1q-4 2 -3 8t3 20q1 2 1 18q-11 -2 -31.5 -1.5t-52.5 5.5q-8 2 -19 2.5
t-22 1.5q-12 1 -25 1q-24 1 -47 23q-20 19 -41 62.5t-37 127.5q0 3 1 6q2 6 9 9h27q28 0 47.5 -0.5t40.5 -2.5q13 0 12 -4.5t2 -7.5q0 -2 5.5 -23.5t14.5 -49.5t20.5 -55.5t23.5 -40.5q3 -2 23.5 9.5t47.5 34.5q-1 51 -1.5 115.5t-1.5 130.5q-17 -9 -31 -15t-22 -6t-23 -2
t-32 -2q-13 3 -25 3.5t-24 0.5h-57q-7 0 -12 3q-10 3 -20 13q-12 19 -14 37.5t9 42t36.5 56t68.5 79.5q12 12 30.5 29.5t39.5 35.5t41 35.5t34 29.5q2 9 4 16.5t6 11.5q5 7 7 14.5t13 15.5t14 5q2 -2 2 -5v-29q3 0 7 0.5t9 0.5h109q18 0 37 -13.5t31 -31.5q2 -11 2.5 -23
t0.5 -21q0 -21 -5.5 -42t-13 -37.5t-14 -28t-7.5 -12.5q-1 0 -2 -1t-1 -7q0 -3 -2 -3t-2 3q-4 6 -8.5 2.5t-4.5 -6.5h-8q-2 0 -5 -2.5t-7 -2.5q-3 0 -8 -1.5t-8 1.5q-6 4 -20 7.5t-29 -2.5q-8 -4 -15 -1t-13 9q-5 3 -5.5 15.5t1.5 20.5q9 15 15.5 27t9.5 33q0 3 -11 -4.5
t-28 -21.5q2 -26 3 -54t3 -57q54 -3 86 -5t52 -11zM173 394q1 1 9.5 8t22 16t31 18t36.5 16v39t-1 36q-33 -32 -63.5 -69t-41.5 -68zM339 169q16 23 28 49.5t17.5 56.5t3 63t-17.5 69q-1 -1 -2 -1q-1 -1 -2.5 -1t-2.5 -2q-2 -1 -9.5 -6l-19.5 -13q2 -60 3 -116t2 -99z" />
    <glyph glyph-name="percent" unicode="%" horiz-adv-x="616" 
d="M579 305q20 -9 19.5 -34t-11.5 -60q-9 -28 -25.5 -58.5t-40 -58.5t-53.5 -51.5t-66 -36.5q-6 -2 -18 -2.5t-25 -0.5h-32q-5 -3 -12.5 -1t-10.5 4q-19 10 -24.5 29.5t0 43.5t19 51t33.5 53q13 21 30 40.5t35 35.5t35.5 27t32.5 16h32q14 2 24 2.5t19 0.5q8 2 15.5 1.5
t12.5 -0.5q6 -1 11 -1zM461 116q22 31 37 62q13 26 21.5 55t0.5 52l-4 -2q-3 -2 -3 -5h-5q-10 -3 -28 -17.5t-39 -36t-41 -47.5t-32.5 -53t-15.5 -52.5t11 -44.5q16 10 33 23q14 11 31 27.5t34 38.5zM315 698q21 -9 20.5 -34.5t-11.5 -64.5q-9 -28 -26 -58t-40.5 -58
t-53.5 -51.5t-65 -36.5q-6 -2 -18.5 -3t-25.5 -1q-15 -1 -31 0q-5 0 -15 0.5t-13 3.5q-19 10 -24.5 29.5t0 44.5t19.5 53t33 55q13 19 31 38t36.5 35t37 27.5t33.5 16.5q7 -4 18 -2q6 0 13 2q15 3 25 2t19 2q8 2 15.5 1.5t12.5 -0.5q6 -1 10 -1zM194 505q23 31 39 62
q14 26 23 55.5t1 52.5l-8 -5h-4q-10 -3 -29 -17.5t-40 -36.5t-41 -48.5t-33 -54t-15 -53t13 -45.5q15 10 32 23q14 11 30.5 27.5t31.5 39.5zM24 22q-5 0 -4 8t13 19q3 4 21.5 31.5t47.5 70.5t65 96t73.5 108.5t73.5 108.5t64.5 95.5t47 69t20.5 29.5q4 6 16 14t26.5 14
t29.5 9.5t26 2.5q11 -2 15.5 -5t5.5 -5q1 -4 -2 -6q-9 -12 -26.5 -39t-40.5 -64.5t-50.5 -83t-55.5 -92.5q-35 -60 -72.5 -118t-69 -104t-52.5 -75.5t-22 -32.5q-5 -7 -18.5 -16t-29.5 -18t-30 -16.5t-20 -11.5q-6 -5 -15 -3.5t-17 4.5q-10 4 -20 10z" />
    <glyph glyph-name="ampersand" unicode="&#x26;" horiz-adv-x="668" 
d="M646 187q-11 -14 -22.5 -27t-25.5 -24q14 -11 25.5 -23t22.5 -30q0 -2 -10.5 -4.5t-23.5 -4.5t-24.5 -3.5t-12.5 -1.5q-4 -2 -15 -4t-23 -3.5t-22 -1t-12 3.5l-4 5q-32 -14 -63.5 -22.5t-63.5 -16.5q-110 -27 -214 -27q-32 0 -65.5 8t-57.5 30q-18 17 -25.5 41.5
t-3.5 53.5q8 35 32 62.5t49 55.5q25 29 55 54t59 50q-16 25 -27.5 53t-15.5 57t2 57.5t26 55.5q25 32 56.5 54t67 36t73.5 22t77 11q15 1 31 2.5t32 -1t29.5 -9t22.5 -20.5q14 -18 10 -40.5t-15 -40.5q-18 -30 -41 -55.5t-49 -48t-53.5 -43.5t-54.5 -42q-8 -8 -15.5 -14.5
t-14.5 -13.5q4 -3 7 -10t8 -15q35 -42 74 -78t82 -68q0 -3 2.5 -4t2.5 -6q11 25 17.5 50t10.5 50q0 5 9 8.5t21 5.5t23 3t14 1q1 0 12.5 1.5t24.5 3t23.5 2t10.5 -0.5q-4 -36 -12 -69t-26 -65zM299 534q-3 -25 -0.5 -47t9.5 -43q37 28 68 58t51 70q6 9 11 20.5t6 24
t-2.5 24.5t-14.5 21q-4 3 -7 6t-6 3q-11 -4 -18.5 -7.5t-15.5 -11.5q-32 -21 -54.5 -50.5t-26.5 -67.5zM349 48q28 12 57 27t54 37q-17 14 -34.5 27.5t-35.5 24.5q-36 32 -73 64.5t-69 68.5q-8 -7 -17 -16.5t-16 -16.5q-13 -15 -26.5 -31t-24 -33t-16.5 -35.5t-4 -38.5
q3 -36 25.5 -57.5t54.5 -32.5q18 -5 37.5 -4.5t33.5 0.5q10 0 26.5 5t27.5 11z" />
    <glyph glyph-name="quotesingle" unicode="'" horiz-adv-x="118" 
d="M28 468q-3 2 -5 8q-2 5 -3 16t1 30q1 21 1 29.5v11t-0.5 3t-0.5 4.5q-2 4 -2.5 24t-0.5 45t0.5 48.5t2.5 35.5q1 13 2 20t3 12t5.5 9.5t9.5 12.5q14 13 21.5 14.5t15.5 -9.5q8 -14 12.5 -21.5t4.5 -20.5q0 -15 3.5 -38t3.5 -64t-2 -70t-2 -52q0 -8 -3.5 -11t-7.5 -4
q-5 -1 -11 1q-1 -3 -2 -7q-2 -3 -3.5 -6t-6.5 -4q-9 -5 -10 -11.5t1 -8.5q-2 -1 -5 -1q-2 0 -5.5 0.5t-7.5 3.5q-5 7 -5 2.5t-4 -2.5z" />
    <glyph glyph-name="parenleft" unicode="(" horiz-adv-x="192" 
d="M147 111q5 -16 8.5 -35t7.5 -39q4 -16 4 -24.5t-4 -16.5q-1 -2 -4 -3q-6 -2 -12 -2h-10q-4 0 -5 0.5t-6 4.5q-3 0 -14 2.5t-19 2.5h-2h-7q-25 0 -31 31q-2 6 -7.5 24.5t-11.5 46.5t-12.5 64t-10.5 75q-4 28 -7 55t-3 55q0 27 3 54t7 50q4 39 10.5 75.5t12.5 65.5
t11.5 48.5t7.5 25.5q6 31 31 31h4h3q8 0 20 2.5t15 2.5h11q5 4 6 4.5t4 0.5q16 0 16 -10q7 -7 0 -36q-4 -20 -7.5 -38.5t-8.5 -34.5q-11 -44 -16.5 -82t-8.5 -70q-5 -23 -7.5 -46t-2.5 -43t2.5 -43t7.5 -46q3 -35 8.5 -72t16.5 -80z" />
    <glyph glyph-name="parenright" unicode=")" horiz-adv-x="190" 
d="M35 591q-5 16 -8.5 35t-7.5 39q-4 16 -4 24.5t4 16.5q1 1 4 2q2 1 4.5 2t7.5 1h10q4 0 5 -0.5t6 -4.5q3 0 14 -2.5t19 -2.5h2h7q25 0 31 -31q2 -6 7.5 -24.5t11.5 -46.5t12.5 -64t10.5 -75q4 -28 7 -55t3 -55q0 -27 -3 -54t-7 -50q-4 -39 -10.5 -75.5t-12.5 -65.5
t-11.5 -48.5t-7.5 -25.5q-6 -31 -31 -31h-4h-3q-8 0 -20 -2.5t-15 -2.5h-11q-5 -4 -6 -4.5t-4 -0.5q-16 0 -16 10q-7 7 0 36q4 20 7.5 38.5t8.5 34.5q11 44 16.5 82t8.5 70q5 23 7.5 46t2.5 43t-2.5 43t-7.5 46q-3 35 -8.5 72t-16.5 80z" />
    <glyph glyph-name="asterisk" unicode="*" horiz-adv-x="460" 
d="M203 455q1 -35 2 -64q1 -25 0.5 -46.5t-2.5 -25.5q-4 0 -4 -2q-1 -1 0 -2q-2 -1 -3 0q-2 0 -2 4v10q0 2 -0.5 21.5t-1.5 42.5l-2 62q-34 -36 -60 -65q-11 -12 -22 -24.5t-20 -23t-14.5 -17.5t-5.5 -10q-3 -7 -10.5 -7.5t-7.5 2.5q-4 4 -4.5 5t-0.5 4q0 1 1 3t1.5 3.5
t2.5 3.5q1 1 10 11t22 24t27.5 30.5t28 31.5t23 25.5t11.5 12.5q-1 0 -11.5 0.5t-26 1.5t-33 2.5t-32.5 2.5t-25.5 1.5t-11.5 0.5h-7t-10.5 1t-9.5 3.5t-4 6.5q4 0 23 2.5t40 2.5q11 -2 30 -3.5t37.5 -3t33 -2t16.5 -0.5q-1 3 -4 7q-2 3 -5 8t-8 12q-7 8 -25 31t-37.5 47.5
t-35 44.5t-16.5 22q-7 3 -11.5 9.5t2.5 10.5q2 0 3 -1t3 -2t3 -2q5 0 20 -15q2 -5 12 -18t23 -30.5t28 -36.5t27.5 -35.5t21 -28.5t8.5 -14q1 50 4 93q2 36 5.5 70.5t8.5 46.5v-9q0 -3 1 -3t1 -10q-1 -1 -1.5 -14t-1 -32.5t-1.5 -41.5t-1.5 -41.5t-1 -33.5t-0.5 -16
q34 37 63 67q12 13 24.5 25.5t24 23t20.5 18t15 10.5v-3q0 -2 -1 -3t-2 -3q-4 -3 -13 -12.5t-9 -13.5q0 -3 -9.5 -13t-13.5 -18q-3 -3 -16.5 -17.5t-28.5 -30.5t-28 -30.5t-14 -17.5q19 -2 37 -3q15 -2 31.5 -2.5t27.5 -1.5q12 -2 34.5 -3.5t46 -3.5t42.5 -3.5t22 -3.5
q6 -3 -8.5 -6t-31.5 -3q-8 0 -30 1.5t-46 3t-44.5 3t-23.5 1.5q-4 0 -13.5 0.5t-20.5 1.5q-12 1 -28 3q3 -2 8 -9q5 -6 13.5 -17.5t24.5 -31.5q12 -17 27.5 -35.5t41.5 -51.5q2 -5 4 -9q4 -9 1 -9q-4 0 -7 4.5t-7 4.5q0 4 -5 9.5t-9 9.5q-2 1 -17.5 21t-33.5 43z" />
    <glyph glyph-name="plus" unicode="+" horiz-adv-x="501" 
d="M481 369q6 -16 8 -24.5t2 -12t-1 -3.5h-2q0 -2 -1.5 -3t-1.5 -3q-2 -3 -3 -4l-1 -1h-9q-2 0 -5 -1t-5 -1h-60h-94h-4v-161q4 -12 -4 -18q0 -2 1.5 -3.5t-3.5 -1.5q-13 -2 -25.5 -1.5t-22.5 1.5t-17 2t-9 0q-5 -1 -8 -1q-1 0 -1 1q-7 5 -6 31t-1 63v88q-32 1 -61 1.5
t-50.5 0.5h-35h-14.5q-6 -2 -11 -1t-7 1q-2 3 -3.5 2t-1.5 3q-2 13 -1.5 26t1.5 23t2 17t0 9q-1 4 -1 7q0 1 1 1q5 7 31 7t63 2h90v9q0 3 0.5 14.5t1 24.5t0 25.5t-1.5 18.5v48q2 9 1 15t-2 9.5t0 5.5t6 4h38q16 6 24.5 8t12 2t3.5 -1v-2t1 -2t4 -1q2 -2 3 -2t2 -1l1 -1v-9
q0 -2 0.5 -5t2.5 -5q0 -13 -0.5 -27.5t-2.5 -32.5q2 -20 2.5 -44.5t0.5 -49.5v-4h9q4 0 15.5 -0.5t24.5 -1.5t25 -1.5t18 -0.5q6 2 14 2t16 1q9 0 18 1q9 -2 15 -1t9.5 1.5t5.5 0t4 -6.5v-37v0z" />
    <glyph glyph-name="comma" unicode="," horiz-adv-x="159" 
d="M145 105l6 56v-3q0 -8 -0.5 -21.5t-5.5 -31.5zM145 172q7 0 7 -6q0 -3 -1 -5v5v-8q0 -8 -0.5 -19.5t-5.5 -33.5v-80q0 -11 -0.5 -21t-3.5 -21q-2 -20 -4.5 -37.5l-4.5 -31.5q-3 -16 -6 -30v-10v-4q0 -5 -2 -6t-2 -4q2 -6 -1 -6q-2 0 -4 2q0 -2 -3 -2.5t-6.5 -0.5
t-6.5 -0.5t-3 -2.5q-3 0 -3.5 0.5t-0.5 5.5v4q3 29 7 54q2 20 4.5 38t2.5 20v25q0 3 -3.5 1.5t-10.5 -1.5h-39q-2 0 -7 -1t-11.5 -1.5t-12 -1.5t-6.5 -1t-3 1t-3.5 1.5t-3.5 2.5q-4 0 -2 5q0 2 2 5q0 3 5.5 24.5t8.5 50.5q8 31 13.5 54t5.5 25q0 8 3.5 9.5t6.5 1.5h38
q2 0 10 0.5t16 1.5l22 2q3 0 4 -2t4 -2z" />
    <glyph glyph-name="hyphen" unicode="-" horiz-adv-x="407" 
d="M1 270q13 5 24 9q10 3 19 6t14 3q8 0 14 2q3 1 4 2q30 7 68 17.5t79 14.5q31 3 61.5 4t55.5 0.5t41.5 -2t19.5 -2.5q6 -4 3 -9.5t-3 -8.5q-4 -4 -6.5 -9.5t-2.5 -8.5t-3 -6t-6 -3h-45q-3 0 -22.5 -2.5t-39.5 -6.5q-20 0 -33 -2.5t-20 -6.5q-10 -5 -18.5 -5t-15.5 2
t-12 3.5t-8 -0.5q-5 -3 -17.5 -5t-26.5 -3t-26.5 -1h-17.5q-11 0 -22.5 -2t-17.5 -2q-7 -3 -15 -3t-8 3q-3 7 -6.5 8t-6.5 1q-4 0 -4 6q-1 3 0 7z" />
    <glyph glyph-name="period" unicode="." horiz-adv-x="172" 
d="M7 106q0 7 1 14t8 7q9 0 19.5 2.5t17.5 0.5q8 -1 20.5 -0.5t26 1.5t27 2.5t24.5 2.5q10 0 14.5 -5t5.5 -13.5t0 -19t-2 -20.5q-2 -20 -3.5 -28t-5.5 -24q-5 -16 -23 -16.5t-41 1.5h-74q-16 2 -18 15.5t0 24.5q1 5 2 14t1 18v23v0z" />
    <glyph glyph-name="slash" unicode="/" horiz-adv-x="474" 
d="M4 31q-3 3 2 7.5t16 16.5q2 4 17 33t38 73.5t52 100.5t59 113.5t58.5 113t51.5 99.5t38 72t17 30q7 12 18.5 22.5t24.5 10.5q6 0 10 2t9 3.5t12.5 2.5t20.5 0q11 -2 15 -4t5 -4q1 -3 -2 -5q-7 -12 -20.5 -41t-31 -69t-38.5 -87.5t-42 -96.5q-27 -63 -56.5 -123.5
t-54 -108.5t-41.5 -78.5t-18 -33.5q-7 -13 -19 -19.5t-21 -9.5q-11 -3 -13.5 -10t-12.5 -10q-6 0 -10 -3.5t-15 -13.5q-6 -5 -13.5 -7t-14 -2t-11.5 2t-6 7q1 5 -4 9q-3 2 -7 4q-6 0 -10 2q-2 1 -3 2z" />
    <glyph glyph-name="zero" unicode="0" horiz-adv-x="435" 
d="M255 706q60 -20 99.5 -63.5t60 -102t21 -128t-17.5 -140.5q-12 -38 -27 -77t-35.5 -74.5t-48.5 -64.5t-65 -47h-39q-15 0 -29 -1t-19 -2q-5 -2 -17 -4t-27 -1.5t-29.5 7t-23.5 21.5q-4 7 -15 24t-21.5 49t-15.5 81.5t4 121.5q0 66 10 132.5t21 120.5q7 51 16.5 85.5
t11.5 38.5q-2 3 -1 7q1 2 5 4.5t15 2.5q19 -4 30.5 -4.5t15.5 -0.5q1 2 4 5t14.5 5.5t35.5 4t67 0.5zM250 203q21 48 35 108t13 120t-21.5 115t-68.5 95h-5q-1 -9 -6.5 -36.5t-13 -67t-15.5 -88t-14 -99.5q-3 -31 -6.5 -67.5t-3 -73.5t7 -72t24.5 -62q13 16 26 35
q11 17 24 40.5t24 52.5z" />
    <glyph glyph-name="one" unicode="1" horiz-adv-x="465" 
d="M184 27q-1 3 5 21t14 51q12 45 24.5 99t23.5 104t19 89.5t12 56.5q10 48 13.5 71.5t3.5 33.5q0 11 -3 10q-3 -6 -11 -23.5t-19 -41.5t-24 -53t-26 -57q-13 -25 -24.5 -48.5t-20.5 -42.5t-14.5 -31t-6.5 -13q-3 -4 -31 -4q-9 0 -21.5 -1t-24.5 -2.5t-22.5 -3.5t-15.5 -5
q-20 -5 -22 5v6q0 6 -3 9l-5 4q0 1 6 14.5t16.5 35.5t24.5 50.5t29 61.5q16 33 30 68t28 64q16 31 27.5 53.5t20 39t14.5 29.5t9 25q2 6 16.5 7t32.5 0.5t34.5 -2t22.5 -1.5q9 0 39 3t84 0q9 0 13.5 -3t6.5 -7q3 -4 3 -10q0 -4 -4.5 -35.5t-11 -79t-16 -106.5t-19.5 -119
q-12 -54 -24 -104.5t-21.5 -91t-16.5 -67t-9 -31.5l-3.5 -14l-2.5 -10q-2 -5 -2 -8q-2 -7 -3 -8t-4 -1q-4 0 -9.5 2t-13.5 -2q-4 -1 -12.5 -2t-18.5 -2t-18.5 -2t-12.5 -1q-7 0 -11 -1t-15 -7q-12 -3 -15.5 3.5t-5.5 11.5q-2 7 -5 10q-2 2 -4 3z" />
    <glyph glyph-name="two" unicode="2" horiz-adv-x="754" 
d="M582 695q52 2 90 -15t57.5 -46t20 -67.5t-20.5 -80.5q-23 -52 -81 -100t-145 -88q-27 -12 -62 -28t-61 -28q-75 -32 -103 -50t-28 -21q75 0 135 2q25 0 50 1t44.5 1.5t31.5 1.5t13 2h22t45 0.5t44 1t20 1.5t2 1q3 0 6 -4q5 -2 5.5 -4t0.5 -4q-1 -3 -2 -4q-9 -15 -9 -22
q-1 -4 1 -6q2 -4 4 -10q1 -5 1 -14t-5 -22q0 -10 -2.5 -17t-6.5 -17q0 -9 -2.5 -16.5t-8.5 -7.5q-2 -3 -9.5 -14t-10.5 -14q-3 -2 -4.5 1t-6.5 3q-19 7 -78 6t-149 -1q-51 -2 -95 -3.5t-78 -3t-54.5 -2t-23.5 -0.5q-12 -2 -30 -2.5t-29 -0.5h-44q-10 -3 -11 -2q-2 0 -1 2
q-12 15 -12 24.5v18.5q2 7 2.5 19t0.5 17q0 3 2.5 13t6.5 15q3 6 9.5 20.5t9.5 23.5q0 5 2.5 7.5t5.5 4.5l8 4q8 16 26.5 32t42.5 30t52 27.5t55 25.5q20 8 37 14.5t30 12.5q15 6 28 13q88 46 140 89t78.5 80t33.5 65t6 45q-2 8 -6.5 15.5t-9.5 12.5q-6 6 -12 11
q-9 -3 -15 -4.5t-13 -5.5t-14.5 -10.5t-19.5 -18.5q-33 -29 -58 -66t-41.5 -71.5t-26 -59.5t-10.5 -29q-2 -10 -7 -11.5t-17 -1.5q-12 2 -31.5 1t-27.5 -1q-5 -2 -8.5 0t-7.5 4t-8.5 2.5t-11.5 -3.5q-14 -3 -22 1q-4 2 -6 4q0 12 -4.5 14t-12.5 2q-4 -4 -7 -4q-2 -1 -4 0
q6 19 13 41.5t16 44.5t18.5 43t20.5 37q37 63 84 94t90.5 44t76.5 13h42q19 3 32 -2z" />
    <glyph glyph-name="three" unicode="3" horiz-adv-x="584" 
d="M462 708q24 -2 47.5 -17t41 -40.5t26 -58t2.5 -68.5q-3 -24 -12.5 -48.5t-28 -49t-47.5 -47.5t-72 -44q-3 -3 -4.5 -4t0.5 -4q40 -15 61.5 -37t30 -47t6.5 -51t-7.5 -47.5t-13 -37t-10.5 -20.5q-28 -33 -53.5 -50.5t-46.5 -25.5t-36 -9.5t-23 -1.5q-12 3 -38.5 3
t-49.5 -3q-11 0 -20 0.5t-17 1.5q-9 1 -16 2q-8 6 -19 13q-9 6 -20.5 14.5t-23.5 17.5q-20 23 -39.5 42.5t-32.5 33.5q-16 17 -24.5 32t-12.5 26q-4 12 -5 22q-3 6 12 7t33 1q17 2 35.5 2.5t33.5 1.5q18 1 33 1q9 -36 30.5 -66t43.5 -52q26 -26 55 -46q25 16 41.5 34.5
t26.5 38t13.5 38.5t3.5 36q0 57 -34.5 86.5t-91.5 34.5q-21 2 -31 4t-15 4q-5 3 -5 5l5 8q-4 5 7.5 7t26.5 3q18 1 41 0q14 5 27 11q11 5 24 12.5t24 16.5q49 41 67.5 80t20.5 70t-6 51.5t-11 25.5q-3 6 -4.5 7.5t-2.5 1.5t-1 -2q-6 0 -13 -10.5t-19 -26.5
q-21 -22 -45.5 -50.5t-45.5 -54.5q-25 -31 -49 -62q0 -4 -2.5 -5t-5.5 -4q0 -2 -1 -6.5t-7 -1.5q-5 0 -20 1t-33 2.5t-35.5 2t-28.5 -0.5q-10 -2 -14 -1.5t-6 1.5t-1 3q0 3 1.5 4.5t-1.5 8.5q-2 2 -2.5 3.5t-1.5 3.5t-1 5l5 4q1 3 5 7q2 4 6.5 9.5t9.5 13.5q14 19 35 45
t41 49q24 27 49 56q5 5 14 14.5t18.5 19.5t16.5 18t9 11q7 14 22 14q3 0 18.5 2.5t31.5 5.5h105v0z" />
    <glyph glyph-name="four" unicode="4" horiz-adv-x="632" 
d="M622 300q7 0 8.5 -2.5t0.5 -6t-3 -7t-2 -4.5v-4h-111q-8 -2 -28.5 -2.5t-41.5 0.5q-25 0 -54 2q-7 -15 -14 -33q-6 -15 -14 -36t-15 -44q-9 -25 -17.5 -48t-15.5 -41.5t-12 -31.5t-6 -17q-3 -5 -4 -8t-4 -3q-3 3 -10 4.5t-10 -0.5q-6 -3 -16.5 -3.5t-22.5 -0.5
q-6 0 -14 -1.5l-16 -3t-14.5 -2.5t-9.5 -1q-6 -3 -10.5 -4t-4.5 7q0 3 -1 6t-2 5q-2 3 -3 5q-6 3 4 28.5t24 58.5q10 26 21.5 54.5t20.5 51.5q11 27 21 54q-4 1 -17.5 1.5t-29.5 -0.5t-31 -2.5t-21 -2.5q-2 -2 -4 -6.5t-11 -1.5q-6 3 -21 2.5t-32 -2t-32 -4.5t-21 -4
q-9 -2 -13 0.5t-6 12.5q-3 5 -4.5 8t4.5 15q3 3 24 34.5t51.5 77t65.5 97t66 93.5q27 41 43 68t16 29q6 12 13.5 14t10.5 2t16 -0.5t27.5 -1t27 -0.5t15.5 2q3 0 15.5 0.5t27.5 1t28.5 0t18.5 -1.5h35q10 0 12 -14t-2.5 -37.5t-13.5 -53.5t-19 -63q-14 -43 -28 -82.5
t-25 -71.5q-13 -37 -26 -69q4 0 20.5 -0.5t39 -1.5t48 -2.5t48 -2.5t39 -2.5t21.5 -2.5zM309 441q3 12 8 30.5t10.5 37t10 33t6.5 17.5q0 1 -11.5 -14t-28.5 -39.5t-38 -54.5t-40 -58q-26 -38 -45 -63.5t-17 -25.5q20 1 38 3q15 1 31 2t24 -1q12 30 23 56q9 23 17 44.5
t12 32.5z" />
    <glyph glyph-name="five" unicode="5" horiz-adv-x="598" 
d="M16 292q0 3 -1 4.5t9 8.5q8 8 14.5 10.5t12.5 2.5t11.5 -0.5t11.5 2.5q9 5 15 5.5t10 0.5h21q2 0 2.5 -3t2.5 -6q1 -4 3 -8q-8 -91 -7 -142.5t6 -77.5q5 -31 14 -39q72 38 117.5 93t72.5 113t39 111t17 88q2 9 1.5 17t-0.5 15q-1 8 -1 15q-3 -5 -21 -23.5t-46 -56.5
q-6 -10 -12 -13t-13 -12q-8 -10 -14.5 -14.5t-11.5 -6.5t-10 -3l-10 -2q-5 0 -19 -2t-29 -4q-18 -3 -39 -6q-26 4 -35 21.5t-6.5 42t14 52.5t27.5 55q15 25 32.5 46t32.5 36q18 18 35 31q0 9 4 13.5t4 11.5q3 8 11 11q4 2 9 2q8 0 28 4.5t51 6.5q43 2 81.5 4t68.5 4
t48.5 3.5t20.5 1.5q0 -4 7 -4q2 -2 1 -12.5t-2.5 -24t-3.5 -27t-2 -19.5q-4 -13 -7 -15t-6 -2q0 -1 -1 -2q-2 -2 -5 -2q-2 0 -3 -2t-4 -2q-20 1 -61 -0.5t-82 -4.5q-48 -4 -103 -8q-33 -38 -49.5 -65.5t-24.5 -45.5q-9 -21 -9 -35q34 51 70 77.5t71 39.5q20 6 40.5 7t39.5 1
q17 3 32.5 2t26.5 -3q13 -3 24 -7q14 -10 22.5 -47t5.5 -88.5t-20.5 -112t-54 -117.5t-96 -104.5t-145.5 -73.5q-6 -2 -18 -2.5t-25.5 -1.5l-27 -2t-21.5 -2q-15 -3 -20.5 1t-8.5 7q-2 -2 -7.5 -3t-11.5 -1q-7 -1 -15 0q-35 0 -54.5 15t-27.5 39t-8 53.5t3 60t6.5 58
t2.5 46.5v16z" />
    <glyph glyph-name="six" unicode="6" horiz-adv-x="517" 
d="M486 351q2 -21 1 -41q-1 -17 -5 -37.5t-13 -37.5q-8 -29 -25 -61t-39.5 -61.5t-49.5 -54t-57 -38.5q-65 -11 -120 -15q-24 -2 -47.5 -2.5t-44.5 1.5t-37 7t-24 14q-7 8 -13.5 15t-2.5 25q-2 4 -3.5 8t-1.5 10t1.5 15.5t6.5 24.5q6 18 15 42q8 20 18.5 47.5t24.5 59.5
q22 49 52.5 112.5t63.5 125t65.5 113.5t59.5 77q7 2 23 4q14 1 36.5 1t60.5 -5q3 -2 9 -3t9.5 -3t4 -6.5t-6.5 -12.5q-3 -3 -9.5 -12t-15 -21t-18 -27t-18.5 -30q-17 -29 -34 -59t-30.5 -56t-21.5 -44t-6 -21q8 1 17 3q8 2 15.5 3t14.5 3q10 3 33 4.5t47 -3.5t43 -19.5
t22 -44.5zM332 248q9 26 11.5 45t0.5 32.5t-8 22.5t-14 14q-18 12 -48 10q-3 -3 -12.5 -21.5t-22 -45.5t-26.5 -59.5t-26 -62t-20 -53.5t-9 -35q-2 -7 -2.5 -12.5t2.5 -10.5t11 -11t22 -13q18 9 41.5 35.5t44.5 58t36.5 61t18.5 45.5z" />
    <glyph glyph-name="seven" unicode="7" horiz-adv-x="543" 
d="M180 701q10 2 24.5 3.5t29.5 2t28 0.5t21 -1q8 -2 35 -2t57 0.5t55 1t30 0.5t6.5 -1t3 -3t3.5 -5.5t8 -7.5q8 -5 11 -21.5t3 -35t-1.5 -34.5t-2.5 -19q4 -46 -4.5 -81.5t-21 -62t-25.5 -44t-17 -27.5q-5 -8 -14 -20.5t-19 -24.5q-11 -14 -24 -30q1 -4 6 -7l10 -6
q3 -2 21.5 -13t41 -25t44 -27.5t30.5 -19.5q18 -9 20.5 -16.5t-7.5 -20.5q-5 -7 -7.5 -9.5t-4.5 -3.5t-2 0q-6 4 -16.5 11.5t-24.5 16.5t-30 19t-32 19q-37 22 -80 48q-2 -2 -14 -17l-30 -37.5t-38.5 -49t-38.5 -52t-30 -46t-13 -30.5q-2 -6 -2.5 -9t-2.5 -3q-4 0 -3.5 -3.5
t-1.5 -9.5q-11 8 -16 18t-7 20t-2.5 17.5t-3.5 10.5q-2 8 0.5 16.5t1.5 10.5q-2 7 -2 14t3 19q-2 6 2.5 17.5t12.5 25.5t18.5 30t21.5 32q26 37 62 80q-27 16 -49 30q-19 11 -35.5 21.5t-19.5 12.5q-3 0 -19 10t-35.5 22.5t-39 24t-29.5 14.5q-10 5 -15.5 13t-7 15.5t1.5 13
t10 5.5q6 0 29.5 -13.5t50 -30t49 -31t28.5 -17.5q6 -5 23 -14.5t36 -20.5q22 -12 48 -26q39 38 68.5 76.5t50 70t31.5 51.5t13 22q1 2 -12 1.5t-29 -0.5q-18 -1 -42 -1q-10 -2 -26.5 -1.5t-36 1.5t-40 1t-37.5 -1q-26 -5 -40 1.5t-21 17.5t-8 24t-1 21q-2 6 -2.5 10t-1 9
t-0.5 13v22q-2 14 3 19.5t13 7.5q9 1 20 -2z" />
    <glyph glyph-name="eight" unicode="8" horiz-adv-x="596" 
d="M563 483q-12 -22 -26.5 -39t-28.5 -30t-27 -23t-20 -17q38 -10 55.5 -25t34.5 -43q10 -15 12 -40.5t-5 -54.5t-22.5 -59t-39.5 -52q-25 -20 -54.5 -38.5t-64.5 -32t-75 -21t-86 -5.5q-16 -3 -48 -3t-66 9t-62.5 30.5t-37.5 60.5q-5 25 -1 49t13.5 45t24 39.5t29.5 33.5
q36 36 86 64q-34 22 -48.5 51t-14 60t13 63t32 60.5t42 51.5t44.5 37q31 19 66 30t68 16t62 5.5t48 -0.5q21 -2 27 -4.5t4 -5.5q-2 -4 -10 -7q48 -6 72 -27.5t30 -50.5t-2.5 -62.5t-24.5 -64.5zM400 160q19 34 24 67q4 28 -5.5 57t-48.5 47q-7 -2 -14 -3q-6 -1 -13.5 -1.5
t-13.5 -0.5q-4 0 -19 -6t-35.5 -17t-42.5 -27t-41.5 -36t-32.5 -44.5t-14 -51.5q-1 -10 3 -25t14 -30t27 -28t42 -19q26 6 55 20q24 12 54.5 35t60.5 63zM329 386q19 10 40.5 32.5t39.5 50t30 57t11.5 55t-17 43.5t-53.5 22q-26 -15 -50 -33q-20 -15 -40 -35.5t-28 -43.5
q-9 -21 -15.5 -41.5t-8 -40t4.5 -38.5t23 -36q5 2 14 4q8 2 20 3t29 1z" />
    <glyph glyph-name="nine" unicode="9" horiz-adv-x="602" 
d="M532 658q19 -28 27 -68.5t5 -88t-17 -100t-38 -104.5q-28 -56 -56.5 -98.5t-61.5 -75.5t-72 -57t-87 -41q-38 -13 -71 -15q-29 -2 -56.5 6.5t-39.5 39.5q-10 30 -20 62t-16.5 59.5t-7.5 46.5t8 23q21 7 32 13t19 10q3 2 6 2t6 1q3 0 6 1q4 2 8 3q9 2 15 -3q4 0 5 -3.5
t5 -14.5q7 -14 12.5 -42.5t13.5 -58.5t21 -55t36 -34q3 1 7 2l6 2t5 1q51 48 94 113q37 56 71.5 136.5t47.5 185.5q-1 -4 -8 -21t-19.5 -41.5t-30 -52t-40.5 -51.5t-50.5 -41t-59.5 -20q-7 0 -12 -1t-9.5 -1.5t-6.5 -2.5q-1 0 -8 -1.5t-17.5 -1t-22 5t-21.5 16t-16.5 31.5
t-6.5 52q0 26 8.5 58t23 64.5t34.5 63.5t43.5 56.5t49.5 43t53 23.5q41 15 80 19q33 3 67.5 -5.5t55.5 -40.5zM227 339q16 14 34 42.5t33 64t25 75.5t10 76q-33 -40 -58 -83q-21 -37 -36 -82.5t-8 -92.5z" />
    <glyph glyph-name="colon" unicode=":" horiz-adv-x="272" 
d="M12 60q0 2 1.5 9.5t4 16t5 16.5t4.5 12q5 7 11.5 23.5t10.5 24.5q13 20 19.5 23.5t17.5 3.5q6 1 18 4t24 5.5t21.5 4.5t11.5 2q5 0 5.5 -8.5t0.5 -13.5q0 -4 2.5 -8t2.5 -8q0 -2 -1 -2.5t-2 -1.5t-2 -1q-5 0 -3 -10t-3 -22q-2 -4 -5.5 -19t-6.5 -32t-5.5 -32t-2.5 -18
q0 -9 -5 -15.5t-17 -6.5q-8 0 -33.5 -3t-58.5 -3q-16 -2 -20.5 7.5t-2.5 20.5q1 13 8 31zM81 424q0 8 0.5 20.5t4.5 17.5q0 3 3 12t3 14q4 8 5 15t6 12q0 4 9 23t17 35q9 17 13 19.5t9 2.5q3 0 10 1q6 1 16.5 1.5t27.5 2.5q20 0 37 2t21 -2q2 0 2 -3.5v-8t0.5 -9t2.5 -6.5
q0 -8 -2.5 -9.5t-2.5 -6.5q0 -4 -0.5 -12.5t-4.5 -8.5q0 -4 -2.5 -19t-5.5 -32.5t-5.5 -33.5t-2.5 -22q-5 -12 -10.5 -17t-22.5 -5q-6 2 -17.5 2.5t-26 -0.5t-30 -3t-27.5 -4q-19 0 -24 11q-3 4 -3 11z" />
    <glyph glyph-name="semicolon" unicode=";" horiz-adv-x="177" 
d="M23 312q0 6 0.5 15t3.5 12q0 3 2 10t2 10q3 6 4 11t4 8q0 3 7 17.5t13 25.5q5 12 8.5 14t6.5 2q3 -1 8 0q5 0 12 1t19 3q15 0 28 1.5t16 -1.5q2 0 1 -8.5t-1 -11.5q2 -5 1 -6.5t-1 -4.5t-0.5 -10t-3.5 -10q0 -2 -2 -12l-4.5 -22.5t-5.5 -24t-4 -15.5q0 -9 -4 -12.5
t-16 -3.5h-13t-19.5 -0.5t-21.5 -1.5t-20 -2q-9 0 -13 2.5t-6 5.5q-2 4 -1 8zM137 96q0 15 2 26.5t2 16.5v4zM137 151q5 0 5 -4q0 -2 -1 -4v4v-8q-3 -5 -3.5 -15t-0.5 -28v-66q0 -9 -2 -18t-2 -17q-2 -17 -4 -32t-4 -26q-3 -13 -4 -25v-8v-3q0 -3 -2 -4t-2 -4q0 -6 -2 -5.5
t-2 -2.5q-2 0 -8.5 1.5t-6.5 -1.5q-3 -3 -3.5 -1t-0.5 5v4q3 25 6 45q2 17 4 32t2 17v19q0 3 -3 1.5t-9 -1.5h-31q-3 0 -16 -2t-16 -2q-2 -1 -3 0q-1 0 -5 4q-4 0 -2 4q0 2 2 4q0 3 4.5 21t7.5 42q6 26 11 44.5t5 21.5q0 6 2.5 7t5.5 1h31q2 0 8 0.5t13 1.5l18 2q3 0 4 -2
t4 -2z" />
    <glyph glyph-name="equal" unicode="=" horiz-adv-x="484" 
d="M453 319q-5 0 -26.5 1.5t-47.5 -1.5q-29 -2 -72.5 -2.5t-83.5 -0.5q-22 0 -48.5 -1t-49.5 -3q-27 -2 -55 -3q-2 -3 -16 -2t-30 -2q-8 0 -7.5 2.5t0.5 4.5q0 3 1 7.5t-4 7.5q-3 2 -5 5.5t1 11.5q3 5 -1 10.5t-6 11.5q0 8 9 7.5t23 -0.5q7 1 14.5 1h13.5q7 0 14 -1h174h33
t49.5 0.5t47 1t26.5 1.5t14 2t18 0.5t16 -1.5t9 -4q2 -5 5 -5t5 -2q8 -11 4 -15.5t-4 -9.5q-2 -5 -8.5 -12t-8.5 -10h-4zM453 440q-5 0 -26.5 1.5t-47.5 -1.5q-29 -3 -72.5 -3.5t-83.5 -0.5q-22 0 -48.5 -1t-49.5 -3q-27 -2 -55 -3q-2 -2 -16 -1.5t-30 -1.5q-8 0 -7.5 2
t0.5 5q0 2 1 7t-4 7q-3 3 -5 6.5t1 11.5q3 5 -1 10.5t-6 10.5q0 5 9 6t23 1q7 2 14.5 1.5t13.5 -0.5q7 -1 14 -1h174q9 0 33 -0.5t49.5 -0.5h47t26.5 1t14 2.5t18 1.5t16 -0.5t9 -3.5q2 -5 5 -4.5t5 -2.5q8 -11 4 -15.5t-4 -9.5q-2 -5 -8.5 -11.5t-8.5 -9.5h-4z" />
    <glyph glyph-name="question" unicode="?" horiz-adv-x="364" 
d="M40 62q8 0 22.5 -1t20.5 1q5 0 10 -1t7 -1q5 0 5 -11v-10q0 -4 0.5 -8t2.5 -6q0 -6 -1.5 -12.5t-9.5 -6.5h-32q-11 0 -20 -0.5t-11 7.5q-2 7 -2 11v14q-2 8 -2.5 17.5t10.5 6.5zM32 88v-2q0 -2 2 -2q-2 0 -2 2v2zM2 550q10 57 24.5 86.5t28.5 42.5q16 15 32 15h16
q15 0 26 3q36 4 51 3q9 -1 15 -3q39 -11 69 -32.5t50.5 -48.5t31.5 -56.5t12 -55.5q2 -21 0.5 -36.5t-5.5 -26.5q-2 -6 -13 -22.5t-26.5 -35t-34 -35.5t-35.5 -24q-23 -11 -40 -22t-28 -19q-4 -2 -6.5 -5.5t-6.5 -5.5q-17 -17 -27.5 -36.5t-16.5 -39.5q-8 -24 -8.5 -48.5
t5.5 -38.5v-8q-3 -11 -5 -11q0 -8 -6 -8q-2 2 -5 3.5t-5 -1.5q-2 0 -5.5 0.5t-6.5 3.5h-37q-6 -4 -8 -4q-2 -1 -4 0q-2 0 -2 2v2v1q0 1 -1 1.5t-2 2.5v13q1 3 0.5 13t-1 23t0 27.5t3.5 26.5q8 29 22.5 59t37.5 53q4 7 23 22t41.5 30.5t43 29t27.5 16.5q7 4 13.5 14t11 21
t7 20t2.5 10q5 45 -13 81.5t-41.5 62t-45 38.5t-23.5 11q-8 -8 -16 -26.5t-14 -38t-9.5 -34t-3.5 -15.5q-2 -2 -1 -5.5t-7 -3.5q-14 -2 -28 -2.5t-33 -0.5h-12.5t-4.5 0.5t-1 1t-1 1.5q-2 0 -4 4q-1 2 -1 5z" />
    <glyph glyph-name="at" unicode="@" horiz-adv-x="836" 
d="M719 639q31 -18 55.5 -44t41 -57.5t24 -66.5t5.5 -71q-2 -35 -11.5 -69.5t-26.5 -65.5t-41 -56.5t-55 -42.5q-13 -8 -26 -12.5t-24 -12.5q3 0 8 -2.5t7 -2.5t9 -5t9 -5q2 -1 3.5 -4t-3.5 -6q-53 -33 -112 -58t-122 -40t-128.5 -17.5t-129.5 10.5q-33 7 -63 19.5t-55 32
t-43.5 45t-27.5 58.5q-22 85 -3.5 171t66.5 156q48 68 115 113q35 25 75.5 45t82.5 31q46 11 94.5 15t96.5 -0.5t93.5 -18.5t85.5 -39zM725 376q7 34 5 70.5t-13.5 70.5t-33 63t-52.5 49q-11 11 -36.5 23t-70.5 12q-39 -5 -81.5 -16t-79.5 -29q-76 -41 -136.5 -102.5
t-86.5 -145.5q-11 -33 -17.5 -72.5t-4.5 -79.5t13.5 -76.5t37.5 -63.5q11 -11 24 -21.5t20 -13.5q7 -4 15.5 -7t18.5 -3q10 -1 19.5 -0.5t14.5 0.5t24.5 3.5t34.5 6.5q58 11 112.5 32.5t106.5 50.5q-19 0 -36.5 3t-36.5 7q-18 -19 -39.5 -33t-44.5 -25q-31 -13 -67 -15.5
t-69.5 6.5t-59.5 30t-37 55q-8 23 -8.5 48t0.5 51q2 47 16.5 90t35.5 85q18 29 41 53t57 34q19 9 42 12.5t47 2t47 -8t43 -15.5q27 -16 37.5 -37t11.5 -46.5t-3.5 -54.5t-6.5 -62q-7 -51 -8.5 -79.5t-0.5 -42.5q1 -16 4 -19q12 0 20 3t19 7q66 22 108.5 76t53.5 124z
M412 273q16 42 22 82t3 74q0 14 -7 30.5t-18 27.5q-29 -11 -51.5 -34t-39.5 -52t-28 -60t-17 -58q-3 -38 -4 -78t14 -73q4 -8 8 -13t7 -12q15 6 34 31t36 54t29 53.5t12 27.5z" />
    <glyph glyph-name="A" unicode="A" 
d="M475 664q8 -4 6 -6q-1 -1 -4 -2q-1 -1 -2 -1q-2 -2 -2 -3q8 -6 5.5 -13.5t-4.5 -12.5q-5 -15 -3.5 -19.5t-4.5 -14.5q0 -6 -6 -8q-3 -1 -5 -1q1 -3 4 -33t7 -75t8 -99.5t7 -107.5q2 -47 2.5 -91t-0.5 -77.5t-2.5 -54.5t-2.5 -22q-1 -20 -4 -23.5t-5 -3.5q-3 0 -12.5 1.5
t-12.5 -1.5q-2 0 -6.5 0.5t-20.5 3.5q-10 1 -21.5 0.5t-21.5 -1.5q-12 -1 -24 -3q-9 0 -10.5 1.5t-3.5 9.5q-5 6 -5.5 9.5t-1.5 6.5v5t2 11q-1 1 -1 5v9v12q-17 0 -35 1q-15 1 -34 1.5t-36 0.5q-14 2 -23.5 1.5t-16.5 -0.5q-8 -1 -14 -1t-7.5 -4.5t-6.5 -21.5q-3 -9 -5 -16
t-4 -12q-2 -6 -3 -11q-5 -5 -11 -2t-23 6q-17 0 -28 2t-31 2q-8 2 -16.5 2t-14.5 1q-8 0 -14 1q-5 0 -4 2.5t0 5.5q-3 3 -3 10q0 3 1 6q0 1 8.5 31.5t23 78.5t32 108t35.5 122q16 55 30.5 107.5t25.5 94.5t17.5 69.5t6.5 33.5q4 14 8 14h13h26q-1 1 1 3q1 0 2 1
q17 3 38.5 3.5t41.5 0.5q14 2 28 0t34 -6q5 -1 9 -1t23 -4q11 -3 21 -4.5t18 -2.5q9 -1 17 -1q5 0 5 -4q0 -2 -1 -3l-2 -5q5 -2 6 -3t2 -1q0 -1 1 -2t1.5 -2t2.5 -3zM316 203q-2 69 -4.5 120.5t-6 91t-8.5 69.5t-11 57q-1 2 -1 -4q0 -3 -1 -7q-6 -26 -14 -53
q-7 -23 -15.5 -53t-17.5 -60q-8 -31 -16.5 -59t-15.5 -50q-8 -26 -16 -48h4q21 -2 42 -3q18 -2 39.5 -2.5t39.5 -2.5q4 -3 2 4z" />
    <glyph glyph-name="B" unicode="B" horiz-adv-x="480" 
d="M366 700q37 -13 62 -35t39.5 -48t19 -52t1.5 -46q-7 -38 -31.5 -75.5t-65.5 -69.5q-11 -6 -24 -16q-7 -5 -15 -11q4 -3 16 -8t24.5 -14t24 -23.5t15 -37t-4 -54.5t-30.5 -75q-26 -56 -63.5 -84t-73 -39.5t-62.5 -12t-30 -0.5q-8 0 -20 0.5t-25 1.5t-25 1t-19 -2
q-13 -2 -21.5 -0.5t-13.5 3.5q-6 3 -10 7q-2 2 -5 2.5t-12 -1.5t-9.5 0.5t-3.5 7.5l-2 6q-1 1 -1 2q1 2 1 5.5t1 10.5q2 13 6.5 38t12 58t16.5 72t20 81q15 65 31.5 131t30 121t22.5 91.5t9 41.5q1 10 4 11.5t5 1.5q1 1 11.5 1t12.5 1q9 3 27.5 5t25.5 2q8 0 11 1q3 0 4 1
q34 5 62.5 4.5t51.5 -5.5zM286 243q0 12 -2 23t-9 21t-20 18.5t-34 15.5h-3q-3 -1 -4 -6q0 -1 -2.5 -10.5t-6.5 -25.5l-9 -36t-10 -41l-12 -50t-10.5 -45.5t-7.5 -34.5t-3 -15q-1 -2 0 -3q0 -3 6 2q15 6 36.5 25t41 46t34 57.5t15.5 58.5zM274 420q12 10 24.5 24t23 30
t16.5 34t5 38q-2 21 -12 43.5t-31 40.5q-1 1 -2 1q-2 0 -3 -3q1 -5 -9 -35.5t-21 -71.5q-6 -23 -11.5 -45.5t-10 -40.5t-8 -29.5t-3.5 -12.5q-1 -1 0 -2q0 -3 4 1q2 1 13 8t25 20z" />
    <glyph glyph-name="C" unicode="C" horiz-adv-x="458" 
d="M236 145q2 2 -0.5 7t-3.5 9q-1 3 -1 6.5v5.5q0 3 1 6q10 42 22 86t23 79q21 63 26 111.5t2 82t-9.5 52t-6.5 20.5q-1 5 -3 7q-1 1 -3 1q-20 -73 -33 -133.5t-27 -108.5q-30 -112 -44 -176t-19 -96.5t-4 -41t1 -10.5q0 -3 7.5 -10t18.5 -7q33 5 68.5 6.5t65.5 1.5t51 -0.5
t26 -0.5q13 0 6 -9q-1 -1 -1 -3q0 -4 4 -5l2 -9q-4 -4 -1 -12q-4 2 -19 2.5t-32.5 0.5t-33.5 -0.5t-20 -0.5q-23 0 -36 -0.5t-21.5 -1t-16 -1t-20 -1t-33.5 -1t-57 -0.5q-29 0 -46 2t-27 4q-11 3 -16 6q-5 4 -13.5 19t-11.5 53q0 10 4.5 36.5t12 62.5t17.5 79t21 86
q25 101 56 223q0 4 2 13.5t4.5 19.5t5 18.5t3.5 12.5q3 3 5.5 11t4.5 16.5t4 15.5t4 7q-2 3 0.5 7.5t20.5 4.5q34 -2 57.5 -0.5t40 3t28 3.5t21.5 2q47 -4 76 -25.5t45 -52.5t21 -66.5t4.5 -66.5t-4 -54.5t-5.5 -29.5q-1 -7 -6 -28.5t-12 -49.5t-16 -59t-16.5 -58
t-13.5 -45.5t-8 -21.5q-6 1 -24.5 1t-39 -1.5t-37.5 -2.5t-20 -1q-7 -3 -14 -3t-7 3z" />
    <glyph glyph-name="D" unicode="D" horiz-adv-x="452" 
d="M439 513q11 -57 10 -123.5t-21 -134.5q-17 -54 -42 -102.5t-70 -96.5q-27 -20 -62 -36t-65 -20q-24 0 -45 -1q-18 -1 -36 -2.5t-27 -3.5q-18 -3 -33 -2.5t-20 6.5q-2 6 -8.5 4.5t-10.5 -1.5q-2 0 -4.5 3t-2.5 5v5q-3 2 -1.5 5t1.5 11q1 1 2 3q2 4 2 9q0 2 11.5 48
t33.5 119q18 59 33 119t26.5 116.5t18 107.5t7.5 93q1 10 3 18q2 7 4.5 13t5.5 6q2 1 16 1.5t30 2.5q18 1 41 3q17 1 32 3q13 2 24 3t16 1q6 1 13 1q13 0 23 -8q6 -6 18 -20.5t26 -36.5t28 -51.5t23 -66.5zM303 326q6 24 8 55t-0.5 63t-11 61t-23.5 47q-2 -6 -7.5 -29
t-13.5 -57.5t-18 -77.5t-20 -89q-11 -45 -21 -87.5t-18 -75.5l-18 -72q30 16 57 50q23 29 47.5 80t38.5 132z" />
    <glyph glyph-name="E" unicode="E" 
d="M144 686l14 2q10 1 23 5q9 5 35 8t61 4.5t74.5 2t76 -0.5t66 -3t43.5 -5q1 -2 1 -7t-1.5 -12.5t-3.5 -20.5l-4.5 -21t-2.5 -11t-2 -6.5t-4 -6.5q-2 0 -1.5 -3.5t0.5 -7.5q0 -5 1 -11v-4q0 -2 -1 -4l-2 -4q-5 0 -5.5 -0.5t-0.5 -3.5q-2 -3 -3.5 -5t-15.5 -2.5t-46 0
t-94 3.5h-26t-30 -0.5t-26 -1t-12 -1.5q0 -2 -3 -22t-7 -43l-10 -62l46 2q8 -2 25 -1.5t35 0.5t34.5 -0.5t23.5 -3.5q20 -5 23 -9.5t3 -7.5q-2 -2 -2.5 -8.5t-1.5 -15t-1 -16v-10.5q0 -5 -3.5 -9t-6.5 -8q-3 0 -3.5 -5t-0.5 -11t-4.5 -18t-19.5 -14q-6 -2 -21.5 -3t-35.5 -1
t-41 0.5t-39 0t-30 -1.5t-13 -4q-2 -5 -7.5 -29.5t-12.5 -52.5q-8 -33 -17 -73q1 0 12 -0.5t26 -1.5t31.5 -1.5t28.5 -0.5q11 -2 32.5 -3t43 -2.5t39 -2t20.5 -0.5t-2.5 -7.5t-5.5 -13.5q0 -5 -2 -20t-6 -25q-3 -9 -4 -14t-4 -15q-5 -9 -5 -16t-3.5 -12t-14 -7.5t-35.5 -0.5
q-27 0 -56 1q-25 1 -55.5 1.5t-59.5 0.5q-46 4 -77.5 2t-36.5 -2q-4 0 -8 2q-3 2 -5.5 4t-2.5 7q2 3 -2 6t-8 3q-2 0 -4 7t1 17q3 4 3 8v8q0 3 2.5 4.5t2.5 8.5q9 34 18.5 80.5t19.5 98.5q8 34 16.5 70t15.5 73q6 34 11.5 69t13.5 66q4 34 8 62.5t8 48.5t9 30.5t11 9.5z" />
    <glyph glyph-name="F" unicode="F" horiz-adv-x="495" 
d="M1 34q1 4 8.5 41.5t17.5 94.5t21 126.5t21 138.5q6 48 10 91t6.5 76.5t3.5 54.5t1 25q1 6 5.5 8.5t10 3.5t11 0.5t8.5 -0.5q-2 2 0 2t4 1q3 0 7 1h25.5t52 0.5t66.5 1t70 2.5q29 0 55.5 0.5t47.5 1t33.5 1t14.5 0.5q4 2 7 1.5t5 -0.5q2 -1 3 -1v-3q14 0 1 -43
q1 -18 -0.5 -35t-1.5 -19t-2 -13t-2 -13q0 -4 -7.5 -5t-20.5 -4h-26q-1 -1 -12.5 -1.5t-28.5 -1.5t-38 -2t-41 -2q-20 0 -38 -1t-32 -2q-16 -1 -30 -2q-5 0 -6.5 -8t-2.5 -20.5t-2.5 -28.5t-5.5 -32q-1 -11 -3.5 -23t-4.5 -21.5t-3.5 -15.5t0.5 -6h105h61.5t42.5 1
q19 1 32 2q1 0 3 -2q0 -1 1 -1l4 -4q3 -8 1.5 -24t-3.5 -33q1 -24 0.5 -40t-3.5 -19t-17.5 -3.5t-35.5 -1t-45 -1t-46 -1.5q-14 2 -34 1t-38 -2q-21 -2 -44 -3q-6 0 -7 -6t-4 -18q0 -12 -2.5 -26t-8.5 -31q-4 -28 -8.5 -58t-9.5 -55q-5 -29 -11 -57v-2q0 -2 -0.5 -3.5
t0.5 -4.5q-2 -5 -3.5 -7t-2.5 -3l-2 -1q-6 3 -16.5 4t-23.5 1t-26 -0.5t-23 -0.5q-5 0 -8.5 -0.5t-6.5 -1.5q-4 -1 -6 -1l-6 -1q-5 2 -8 8t-5 12q-3 7 -4 14z" />
    <glyph glyph-name="G" unicode="G" horiz-adv-x="635" 
d="M2 133q-3 63 10.5 124t35.5 116t48.5 101t49.5 80t38.5 54t16.5 21q3 4 9 10.5t12 13.5t11 13.5t7 9.5q-2 8 5.5 13t18.5 7q12 3 28 3q0 1 1 2q2 2 7 2h32q13 3 23.5 3t18 -1t12.5 -2.5t7 0.5q2 3 24.5 3t58.5 -3q17 0 28 -0.5t19 -1.5q9 -1 15 -2q34 -10 49 -36t17 -60
t-5.5 -72t-18.5 -73.5t-21 -64.5t-13 -44q-15 2 -21.5 1t-10.5 -1q-11 2 -37 0.5t-50 -5.5q-11 -2 -18.5 0.5t-12.5 6.5t-8 11q2 6 11.5 35.5t19 69.5t14.5 83.5t-1 78.5q-2 12 -6.5 19t-9.5 10q-5 4 -12 4q-63 -68 -106.5 -127.5t-71.5 -111.5t-43 -95.5t-21 -79.5
q-14 -84 10 -145q7 -18 17.5 -29t24 -16.5t30 -7t35.5 -1.5q20 0 38.5 1.5t33.5 3.5q18 2 34 5q4 15 12.5 43t16.5 57q10 33 21 70q-15 1 -45.5 -0.5t-62 -3t-57 -1.5t-29.5 5q-4 3 -5.5 6.5t-5.5 7.5q-4 0 -8.5 2.5t3.5 2.5q6 2 9 5l3 3q0 -1 1 -2t4 2q3 0 12 5t16 5h9.5
t17.5 0.5t19.5 1t14.5 1.5q14 3 22 2q5 -1 9 -2q9 -1 33 -0.5t52.5 2t58.5 2.5t51 1q30 0 41.5 -8.5t3.5 -22.5q-2 -7 -9 -33.5t-15 -56.5t-14.5 -54.5t-6.5 -26.5q-5 -10 -6.5 -19.5t-3 -16.5t-5.5 -11.5t-13 -4.5q-10 2 -44.5 1t-84 -4t-110 -7t-121.5 -8q-63 -5 -97 15
t-50 46q-18 30 -20 70z" />
    <glyph glyph-name="H" unicode="H" horiz-adv-x="517" 
d="M1 22q0 2 5.5 22.5t11.5 57.5q6 27 12.5 60.5t13 71t13 76.5t12.5 78q10 63 19 120t14 99q1 9 2 20.5t2 21.5q1 11 2 23q1 3 3 3.5t5.5 1.5t9.5 2.5t16 7.5l1.5 1.5t3 0t8.5 -1t19 -0.5q8 1 18.5 2.5t21.5 2.5t20.5 0.5t15.5 -1.5q12 0 20 -3.5t17 -3.5q4 -2 4.5 -9
t-1 -16t-3.5 -19t-2 -16q-1 -8 -4 -27.5t-7 -40.5t-7 -39t-4 -21t-3.5 -17t-4.5 -30.5t-4.5 -30t-3.5 -16.5q2 1 12.5 3t21.5 4q13 2 28 4q1 0 4.5 19t8.5 47.5t11 63t11 64.5t9 51.5t6 25.5q-1 5 5 4.5t9 2.5q5 3 13 6t13 3q3 0 13 -0.5t22.5 -0.5t24.5 1t19 4q18 3 33 1
t23 -5q12 -7 12 -19q0 -6 -2 -13q0 -3 -8 -39t-19 -92q-3 -20 -8 -42.5t-9 -45.5q-5 -18 -8.5 -35.5t-6.5 -36.5q-11 -63 -21.5 -124.5t-19 -111t-14 -81.5t-6.5 -35q2 -8 -4.5 -7.5t-12.5 0.5h-61q-6 0 -17 -0.5t-22 -1.5q-13 -1 -28 -2q-6 0 -14.5 -2t-9.5 2q-5 8 -5 18
q-1 5 0 10q3 3 7 26.5t8 53.5q3 20 6.5 39t5.5 34q3 18 5 34q-2 0 -13 -0.5t-24 -1.5l-34 -2q-1 -8 -3 -18q-2 -8 -4.5 -19t-4.5 -23q-5 -24 -7.5 -47.5t-7.5 -47.5q-7 -21 -9.5 -37t-2.5 -19q-1 -3 -7 -4t-14 -1.5t-17.5 0t-16.5 0.5q-16 4 -25 4t-23 -4q-8 -1 -11.5 -1.5
t-6 -1t-4.5 -0.5h-6q-8 0 -18 -2q-4 -1 -9 -2q-11 0 -13 10q-1 4 0 10z" />
    <glyph glyph-name="I" unicode="I" horiz-adv-x="266" 
d="M7 5q-10 10 -1.5 46.5t19.5 90.5q9 49 21 104.5t23 102.5t18.5 79.5t8.5 35.5q1 4 5 20.5t7.5 36.5t6 39t1.5 28t0 22t3 24q2 13 3 27q9 16 13 28.5t13 12.5q3 0 10.5 0.5t16.5 1l18 1t15 0.5q26 2 39.5 1.5t21.5 -1.5t11 -3q1 -9 3.5 -10.5t4.5 -2.5t2.5 -5.5
t-2.5 -18.5q0 -6 -2 -9.5t-2 -6.5q0 -4 0.5 -9t-1.5 -12q-5 -32 -20 -79q-6 -31 -12.5 -65.5t-17.5 -72.5q-15 -66 -30 -132.5t-27 -119.5t-19 -88t-7 -38q1 -8 -3.5 -16.5t-6.5 -11.5q0 -1 -1 -2t-8 -1q-19 3 -38 3t-34.5 -0.5t-27 -1.5t-15.5 -1q-6 -2 -8 0q-1 1 -1 3z
" />
    <glyph glyph-name="J" unicode="J" horiz-adv-x="703" 
d="M196 48q32 7 64 30q27 19 58 55.5t57 98.5q19 58 37 120q14 53 28.5 115.5t19.5 119.5q-1 14 0 28q1 12 2 25.5t4 24.5h-78q-14 -4 -32 -1.5t-32 4.5q-5 4 -12 4.5t-15 0.5t-17 1.5t-18 7.5l4 4l8 2l6 2t5 1q0 3 5 3h6q5 3 12.5 4t12.5 6q10 2 23 1t22 -1q17 2 43.5 -2
t58.5 -4q61 2 114 2h45t42.5 -1t34.5 -2t23 -3q10 -6 5.5 -13.5t-7.5 -7.5q-2 -2 -5 -3q-6 -2 -8 -2q-3 0 -5 -1.5t-16 -1.5q-7 -2 -19.5 -3t-25 -1.5t-22.5 -0.5h-11q0 1 -1 0q-2 -2 -1 -12q0 -2 -1.5 -23.5t-7 -57.5t-14.5 -82t-22 -95q-21 -78 -42.5 -143.5t-56.5 -115
t-89 -82t-139 -43.5q-15 -1 -26 -1q-11 -1 -20 -1t-12 -2q-19 -2 -38.5 0.5t-37.5 8t-33.5 13.5t-25.5 19q-24 25 -35 64.5t-9.5 85t16 92.5t41 86.5t66 68t90.5 36.5q10 1 21 1h18.5t17.5 -1q19 0 31.5 -0.5t14.5 -12.5q0 -3 -5 -7.5t-13.5 -9t-18 -8.5t-16.5 -7
q-13 -7 -33.5 -31.5t-41 -58.5t-36.5 -75t-19.5 -81.5t10 -76.5t51.5 -60z" />
    <glyph glyph-name="K" unicode="K" horiz-adv-x="691" 
d="M11 23q-8 0 -9 2t4 14q2 4 11 39.5t22 86.5t27.5 109.5t27.5 110t22 87.5t11 41q1 6 3.5 20.5t4.5 30.5t4 29t3 16q5 9 6.5 25.5t3.5 29.5q4 11 11 13.5t12 7.5q3 5 23 7.5t41 2.5q11 4 17 4.5t10.5 0t9.5 -1.5t14 0q10 0 17 -2.5t12 -4.5q5 -3 9 -6q11 -4 10 -23.5
t-7.5 -47.5t-15.5 -60t-13 -61q-4 -12 -7 -26.5t-5 -27.5q-3 -15 -5 -30q2 2 4.5 1.5t6.5 -0.5q4 -1 9 -1q2 1 14 13.5t31 32t41.5 44.5t45.5 51q21 24 40.5 46.5t35.5 40.5t26 29t12 12q11 2 12 4.5t6 2.5q5 4 10.5 4.5t9.5 -0.5t9 -4q11 10 33 13t38 0q11 -3 16 -3.5
t8 -0.5h5.5t7.5 -3q12 -5 11.5 -16.5t-8.5 -24.5q-2 -4 -16.5 -20t-37 -40t-50.5 -52.5t-57 -58.5q-68 -70 -153 -155q41 -71 75 -129q14 -25 28.5 -49.5t26.5 -45t20.5 -35t11.5 -19.5q5 -7 5.5 -14t-1.5 -13t-5.5 -10.5t-5.5 -6.5q-8 0 -14 4.5t-9 4.5t-8.5 -4t-15.5 0
q-5 0 -14 -1t-19.5 -2.5t-19.5 -3t-14 -1.5q-8 -1 -18.5 -0.5t-21.5 8.5q-7 5 -17 19.5t-21 29.5q-12 18 -25 39q-32 60 -50 91.5l-26 45.5q-11 16 -12 16q-2 -4 -6 -19t-9.5 -36.5t-12 -46.5t-12.5 -47.5t-10.5 -41t-6.5 -26.5q-2 -12 -11.5 -17t-22 -6.5t-25 0t-20.5 3.5
q-17 0 -35 -4.5t-36 -4.5q-10 -2 -15 1t-8 8q-4 5 -4 12z" />
    <glyph glyph-name="L" unicode="L" horiz-adv-x="461" 
d="M1 54q1 1 4 16t7 39t9 56.5t11 70.5q9 45 18 96.5t17 102.5t16 97.5t14 83t10 58.5t6 24q1 6 3.5 8t8.5 1.5t17 -1.5t30 -1q22 -2 36.5 -3.5t22.5 -3.5q10 -2 15 -4q5 0 6.5 -4t4.5 -7q2 -2 2.5 -3.5t1.5 -2.5l1 -2q3 -9 -8.5 -54.5t-22.5 -115.5q-10 -60 -20 -122
t-19 -113q-11 -60 -20 -115q9 1 29.5 0.5t45.5 -2t52 -3.5t50 -3.5t39.5 -2.5t20.5 -1q3 0 4 1.5t4 -1.5h8q5 -5 5 -18.5t-2 -28.5q-3 -18 -8 -38q-2 -1 -3 -3q-2 -5 0 -9q0 -4 -0.5 -9.5t-1.5 -11.5l-2 -14q-3 -9 -7.5 -10.5t-28.5 -1.5q-13 2 -49.5 3t-75.5 2
q-46 1 -100 2q-5 0 -4.5 -1.5t-2.5 -1.5q-9 3 -22.5 4t-28 0.5t-27 -2t-19.5 -2.5q-17 -3 -25 2q-4 2 -6 6q0 2 1 4q0 4 -1 4q-5 -2 -9 7q-2 4 -3 11v9z" />
    <glyph glyph-name="M" unicode="M" horiz-adv-x="763" 
d="M1 25q13 27 28.5 81t31 120.5t30.5 137.5t26.5 132.5t19 106t9.5 57.5q2 26 6.5 33.5t15.5 7.5h81q15 0 18.5 -1t11.5 -5q8 3 20 3.5t25 0.5h26t24 2q4 1 12 0.5t15 -4.5t11.5 -13t1.5 -24q-2 -7 -3.5 -25t-3 -43t-3.5 -54t-3 -58q-4 -69 -7 -151q7 19 15 43q7 20 16 46
t20 55q12 36 25 72.5t24.5 67t19 51t8.5 25.5q4 11 25 12t56 3q16 2 25.5 2t15.5 -1q6 -2 10 -4q8 -5 23 -6t30 1q18 1 38 5q16 0 15.5 -26t-9 -85t-20.5 -154t-19 -233q0 -9 -2.5 -39.5t-5.5 -64.5t-6 -63t-3 -35q-2 -5 -13 -7t-26 -2t-31 1t-29 3q-11 0 -17.5 3t-9.5 7
q-4 4 -4 11q1 1 3.5 18t5 44t5.5 63t5 75q3 55 6.5 110t6.5 98.5t5 69t1 22.5q-4 -5 -19.5 -42.5t-36 -91.5t-43 -115.5t-41.5 -114.5t-31.5 -89t-12.5 -39q-2 -2 -8.5 -2h-14t-13.5 -0.5t-6 -1.5q-3 -3 -8.5 -3.5t-19.5 -0.5h-81q-5 -5 -11 3t-5 16q-1 2 -1 21.5t1 48
t2.5 61.5t2.5 62.5t1.5 51.5t0.5 28q-1 8 0 43.5t2 76.5q1 48 3 106q-3 -3 -13.5 -45.5t-27.5 -102.5l-29.5 -118t-30 -115t-24.5 -89t-12 -40q-5 -14 -8.5 -16t-17.5 -2q-11 0 -22.5 -0.5t-37.5 -5.5q-17 0 -24.5 3.5t-11.5 8.5t-4 12z" />
    <glyph glyph-name="N" unicode="N" horiz-adv-x="445" 
d="M1 18q0 4 2.5 32.5t7.5 72.5t11.5 99t14.5 114q10 61 20.5 120.5t19.5 106.5t15 77t8 32q-1 6 2.5 8.5t9 3t13 1.5t14.5 4q2 3 14 4t26 3q9 2 21 7.5t21 0.5q4 -3 7.5 -27t6 -53.5t4.5 -57t3 -36.5q0 -5 2.5 -20t5.5 -36.5t7 -47.5l8 -52q10 -62 22 -137q0 2 2.5 23.5
t8.5 56.5q5 60 15 125t21 119q12 63 27 124q2 8 9 6.5t16 1.5q2 0 9.5 1t16.5 -1q9 0 20.5 2t23.5 4q5 0 8.5 -2.5t5.5 -4.5q2 -4 2 -7q-3 -17 -9.5 -36.5t-12.5 -48.5q-9 -46 -19 -105.5t-19.5 -122t-18.5 -124t-15.5 -112t-10.5 -84.5t-4 -43q-2 -9 -10.5 -11.5
t-13.5 -2.5q-5 1 -17 0.5t-24.5 -0.5t-23.5 1.5t-12 5.5q-1 5 -10 4.5t-14 -0.5q-6 0 -8.5 2.5t-7.5 9.5q-2 5 -6 24.5t-9 48t-10.5 63t-11.5 69.5q-13 83 -29 185q-2 -7 -7 -31.5t-11 -58t-12 -73.5t-11 -77q-3 -28 -4.5 -53t-3 -44.5t-2 -32t-0.5 -14.5q-1 -2 -2 -6
t-2.5 -7t-5 -5t-9.5 0q-4 -2 -13.5 -3t-19.5 -1q-12 -1 -26 0q-11 -2 -16.5 0t-7.5 6q-3 4 -2 10z" />
    <glyph glyph-name="O" unicode="O" horiz-adv-x="427" 
d="M401 699q24 -13 36.5 -36.5t17 -54t2.5 -66t-6 -72.5q-5 -60 -18.5 -128.5t-39 -131.5t-64.5 -115.5t-93 -80.5q-12 -6 -29.5 -9.5t-35 -5t-32 -1.5h-19.5q-3 -2 -8 -2.5t-7 -0.5q-13 0 -23.5 5.5t-17.5 13.5q-35 27 -49 73.5t-13 102.5t14.5 117t34.5 117
q13 46 33.5 89.5t44.5 79.5t49.5 62t48.5 36h7q6 0 18 2.5t23 5.5q12 0 22.5 0.5t18.5 2.5h19q9 0 15.5 2t11.5 2q18 0 27 -2.5t12 -4.5zM158 68q21 21 41 50q17 25 36.5 62t35.5 87q23 69 38 136q6 28 11 59t7.5 61t1 58t-8.5 52q-3 -1 -6 -3q-2 -2 -4.5 -3t-3.5 -2
q-14 -11 -38.5 -43t-50.5 -78.5t-49 -103t-34.5 -115t-7.5 -115t32 -102.5z" />
    <glyph glyph-name="P" unicode="P" horiz-adv-x="538" 
d="M478 656q37 -36 53 -88.5t11.5 -109t-29.5 -111t-70 -95.5q-34 -29 -79.5 -50.5t-105.5 -25.5q-17 0 -25.5 2.5t-11.5 2.5t-12.5 -2.5t-17.5 -2.5q-6 0 -10 -2q-2 -1 -3 -1q-7 -42 -13 -75q-5 -29 -10.5 -55t-7.5 -34q-1 -6 -7 -6.5t-14 1t-16.5 4.5t-14.5 5
q-11 0 -28 -2.5t-31 -6.5q-18 -5 -22.5 0t-11.5 21q-2 4 1 40.5t12 90.5t23.5 118.5t35.5 126.5q14 36 21 66.5t14 72.5q7 27 12 51t9 41q4 20 7 37q2 3 2.5 9t6.5 6q5 5 10.5 6.5t10.5 3.5q5 1 9 2q13 -2 20.5 -0.5t15 3.5t16.5 3t24 -2q3 3 13 0.5t40 3.5h51
q40 -6 69 -16.5t53 -31.5zM388 445q8 38 4 75q-3 32 -18.5 66t-54.5 58q-10 6 -16 5.5t-9 2.5q0 -3 -1 -7q-1 -3 -2 -6.5t-2 -5.5q0 -3 -1.5 -11.5t-4.5 -18.5t-6 -19l-5 -15q-1 -6 -3.5 -17t-5.5 -23.5t-5.5 -23.5t-2.5 -17q1 -6 -0.5 -15.5t-4 -19.5t-5.5 -19t-5 -13
q-2 -3 -6.5 -19t-10 -38t-11.5 -47t-10.5 -47t-6.5 -37t-1 -17q4 0 28.5 10t55.5 35.5t62 70t48 113.5z" />
    <glyph glyph-name="Q" unicode="Q" horiz-adv-x="436" 
d="M347 702q43 -14 65.5 -54t29 -94.5t-1 -119t-22.5 -127.5q-7 -25 -17 -52t-20 -51t-19 -43.5t-15 -28.5q6 -13 12 -26.5t11 -25t9 -20t6 -11.5q1 -3 2 -6.5t1 -7.5v-8q-2 -8 -12 -13.5t-21 -5.5q-3 -2 -12.5 -4.5t-17.5 -2.5q-5 -3 -8 -5t-14 -2q-9 0 -14.5 4t-7.5 7
q-2 7 -5 13q-2 5 -5 11.5t-6 12.5q-23 -14 -49.5 -26t-43.5 -15q-12 -1 -23 -2q-9 -1 -18 -1.5t-11 -0.5q-14 0 -31.5 4t-31.5 15q-23 20 -36.5 55.5t-16.5 85.5q-4 59 7 131.5t30.5 141t43.5 124.5t46 81q20 23 33.5 35.5t33.5 12.5q9 1 18 3q8 2 17 4t17 5q26 5 47.5 7.5
t49.5 -0.5zM273 244q1 2 8 22.5t15.5 52.5t15.5 73t7.5 82.5t-8 80.5t-30.5 69h-8q-8 0 -11 -3q-21 -24 -43 -67.5t-40.5 -97t-31.5 -112.5t-17 -112.5t2.5 -97t28.5 -66.5q12 9 24 20q10 10 21.5 24.5t21.5 34.5q-18 34 -32 61q-12 23 -21.5 43.5t-9.5 25.5q-3 6 3 7.5
t11 3.5q1 1 6 4t11 6t12 5.5t9 3.5q8 3 16 7t14 -7q1 -6 5.5 -16l9 -20t8 -18t3.5 -9z" />
    <glyph glyph-name="R" unicode="R" horiz-adv-x="445" 
d="M355 706q41 -8 65.5 -27.5t36 -47t11.5 -60.5t-8 -68.5t-22 -70.5t-31 -66q-17 -32 -36 -55.5t-35 -39.5q-18 -18 -37 -32q12 -57 23 -102q4 -19 8 -37.5t7.5 -33t5.5 -23.5t2 -10q3 -3 3.5 -6t0.5 -6q1 -4 -1 -6.5t-2 -9.5q-4 -6 -18.5 -3t-27.5 3h-37h-41
q-11 -3 -15 10q-2 5 -3 14q-8 38 -14 69q-5 26 -9.5 49t-6.5 27q-1 -1 -4 -13t-6.5 -29t-8 -37.5t-8.5 -38.5t-6.5 -31t-2.5 -16q0 -6 -10 -3.5t-42 -0.5h-27h-9q-7 -3 -17.5 -3.5t-19.5 -0.5q-5 0 -9 4q-2 2 -3 4q0 3 4 21t10.5 48.5t15.5 70.5t18 86q12 59 19.5 121
t18.5 118q18 83 27 138.5t8 62.5q3 12 11 14.5t14 4.5q1 2 7 3t14 1.5t16.5 0.5h14.5q12 -2 20.5 -1t17.5 2.5t21 2.5t32 0q9 3 20.5 3.5t21.5 0.5q11 0 23 -1zM271 382q18 34 33 74.5t19.5 79.5t-4 74t-37.5 60q1 -4 -7 -4q-4 3 -6 1t-2 -4q-8 -32 -15 -66
q-7 -29 -14 -66.5t-15 -74.5q-7 -32 -12.5 -62t-9.5 -53.5t-6 -39.5t-2 -20q13 12 26 28q11 14 25 32t27 41z" />
    <glyph glyph-name="S" unicode="S" horiz-adv-x="534" 
d="M3 215q0 3 1 6q2 6 9 9h27q28 0 47.5 -0.5t40.5 -2.5q13 0 12 -4.5t2 -7.5q0 -2 5.5 -23.5t14.5 -49.5t20.5 -55.5t23.5 -40.5q3 -2 22 8.5t44.5 31.5t51.5 52.5t43.5 71.5t20.5 87t-18 99q-1 -1 -2 -1q-1 -1 -2.5 -1t-2.5 -2q-3 -2 -21.5 -14t-41.5 -26t-45.5 -25.5
t-33.5 -11.5q-8 0 -23 -2t-32 -2q-13 3 -25 3.5t-24 0.5h-57q-7 0 -12 3q-10 3 -20 13q-12 19 -14 37.5t9 42t36.5 56t68.5 79.5q15 16 43 41t55 49q32 28 68 58q3 3 8 6q5 2 12.5 4t20.5 2h109q18 0 37 -13.5t31 -31.5q2 -11 2.5 -23t0.5 -21q0 -21 -5.5 -42t-13 -37.5
t-14 -28t-7.5 -12.5q-1 0 -2 -1t-1 -7q0 -3 -2 -3t-2 3q-4 6 -8.5 2.5t-4.5 -6.5h-8q-2 0 -5 -2.5t-7 -2.5q-3 0 -8 -1.5t-8 1.5q-6 4 -20 7.5t-29 -2.5q-8 -4 -15 -1t-13 9q-5 3 -5.5 15.5t1.5 20.5q9 15 15.5 27t9.5 33q0 3 -12.5 -5.5t-32 -24.5t-43.5 -38.5t-45.5 -46.5
t-39 -49t-24.5 -46l7 4q1 2 16 13t36.5 23.5t48 22.5t52.5 10q55 -3 88 -5t54 -11q33 -12 52 -47.5t16 -105.5q-3 -39 -19.5 -83t-47 -84t-74.5 -72t-101 -47q-9 -4 -22 -5q-12 -2 -30.5 -1t-47.5 6q-8 2 -19 2.5t-22 1.5q-12 1 -25 1q-24 1 -47 23q-20 19 -41 62.5
t-37 127.5z" />
    <glyph glyph-name="T" unicode="T" horiz-adv-x="418" 
d="M305 707q92 -3 130.5 -6.5t38.5 -6.5q-1 -2 -2 -3q-2 -3 -4 -3q-3 -3 -1 -7l2 -4q3 -3 1 -23.5t-10 -40.5q0 -18 -1 -33t-2 -25q0 -3 -5 -3h-5q-16 3 -27 3.5t-22.5 0t-26 -1.5t-37.5 -1q-15 0 -25.5 -0.5t-16.5 -1.5q-8 -1 -12 -1q-6 0 -10.5 -14t-9 -37t-9 -54
t-11.5 -64q-10 -51 -21 -106t-21 -104t-17.5 -88.5t-10.5 -60.5q-2 -4 -3.5 -6t-2.5 -4q-2 -2 -2 -3q-2 -8 -4.5 -9.5t-4.5 -1.5q-4 0 -10 2t-9 2q-5 -3 -11 -1.5t-12 1.5q-1 1 -8.5 1.5t-17.5 0.5t-20.5 -0.5t-17.5 -1.5q-19 -3 -22.5 -0.5t-4.5 7.5q-2 5 -2.5 8.5
t-0.5 6.5q0 4 1 6q-1 6 2.5 24t8.5 40t11 45t11 40q8 33 14.5 69t11.5 73q8 38 12.5 73t7.5 63q4 33 6 61q0 2 1 7t0 10t-4.5 7.5t-12.5 -0.5q-8 -3 -26.5 -1.5t-37.5 1.5q-16 3 -20 9q-3 3 -2 6q2 12 3 23q1 10 1.5 20t0.5 18q-1 17 0 30.5t3 23.5q2 11 3 20h4q7 3 11 3.5
t8 0.5q17 3 46 5t65.5 3.5t77.5 2t81 0.5z" />
    <glyph glyph-name="U" unicode="U" horiz-adv-x="407" 
d="M428 695q8 -7 7.5 -28t-5 -47.5t-10 -54.5t-7.5 -47q-9 -76 -20.5 -157t-30.5 -151.5t-48 -121.5t-72 -66q-16 -15 -64 -15h-12q-5 -3 -18 -3.5t-22 -0.5h9q-18 0 -34 8t-29.5 20.5t-23.5 28.5t-16 33q-19 44 -25 100.5t-4 116t10 117.5t17.5 105.5t18 79.5t11.5 40
q6 20 14.5 28t20 10.5t25.5 3t31 5.5h8q3 3 6 3.5t9 0.5t11 -2.5t5 -5.5q6 -8 6 -18.5t-6 -28.5q-40 -148 -51 -250t-7 -168t16.5 -100.5t21.5 -47.5q20 18 35.5 50t27.5 73t21 88t15.5 93.5t11.5 90.5t9 80q2 42 5 71.5t6 47.5q3 17 20 20t33 3q5 0 13.5 0.5t17.5 3.5
q5 0 10.5 2t9.5 2q17 0 23 -12z" />
    <glyph glyph-name="V" unicode="V" horiz-adv-x="411" 
d="M79 678q0 3 1 8.5t10 8.5q8 3 10.5 3.5t8.5 0.5q7 0 7.5 2.5t11.5 4.5q26 3 38.5 0.5t20.5 -0.5q5 0 9 -1q10 -2 15 -6q3 -3 6 -12.5t1 -23.5q1 -8 -2 -38t-7 -71q-3 -37 -8.5 -79t-14.5 -87q-7 -53 -14 -103t-12.5 -89t-9 -64t-3.5 -26q11 33 22 62q9 25 17 49t12 35
q2 4 9 23.5t17 48.5t22.5 65.5t25.5 74t25.5 74t22.5 66t16.5 49.5t7.5 25q2 1 6 2q6 2 12 2q3 2 11.5 4t19.5 3.5t23 1t22 -3.5q5 -2 11 -1.5t11 0.5t9.5 -3t7.5 -12q1 -4 2 -9q0 -5 -0.5 -11.5t-2.5 -14.5q-2 -4 -12.5 -31.5t-26 -70t-34.5 -95.5t-38.5 -108t-38.5 -107.5
t-33.5 -93.5t-23.5 -67t-10 -27h-8q-3 0 -3.5 -1.5t-3.5 1.5q-3 0 -1 -2l2 -2q0 -8 1 -12q-3 -6 -1 -9.5t-6 -6.5h-8h-48q-19 -2 -30 -2t-19.5 0.5l-17 1t-22.5 0.5q-28 0 -48 0.5t-23 3.5q1 1 1 2q0 2 -2 2q-3 0 -7.5 2.5t-8.5 6t-5 6.5t4 5q3 0 3 2v2v7.5t2 14.5
q8 49 16.5 110t16.5 125t14.5 126.5t11.5 115t7.5 90.5t2.5 53z" />
    <glyph glyph-name="W" unicode="W" horiz-adv-x="752" 
d="M622 39q-5 -13 -8 -20.5t-5.5 -11.5t-5.5 -5t-8 -1q-9 2 -23 1.5t-27 -0.5q-15 -1 -31 -1q-9 0 -26 0.5t-36.5 1t-37.5 0t-28 -1.5q-4 0 -11 1t-13 5.5t-9.5 13t0.5 23.5q1 7 3 25t4.5 42.5t5.5 53.5l6 58q6 68 14 150q-2 -1 -7 -13.5l-13 -32.5t-18.5 -45t-22.5 -51
q-14 -36 -28 -72.5t-26 -66.5t-20.5 -50.5t-10.5 -25.5q-5 -23 -80 -15h-52q-9 2 -24 1.5t-30 -0.5q-18 -1 -37 -1q-16 0 -14 26.5t13 86t26.5 154t27.5 230.5q1 7 4.5 33.5t7.5 58.5t8 61.5t7 41.5l5 5q-1 5 4.5 7.5t9.5 -1.5h43q6 4 17.5 2t15.5 -2q5 -5 11 -6t13 -5
q4 -3 4.5 -4l2.5 -5v-4q0 -6 1 -10q-2 -9 -5.5 -27t-7 -42.5t-7 -54.5t-4.5 -62q-5 -54 -10.5 -108.5t-10.5 -97.5t-8 -68.5t-1 -21.5q2 3 12 25.5t24 57t31 77t35 86.5t34.5 86.5t30 75.5t21.5 53t9 21q3 6 15.5 5t16.5 -1q8 3 20 3.5t23 0.5q7 0 18.5 -0.5l23 -1t21 -0.5
t13.5 2q4 0 9.5 -7.5t2.5 -15.5q1 -2 1 -21t-2 -46.5t-4.5 -59.5t-5 -60.5t-4.5 -49t-3 -25.5v-16t-1 -29.5t-1.5 -38t-1.5 -41.5q-3 -49 -5 -110q1 2 5 15t10 33.5t14.5 48t18.5 57.5q14 55 31.5 116.5t34 114.5t28 89.5t13.5 41.5q2 14 6.5 15t15.5 4h67q14 2 22 -1t12 -7
t5 -11q-3 -27 -14.5 -71.5t-26.5 -98.5t-31.5 -113.5t-29.5 -116.5q-11 -44 -22.5 -82.5t-20.5 -69.5t-14.5 -52.5t-4.5 -30.5z" />
    <glyph glyph-name="X" unicode="X" horiz-adv-x="541" 
d="M268 243q-1 -2 -6.5 -11.5t-12.5 -21l-14 -23t-11 -17.5q-5 -8 -16 -26.5t-22 -38.5t-20.5 -37.5t-10.5 -23.5q-3 -9 -11.5 -20.5t-12.5 -11.5q-2 2 -11.5 2t-14.5 -2q-7 0 -16 -2.5t-15 -2.5q-3 4 -9 3.5t-26 -7.5q-16 -3 -23.5 -2t-10.5 3q-4 3 -3 8q-3 1 1 9q2 4 5 7
q4 11 11 24q5 11 13.5 25.5t19.5 31.5q14 20 29.5 44.5t31.5 50t31.5 50.5t29.5 47q8 14 16 27t14 23q7 11 13 21q0 1 -7.5 20t-19 47t-24.5 61.5t-25 65.5q-18 56 -37 81q-5 6 -3.5 8t-2.5 9q0 5 4 9q2 2 4 3q2 6 13 12q5 3 11 5q2 0 3.5 -1.5t7.5 1.5q18 7 27.5 10
t14.5 3.5t7.5 -0.5t6.5 -1q13 0 18.5 -1t15.5 -15q5 -7 17 -35.5t26 -60.5q16 -38 35 -84q6 13 21 35.5t32.5 47.5t35 49t27.5 39q4 5 10.5 9t14.5 8t18 8h12.5t17.5 1q11 1 23 2l12 -2q5 -1 12 -1h14q8 -3 7.5 -8t-3.5 -8v-6.5t-3 -6.5q-2 -3 -16 -20.5t-31 -44.5
q-23 -30 -49.5 -68t-49 -71t-37.5 -56.5t-15 -24.5q-5 -5 -5 -9q0 -2 2 -3q1 -1 7.5 -14.5t15.5 -35.5t21 -49.5t26 -57.5q5 -15 11.5 -27.5t13.5 -24.5q15 -23 25 -43.5t16 -36.5q7 -18 12 -34q3 -6 3 -8t-2 -8v-4q1 -2 1 -4q0 -4 -5 -4h-16q-6 -3 -12.5 -6t-13.5 -3
q-8 -3 -16.5 -1.5t-13.5 1.5q-7 0 -21.5 -4t-19.5 -8q-7 -3 -9 -2.5t-7 7.5q-3 2 -6 5t-7 19q-2 7 -6 18t-9 22.5t-10.5 22.5t-10.5 18q-6 18 -12.5 27.5t-11.5 25.5l-10 20t-11 24q-6 14 -13 29z" />
    <glyph glyph-name="Y" unicode="Y" horiz-adv-x="490" 
d="M517 703q3 -2 0 -10t-7.5 -18t-10 -19.5t-6.5 -12.5l-85 -180q-10 -21 -23.5 -46t-27.5 -52q-26 -49 -53 -98t-51.5 -92t-44.5 -77.5t-30 -53.5l-4 -8q-4 -8 -6 -8q-2 -2 -5 -9t-6 -7q-4 -2 -11 -3t-10 -1t-8.5 2t-11.5 4t-11.5 4t-6.5 2q-6 5 -12 5.5t-12 1.5
q-6 0 -18 3.5t-20 3.5q-20 4 -13 21q2 3 4 7q2 3 3.5 6t3.5 6q5 6 6.5 12t6.5 13q12 24 29.5 53t32.5 52q15 20 27.5 43.5t23.5 47.5q1 4 1 13.5t-1.5 21.5t-3.5 24.5t-3 22.5q-12 46 -23.5 94.5t-20.5 89t-14.5 67t-5.5 28.5q-4 8 -4 12q-1 4 0 7q0 4 4 8q13 4 31 7t34 5.5
t28 4t14 3.5q3 2 5 1.5t4 -0.5q2 -1 3 -1q5 -3 7 -26t8 -61q3 -16 8 -43.5t10.5 -56.5t11 -56.5t9.5 -43.5q5 12 11.5 31t14.5 38q8 21 18 45q0 2 4.5 12.5t10.5 22.5q6 14 15 32l7.5 15t8.5 19t7.5 18t4.5 11t4.5 10.5t7.5 15t7 13t4 4.5q5 0 13 0.5t17 1t17 0t12 -1.5
q15 -3 35.5 0t35.5 0z" />
    <glyph glyph-name="Z" unicode="Z" horiz-adv-x="683" 
d="M763 701q3 -4 3.5 -13t-1.5 -22t-5 -27.5t-7 -29.5q-16 -22 -24 -40q-14 -25 -28.5 -35.5t-25.5 -21.5q-4 -3 -19.5 -15.5t-37.5 -30t-47 -37.5t-46 -36.5t-36.5 -28.5t-17.5 -13q5 -2 18.5 -10t27.5 -17t25 -17t11 -10q4 0 1.5 -5t-6.5 -9q-2 0 -7.5 -5t-12.5 -11
t-14.5 -11.5t-13.5 -6.5q-8 -8 -9.5 -11.5t-5.5 -3.5q-19 12 -36 23q-14 9 -29 18t-22 13q-39 -27 -62 -49.5t-40.5 -42t-33 -36.5t-39.5 -33q29 1 57 2q23 1 49 0.5t44 -2.5h248q7 0 8 -5t-0.5 -12.5t-4.5 -17t-3 -18.5q0 -19 -5 -28t-9 -16q-2 -4 -3.5 -10.5t-6 -12.5
t-12.5 -9.5t-23 -1.5q-10 1 -40.5 1.5t-70.5 0t-86 -1.5t-87.5 -1.5t-74.5 0t-48 1.5q-17 0 -36 -1t-37.5 -1.5t-34 -1.5t-24.5 -1q-11 0 -15.5 10t-5 23.5t0.5 26t1 18.5q1 6 2 13.5t2 14.5t2 12.5t3 7.5q2 4 18.5 19.5t41 38.5t54.5 49.5t59 52.5t54 48t41 36
q-8 5 -19.5 12t-24 14.5t-24.5 14.5t-19 12q-5 4 -5 5t5 4l6 6q3 3 6 6.5t8 7.5q7 12 15.5 19t12.5 11q8 0 11.5 3.5t7.5 -3.5q5 -2 20.5 -10.5t31.5 -18.5q18 -11 41 -25l180 161q-26 -3 -50 -5q-20 -2 -40.5 -2t-31.5 3q-11 0 -37.5 0.5t-59 2t-65.5 3t-56 3.5
q-26 2 -39 4t-18.5 3.5t-6 3t-0.5 3.5q-2 4 -3 11.5t-1.5 15t-0.5 14v8.5q2 3 5.5 13.5t8.5 21.5q5 13 11 28q34 -1 63 -2q25 -1 49 -1.5t33 -0.5q11 0 32.5 1.5t45.5 2.5t48 1.5t41 -1.5q16 -4 44.5 -5t57.5 -1t52.5 1t29.5 1q7 1 19.5 0.5t27 -2t28 -3t22.5 -1.5h20v0z
" />
    <glyph glyph-name="backslash" unicode="\" horiz-adv-x="480" 
d="M414 -4q-5 -1 -6 5.5t-6 22.5q-2 4 -19.5 31.5t-45 69.5t-61.5 95t-69 108t-68.5 107.5t-60.5 94.5t-43.5 68.5t-17.5 29.5q-7 11 -10.5 26.5t3.5 26.5q3 5 3.5 9.5t1 10t3.5 12.5t11 17q7 9 11 11.5t6 1.5q3 -1 3 -4q7 -12 25.5 -38t44 -61.5t56.5 -77t63 -84.5
q41 -54 79 -110t67 -101.5t47 -75t20 -32.5q8 -12 7.5 -26t-2.5 -23q-3 -11 2 -16.5t3 -15.5q-3 -5 -2 -11t4 -20q2 -14 -6 -28t-17 -11q-5 5 -10 1l-6 -4q-2 -5 -7 -7q-2 -1 -3 -2z" />
    <glyph glyph-name="asciicircum" unicode="^" horiz-adv-x="376" 
d="M56 765q3 0 15.5 -1t30.5 1q20 1 47.5 2t52.5 -1q14 0 31 0.5t32 2.5q18 1 35 3q2 2 10 1t19 1q5 0 5 -5q-1 -2 -1 -4q0 -4 3 -5q2 -2 3 -4t-1 -5q-2 -5 0.5 -9t2.5 -6q2 -4 -4 -4.5t-14 -0.5h-27q-4 1 -19.5 1h-34t-35 -0.5t-22.5 -0.5q-6 1 -21 1h-31.5h-30.5t-17 -1
q-9 -2 -22 -3t-15 3q-3 4 -3.5 3.5t-2.5 1.5q-5 6 -2.5 9t2.5 6q2 5 5.5 8.5l5.5 5.5h3z" />
    <glyph glyph-name="grave" unicode="`" horiz-adv-x="293" 
d="M191 844q5 -2 12.5 -10.5t16 -18.5t16 -20t12.5 -14q6 -3 0.5 -8t-15.5 -10.5t-20.5 -10t-15.5 -6.5q-7 -2 -15 -11t-16 -14q-8 -7 -14 -1.5t-9 10.5q-1 4 -10.5 14t-21 21t-23 21t-17.5 14q-12 8 -12.5 12t-0.5 6q0 5 12 10t16 10q2 7 17.5 12t26.5 17q6 7 12.5 7.5
t12 -2t9 -6.5t4.5 -7t5 -6t8 -5q4 -3 10 -4z" />
    <glyph glyph-name="a" unicode="a" 
d="M475 664q8 -4 6 -6q-1 -1 -4 -2q-1 -1 -2 -1q-2 -2 -2 -3q8 -6 5.5 -13.5t-4.5 -12.5q-5 -15 -3.5 -19.5t-4.5 -14.5q0 -6 -6 -8q-3 -1 -5 -1q1 -3 4 -33t7 -75t8 -99.5t7 -107.5q2 -47 2.5 -91t-0.5 -77.5t-2.5 -54.5t-2.5 -22q-1 -20 -4 -23.5t-5 -3.5q-3 0 -12.5 1.5
t-12.5 -1.5q-2 0 -6.5 0.5t-20.5 3.5q-10 1 -21.5 0.5t-21.5 -1.5q-12 -1 -24 -3q-9 0 -10.5 1.5t-3.5 9.5q-5 6 -5.5 9.5t-1.5 6.5v5t2 11q-1 1 -1 5v9v12q-17 0 -35 1q-15 1 -34 1.5t-36 0.5q-14 2 -23.5 1.5t-16.5 -0.5q-8 -1 -14 -1t-7.5 -4.5t-6.5 -21.5q-3 -9 -5 -16
t-4 -12q-2 -6 -3 -11q-5 -5 -11 -2t-23 6q-17 0 -28 2t-31 2q-8 2 -16.5 2t-14.5 1q-8 0 -14 1q-5 0 -4 2.5t0 5.5q-3 3 -3 10q0 3 1 6q0 1 8.5 31.5t23 78.5t32 108t35.5 122q16 55 30.5 107.5t25.5 94.5t17.5 69.5t6.5 33.5q4 14 8 14h13h26q-1 1 1 3q1 0 2 1
q17 3 38.5 3.5t41.5 0.5q14 2 28 0t34 -6q5 -1 9 -1t23 -4q11 -3 21 -4.5t18 -2.5q9 -1 17 -1q5 0 5 -4q0 -2 -1 -3l-2 -5q5 -2 6 -3t2 -1q0 -1 1 -2t1.5 -2t2.5 -3zM316 203q-2 69 -4.5 120.5t-6 91t-8.5 69.5t-11 57q-1 2 -1 -4q0 -3 -1 -7q-6 -26 -14 -53
q-7 -23 -15.5 -53t-17.5 -60q-8 -31 -16.5 -59t-15.5 -50q-8 -26 -16 -48h4q21 -2 42 -3q18 -2 39.5 -2.5t39.5 -2.5q4 -3 2 4z" />
    <glyph glyph-name="b" unicode="b" horiz-adv-x="480" 
d="M366 700q37 -13 62 -35t39.5 -48t19 -52t1.5 -46q-7 -38 -31.5 -75.5t-65.5 -69.5q-11 -6 -24 -16q-7 -5 -15 -11q4 -3 16 -8t24.5 -14t24 -23.5t15 -37t-4 -54.5t-30.5 -75q-26 -56 -63.5 -84t-73 -39.5t-62.5 -12t-30 -0.5q-8 0 -20 0.5t-25 1.5t-25 1t-19 -2
q-13 -2 -21.5 -0.5t-13.5 3.5q-6 3 -10 7q-2 2 -5 2.5t-12 -1.5t-9.5 0.5t-3.5 7.5l-2 6q-1 1 -1 2q1 2 1 5.5t1 10.5q2 13 6.5 38t12 58t16.5 72t20 81q15 65 31.5 131t30 121t22.5 91.5t9 41.5q1 10 4 11.5t5 1.5q1 1 11.5 1t12.5 1q9 3 27.5 5t25.5 2q8 0 11 1q3 0 4 1
q34 5 62.5 4.5t51.5 -5.5zM286 243q0 12 -2 23t-9 21t-20 18.5t-34 15.5h-3q-3 -1 -4 -6q0 -1 -2.5 -10.5t-6.5 -25.5l-9 -36t-10 -41l-12 -50t-10.5 -45.5t-7.5 -34.5t-3 -15q-1 -2 0 -3q0 -3 6 2q15 6 36.5 25t41 46t34 57.5t15.5 58.5zM274 420q12 10 24.5 24t23 30
t16.5 34t5 38q-2 21 -12 43.5t-31 40.5q-1 1 -2 1q-2 0 -3 -3q1 -5 -9 -35.5t-21 -71.5q-6 -23 -11.5 -45.5t-10 -40.5t-8 -29.5t-3.5 -12.5q-1 -1 0 -2q0 -3 4 1q2 1 13 8t25 20z" />
    <glyph glyph-name="c" unicode="c" horiz-adv-x="458" 
d="M236 145q2 2 -0.5 7t-3.5 9q-1 3 -1 6.5v5.5q0 3 1 6q10 42 22 86t23 79q21 63 26 111.5t2 82t-9.5 52t-6.5 20.5q-1 5 -3 7q-1 1 -3 1q-20 -73 -33 -133.5t-27 -108.5q-30 -112 -44 -176t-19 -96.5t-4 -41t1 -10.5q0 -3 7.5 -10t18.5 -7q33 5 68.5 6.5t65.5 1.5t51 -0.5
t26 -0.5q13 0 6 -9q-1 -1 -1 -3q0 -4 4 -5l2 -9q-4 -4 -1 -12q-4 2 -19 2.5t-32.5 0.5t-33.5 -0.5t-20 -0.5q-23 0 -36 -0.5t-21.5 -1t-16 -1t-20 -1t-33.5 -1t-57 -0.5q-29 0 -46 2t-27 4q-11 3 -16 6q-5 4 -13.5 19t-11.5 53q0 10 4.5 36.5t12 62.5t17.5 79t21 86
q25 101 56 223q0 4 2 13.5t4.5 19.5t5 18.5t3.5 12.5q3 3 5.5 11t4.5 16.5t4 15.5t4 7q-2 3 0.5 7.5t20.5 4.5q34 -2 57.5 -0.5t40 3t28 3.5t21.5 2q47 -4 76 -25.5t45 -52.5t21 -66.5t4.5 -66.5t-4 -54.5t-5.5 -29.5q-1 -7 -6 -28.5t-12 -49.5t-16 -59t-16.5 -58
t-13.5 -45.5t-8 -21.5q-6 1 -24.5 1t-39 -1.5t-37.5 -2.5t-20 -1q-7 -3 -14 -3t-7 3z" />
    <glyph glyph-name="d" unicode="d" horiz-adv-x="452" 
d="M439 513q11 -57 10 -123.5t-21 -134.5q-17 -54 -42 -102.5t-70 -96.5q-27 -20 -62 -36t-65 -20q-24 0 -45 -1q-18 -1 -36 -2.5t-27 -3.5q-18 -3 -33 -2.5t-20 6.5q-2 6 -8.5 4.5t-10.5 -1.5q-2 0 -4.5 3t-2.5 5v5q-3 2 -1.5 5t1.5 11q1 1 2 3q2 4 2 9q0 2 11.5 48
t33.5 119q18 59 33 119t26.5 116.5t18 107.5t7.5 93q1 10 3 18q2 7 4.5 13t5.5 6q2 1 16 1.5t30 2.5q18 1 41 3q17 1 32 3q13 2 24 3t16 1q6 1 13 1q13 0 23 -8q6 -6 18 -20.5t26 -36.5t28 -51.5t23 -66.5zM303 326q6 24 8 55t-0.5 63t-11 61t-23.5 47q-2 -6 -7.5 -29
t-13.5 -57.5t-18 -77.5t-20 -89q-11 -45 -21 -87.5t-18 -75.5l-18 -72q30 16 57 50q23 29 47.5 80t38.5 132z" />
    <glyph glyph-name="e" unicode="e" 
d="M144 686l14 2q10 1 23 5q9 5 35 8t61 4.5t74.5 2t76 -0.5t66 -3t43.5 -5q1 -2 1 -7t-1.5 -12.5t-3.5 -20.5l-4.5 -21t-2.5 -11t-2 -6.5t-4 -6.5q-2 0 -1.5 -3.5t0.5 -7.5q0 -5 1 -11v-4q0 -2 -1 -4l-2 -4q-5 0 -5.5 -0.5t-0.5 -3.5q-2 -3 -3.5 -5t-15.5 -2.5t-46 0
t-94 3.5h-26t-30 -0.5t-26 -1t-12 -1.5q0 -2 -3 -22t-7 -43l-10 -62l46 2q8 -2 25 -1.5t35 0.5t34.5 -0.5t23.5 -3.5q20 -5 23 -9.5t3 -7.5q-2 -2 -2.5 -8.5t-1.5 -15t-1 -16v-10.5q0 -5 -3.5 -9t-6.5 -8q-3 0 -3.5 -5t-0.5 -11t-4.5 -18t-19.5 -14q-6 -2 -21.5 -3t-35.5 -1
t-41 0.5t-39 0t-30 -1.5t-13 -4q-2 -5 -7.5 -29.5t-12.5 -52.5q-8 -33 -17 -73q1 0 12 -0.5t26 -1.5t31.5 -1.5t28.5 -0.5q11 -2 32.5 -3t43 -2.5t39 -2t20.5 -0.5t-2.5 -7.5t-5.5 -13.5q0 -5 -2 -20t-6 -25q-3 -9 -4 -14t-4 -15q-5 -9 -5 -16t-3.5 -12t-14 -7.5t-35.5 -0.5
q-27 0 -56 1q-25 1 -55.5 1.5t-59.5 0.5q-46 4 -77.5 2t-36.5 -2q-4 0 -8 2q-3 2 -5.5 4t-2.5 7q2 3 -2 6t-8 3q-2 0 -4 7t1 17q3 4 3 8v8q0 3 2.5 4.5t2.5 8.5q9 34 18.5 80.5t19.5 98.5q8 34 16.5 70t15.5 73q6 34 11.5 69t13.5 66q4 34 8 62.5t8 48.5t9 30.5t11 9.5z" />
    <glyph glyph-name="f" unicode="f" horiz-adv-x="495" 
d="M1 34q1 4 8.5 41.5t17.5 94.5t21 126.5t21 138.5q6 48 10 91t6.5 76.5t3.5 54.5t1 25q1 6 5.5 8.5t10 3.5t11 0.5t8.5 -0.5q-2 2 0 2t4 1q3 0 7 1h25.5t52 0.5t66.5 1t70 2.5q29 0 55.5 0.5t47.5 1t33.5 1t14.5 0.5q4 2 7 1.5t5 -0.5q2 -1 3 -1v-3q14 0 1 -43
q1 -18 -0.5 -35t-1.5 -19t-2 -13t-2 -13q0 -4 -7.5 -5t-20.5 -4h-26q-1 -1 -12.5 -1.5t-28.5 -1.5t-38 -2t-41 -2q-20 0 -38 -1t-32 -2q-16 -1 -30 -2q-5 0 -6.5 -8t-2.5 -20.5t-2.5 -28.5t-5.5 -32q-1 -11 -3.5 -23t-4.5 -21.5t-3.5 -15.5t0.5 -6h105h61.5t42.5 1
q19 1 32 2q1 0 3 -2q0 -1 1 -1l4 -4q3 -8 1.5 -24t-3.5 -33q1 -24 0.5 -40t-3.5 -19t-17.5 -3.5t-35.5 -1t-45 -1t-46 -1.5q-14 2 -34 1t-38 -2q-21 -2 -44 -3q-6 0 -7 -6t-4 -18q0 -12 -2.5 -26t-8.5 -31q-4 -28 -8.5 -58t-9.5 -55q-5 -29 -11 -57v-2q0 -2 -0.5 -3.5
t0.5 -4.5q-2 -5 -3.5 -7t-2.5 -3l-2 -1q-6 3 -16.5 4t-23.5 1t-26 -0.5t-23 -0.5q-5 0 -8.5 -0.5t-6.5 -1.5q-4 -1 -6 -1l-6 -1q-5 2 -8 8t-5 12q-3 7 -4 14z" />
    <glyph glyph-name="g" unicode="g" horiz-adv-x="635" 
d="M2 133q-3 63 10.5 124t35.5 116t48.5 101t49.5 80t38.5 54t16.5 21q3 4 9 10.5t12 13.5t11 13.5t7 9.5q-2 8 5.5 13t18.5 7q12 3 28 3q0 1 1 2q2 2 7 2h32q13 3 23.5 3t18 -1t12.5 -2.5t7 0.5q2 3 24.5 3t58.5 -3q17 0 28 -0.5t19 -1.5q9 -1 15 -2q34 -10 49 -36t17 -60
t-5.5 -72t-18.5 -73.5t-21 -64.5t-13 -44q-15 2 -21.5 1t-10.5 -1q-11 2 -37 0.5t-50 -5.5q-11 -2 -18.5 0.5t-12.5 6.5t-8 11q2 6 11.5 35.5t19 69.5t14.5 83.5t-1 78.5q-2 12 -6.5 19t-9.5 10q-5 4 -12 4q-63 -68 -106.5 -127.5t-71.5 -111.5t-43 -95.5t-21 -79.5
q-14 -84 10 -145q7 -18 17.5 -29t24 -16.5t30 -7t35.5 -1.5q20 0 38.5 1.5t33.5 3.5q18 2 34 5q4 15 12.5 43t16.5 57q10 33 21 70q-15 1 -45.5 -0.5t-62 -3t-57 -1.5t-29.5 5q-4 3 -5.5 6.5t-5.5 7.5q-4 0 -8.5 2.5t3.5 2.5q6 2 9 5l3 3q0 -1 1 -2t4 2q3 0 12 5t16 5h9.5
t17.5 0.5t19.5 1t14.5 1.5q14 3 22 2q5 -1 9 -2q9 -1 33 -0.5t52.5 2t58.5 2.5t51 1q30 0 41.5 -8.5t3.5 -22.5q-2 -7 -9 -33.5t-15 -56.5t-14.5 -54.5t-6.5 -26.5q-5 -10 -6.5 -19.5t-3 -16.5t-5.5 -11.5t-13 -4.5q-10 2 -44.5 1t-84 -4t-110 -7t-121.5 -8q-63 -5 -97 15
t-50 46q-18 30 -20 70z" />
    <glyph glyph-name="h" unicode="h" horiz-adv-x="517" 
d="M1 22q0 2 5.5 22.5t11.5 57.5q6 27 12.5 60.5t13 71t13 76.5t12.5 78q10 63 19 120t14 99q1 9 2 20.5t2 21.5q1 11 2 23q1 3 3 3.5t5.5 1.5t9.5 2.5t16 7.5l1.5 1.5t3 0t8.5 -1t19 -0.5q8 1 18.5 2.5t21.5 2.5t20.5 0.5t15.5 -1.5q12 0 20 -3.5t17 -3.5q4 -2 4.5 -9
t-1 -16t-3.5 -19t-2 -16q-1 -8 -4 -27.5t-7 -40.5t-7 -39t-4 -21t-3.5 -17t-4.5 -30.5t-4.5 -30t-3.5 -16.5q2 1 12.5 3t21.5 4q13 2 28 4q1 0 4.5 19t8.5 47.5t11 63t11 64.5t9 51.5t6 25.5q-1 5 5 4.5t9 2.5q5 3 13 6t13 3q3 0 13 -0.5t22.5 -0.5t24.5 1t19 4q18 3 33 1
t23 -5q12 -7 12 -19q0 -6 -2 -13q0 -3 -8 -39t-19 -92q-3 -20 -8 -42.5t-9 -45.5q-5 -18 -8.5 -35.5t-6.5 -36.5q-11 -63 -21.5 -124.5t-19 -111t-14 -81.5t-6.5 -35q2 -8 -4.5 -7.5t-12.5 0.5h-61q-6 0 -17 -0.5t-22 -1.5q-13 -1 -28 -2q-6 0 -14.5 -2t-9.5 2q-5 8 -5 18
q-1 5 0 10q3 3 7 26.5t8 53.5q3 20 6.5 39t5.5 34q3 18 5 34q-2 0 -13 -0.5t-24 -1.5l-34 -2q-1 -8 -3 -18q-2 -8 -4.5 -19t-4.5 -23q-5 -24 -7.5 -47.5t-7.5 -47.5q-7 -21 -9.5 -37t-2.5 -19q-1 -3 -7 -4t-14 -1.5t-17.5 0t-16.5 0.5q-16 4 -25 4t-23 -4q-8 -1 -11.5 -1.5
t-6 -1t-4.5 -0.5h-6q-8 0 -18 -2q-4 -1 -9 -2q-11 0 -13 10q-1 4 0 10z" />
    <glyph glyph-name="i" unicode="i" horiz-adv-x="266" 
d="M7 5q-10 10 -1.5 46.5t19.5 90.5q9 49 21 104.5t23 102.5t18.5 79.5t8.5 35.5q1 4 5 20.5t7.5 36.5t6 39t1.5 28t0 22t3 24q2 13 3 27q9 16 13 28.5t13 12.5q3 0 10.5 0.5t16.5 1l18 1t15 0.5q26 2 39.5 1.5t21.5 -1.5t11 -3q1 -9 3.5 -10.5t4.5 -2.5t2.5 -5.5
t-2.5 -18.5q0 -6 -2 -9.5t-2 -6.5q0 -4 0.5 -9t-1.5 -12q-5 -32 -20 -79q-6 -31 -12.5 -65.5t-17.5 -72.5q-15 -66 -30 -132.5t-27 -119.5t-19 -88t-7 -38q1 -8 -3.5 -16.5t-6.5 -11.5q0 -1 -1 -2t-8 -1q-19 3 -38 3t-34.5 -0.5t-27 -1.5t-15.5 -1q-6 -2 -8 0q-1 1 -1 3z
" />
    <glyph glyph-name="j" unicode="j" horiz-adv-x="703" 
d="M196 48q32 7 64 30q27 19 58 55.5t57 98.5q19 58 37 120q14 53 28.5 115.5t19.5 119.5q-1 14 0 28q1 12 2 25.5t4 24.5h-78q-14 -4 -32 -1.5t-32 4.5q-5 4 -12 4.5t-15 0.5t-17 1.5t-18 7.5l4 4l8 2l6 2t5 1q0 3 5 3h6q5 3 12.5 4t12.5 6q10 2 23 1t22 -1q17 2 43.5 -2
t58.5 -4q61 2 114 2h45t42.5 -1t34.5 -2t23 -3q10 -6 5.5 -13.5t-7.5 -7.5q-2 -2 -5 -3q-6 -2 -8 -2q-3 0 -5 -1.5t-16 -1.5q-7 -2 -19.5 -3t-25 -1.5t-22.5 -0.5h-11q0 1 -1 0q-2 -2 -1 -12q0 -2 -1.5 -23.5t-7 -57.5t-14.5 -82t-22 -95q-21 -78 -42.5 -143.5t-56.5 -115
t-89 -82t-139 -43.5q-15 -1 -26 -1q-11 -1 -20 -1t-12 -2q-19 -2 -38.5 0.5t-37.5 8t-33.5 13.5t-25.5 19q-24 25 -35 64.5t-9.5 85t16 92.5t41 86.5t66 68t90.5 36.5q10 1 21 1h18.5t17.5 -1q19 0 31.5 -0.5t14.5 -12.5q0 -3 -5 -7.5t-13.5 -9t-18 -8.5t-16.5 -7
q-13 -7 -33.5 -31.5t-41 -58.5t-36.5 -75t-19.5 -81.5t10 -76.5t51.5 -60z" />
    <glyph glyph-name="k" unicode="k" horiz-adv-x="691" 
d="M11 23q-8 0 -9 2t4 14q2 4 11 39.5t22 86.5t27.5 109.5t27.5 110t22 87.5t11 41q1 6 3.5 20.5t4.5 30.5t4 29t3 16q5 9 6.5 25.5t3.5 29.5q4 11 11 13.5t12 7.5q3 5 23 7.5t41 2.5q11 4 17 4.5t10.5 0t9.5 -1.5t14 0q10 0 17 -2.5t12 -4.5q5 -3 9 -6q11 -4 10 -23.5
t-7.5 -47.5t-15.5 -60t-13 -61q-4 -12 -7 -26.5t-5 -27.5q-3 -15 -5 -30q2 2 4.5 1.5t6.5 -0.5q4 -1 9 -1q2 1 14 13.5t31 32t41.5 44.5t45.5 51q21 24 40.5 46.5t35.5 40.5t26 29t12 12q11 2 12 4.5t6 2.5q5 4 10.5 4.5t9.5 -0.5t9 -4q11 10 33 13t38 0q11 -3 16 -3.5
t8 -0.5h5.5t7.5 -3q12 -5 11.5 -16.5t-8.5 -24.5q-2 -4 -16.5 -20t-37 -40t-50.5 -52.5t-57 -58.5q-68 -70 -153 -155q41 -71 75 -129q14 -25 28.5 -49.5t26.5 -45t20.5 -35t11.5 -19.5q5 -7 5.5 -14t-1.5 -13t-5.5 -10.5t-5.5 -6.5q-8 0 -14 4.5t-9 4.5t-8.5 -4t-15.5 0
q-5 0 -14 -1t-19.5 -2.5t-19.5 -3t-14 -1.5q-8 -1 -18.5 -0.5t-21.5 8.5q-7 5 -17 19.5t-21 29.5q-12 18 -25 39q-32 60 -50 91.5l-26 45.5q-11 16 -12 16q-2 -4 -6 -19t-9.5 -36.5t-12 -46.5t-12.5 -47.5t-10.5 -41t-6.5 -26.5q-2 -12 -11.5 -17t-22 -6.5t-25 0t-20.5 3.5
q-17 0 -35 -4.5t-36 -4.5q-10 -2 -15 1t-8 8q-4 5 -4 12z" />
    <glyph glyph-name="l" unicode="l" horiz-adv-x="461" 
d="M1 54q1 1 4 16t7 39t9 56.5t11 70.5q9 45 18 96.5t17 102.5t16 97.5t14 83t10 58.5t6 24q1 6 3.5 8t8.5 1.5t17 -1.5t30 -1q22 -2 36.5 -3.5t22.5 -3.5q10 -2 15 -4q5 0 6.5 -4t4.5 -7q2 -2 2.5 -3.5t1.5 -2.5l1 -2q3 -9 -8.5 -54.5t-22.5 -115.5q-10 -60 -20 -122
t-19 -113q-11 -60 -20 -115q9 1 29.5 0.5t45.5 -2t52 -3.5t50 -3.5t39.5 -2.5t20.5 -1q3 0 4 1.5t4 -1.5h8q5 -5 5 -18.5t-2 -28.5q-3 -18 -8 -38q-2 -1 -3 -3q-2 -5 0 -9q0 -4 -0.5 -9.5t-1.5 -11.5l-2 -14q-3 -9 -7.5 -10.5t-28.5 -1.5q-13 2 -49.5 3t-75.5 2
q-46 1 -100 2q-5 0 -4.5 -1.5t-2.5 -1.5q-9 3 -22.5 4t-28 0.5t-27 -2t-19.5 -2.5q-17 -3 -25 2q-4 2 -6 6q0 2 1 4q0 4 -1 4q-5 -2 -9 7q-2 4 -3 11v9z" />
    <glyph glyph-name="m" unicode="m" horiz-adv-x="763" 
d="M1 25q13 27 28.5 81t31 120.5t30.5 137.5t26.5 132.5t19 106t9.5 57.5q2 26 6.5 33.5t15.5 7.5h81q15 0 18.5 -1t11.5 -5q8 3 20 3.5t25 0.5h26t24 2q4 1 12 0.5t15 -4.5t11.5 -13t1.5 -24q-2 -7 -3.5 -25t-3 -43t-3.5 -54t-3 -58q-4 -69 -7 -151q7 19 15 43q7 20 16 46
t20 55q12 36 25 72.5t24.5 67t19 51t8.5 25.5q4 11 25 12t56 3q16 2 25.5 2t15.5 -1q6 -2 10 -4q8 -5 23 -6t30 1q18 1 38 5q16 0 15.5 -26t-9 -85t-20.5 -154t-19 -233q0 -9 -2.5 -39.5t-5.5 -64.5t-6 -63t-3 -35q-2 -5 -13 -7t-26 -2t-31 1t-29 3q-11 0 -17.5 3t-9.5 7
q-4 4 -4 11q1 1 3.5 18t5 44t5.5 63t5 75q3 55 6.5 110t6.5 98.5t5 69t1 22.5q-4 -5 -19.5 -42.5t-36 -91.5t-43 -115.5t-41.5 -114.5t-31.5 -89t-12.5 -39q-2 -2 -8.5 -2h-14t-13.5 -0.5t-6 -1.5q-3 -3 -8.5 -3.5t-19.5 -0.5h-81q-5 -5 -11 3t-5 16q-1 2 -1 21.5t1 48
t2.5 61.5t2.5 62.5t1.5 51.5t0.5 28q-1 8 0 43.5t2 76.5q1 48 3 106q-3 -3 -13.5 -45.5t-27.5 -102.5l-29.5 -118t-30 -115t-24.5 -89t-12 -40q-5 -14 -8.5 -16t-17.5 -2q-11 0 -22.5 -0.5t-37.5 -5.5q-17 0 -24.5 3.5t-11.5 8.5t-4 12z" />
    <glyph glyph-name="n" unicode="n" horiz-adv-x="445" 
d="M1 18q0 4 2.5 32.5t7.5 72.5t11.5 99t14.5 114q10 61 20.5 120.5t19.5 106.5t15 77t8 32q-1 6 2.5 8.5t9 3t13 1.5t14.5 4q2 3 14 4t26 3q9 2 21 7.5t21 0.5q4 -3 7.5 -27t6 -53.5t4.5 -57t3 -36.5q0 -5 2.5 -20t5.5 -36.5t7 -47.5l8 -52q10 -62 22 -137q0 2 2.5 23.5
t8.5 56.5q5 60 15 125t21 119q12 63 27 124q2 8 9 6.5t16 1.5q2 0 9.5 1t16.5 -1q9 0 20.5 2t23.5 4q5 0 8.5 -2.5t5.5 -4.5q2 -4 2 -7q-3 -17 -9.5 -36.5t-12.5 -48.5q-9 -46 -19 -105.5t-19.5 -122t-18.5 -124t-15.5 -112t-10.5 -84.5t-4 -43q-2 -9 -10.5 -11.5
t-13.5 -2.5q-5 1 -17 0.5t-24.5 -0.5t-23.5 1.5t-12 5.5q-1 5 -10 4.5t-14 -0.5q-6 0 -8.5 2.5t-7.5 9.5q-2 5 -6 24.5t-9 48t-10.5 63t-11.5 69.5q-13 83 -29 185q-2 -7 -7 -31.5t-11 -58t-12 -73.5t-11 -77q-3 -28 -4.5 -53t-3 -44.5t-2 -32t-0.5 -14.5q-1 -2 -2 -6
t-2.5 -7t-5 -5t-9.5 0q-4 -2 -13.5 -3t-19.5 -1q-12 -1 -26 0q-11 -2 -16.5 0t-7.5 6q-3 4 -2 10z" />
    <glyph glyph-name="o" unicode="o" horiz-adv-x="427" 
d="M401 699q24 -13 36.5 -36.5t17 -54t2.5 -66t-6 -72.5q-5 -60 -18.5 -128.5t-39 -131.5t-64.5 -115.5t-93 -80.5q-12 -6 -29.5 -9.5t-35 -5t-32 -1.5h-19.5q-3 -2 -8 -2.5t-7 -0.5q-13 0 -23.5 5.5t-17.5 13.5q-35 27 -49 73.5t-13 102.5t14.5 117t34.5 117
q13 46 33.5 89.5t44.5 79.5t49.5 62t48.5 36h7q6 0 18 2.5t23 5.5q12 0 22.5 0.5t18.5 2.5h19q9 0 15.5 2t11.5 2q18 0 27 -2.5t12 -4.5zM158 68q21 21 41 50q17 25 36.5 62t35.5 87q23 69 38 136q6 28 11 59t7.5 61t1 58t-8.5 52q-3 -1 -6 -3q-2 -2 -4.5 -3t-3.5 -2
q-14 -11 -38.5 -43t-50.5 -78.5t-49 -103t-34.5 -115t-7.5 -115t32 -102.5z" />
    <glyph glyph-name="p" unicode="p" horiz-adv-x="538" 
d="M478 656q37 -36 53 -88.5t11.5 -109t-29.5 -111t-70 -95.5q-34 -29 -79.5 -50.5t-105.5 -25.5q-17 0 -25.5 2.5t-11.5 2.5t-12.5 -2.5t-17.5 -2.5q-6 0 -10 -2q-2 -1 -3 -1q-7 -42 -13 -75q-5 -29 -10.5 -55t-7.5 -34q-1 -6 -7 -6.5t-14 1t-16.5 4.5t-14.5 5
q-11 0 -28 -2.5t-31 -6.5q-18 -5 -22.5 0t-11.5 21q-2 4 1 40.5t12 90.5t23.5 118.5t35.5 126.5q14 36 21 66.5t14 72.5q7 27 12 51t9 41q4 20 7 37q2 3 2.5 9t6.5 6q5 5 10.5 6.5t10.5 3.5q5 1 9 2q13 -2 20.5 -0.5t15 3.5t16.5 3t24 -2q3 3 13 0.5t40 3.5h51
q40 -6 69 -16.5t53 -31.5zM388 445q8 38 4 75q-3 32 -18.5 66t-54.5 58q-10 6 -16 5.5t-9 2.5q0 -3 -1 -7q-1 -3 -2 -6.5t-2 -5.5q0 -3 -1.5 -11.5t-4.5 -18.5t-6 -19l-5 -15q-1 -6 -3.5 -17t-5.5 -23.5t-5.5 -23.5t-2.5 -17q1 -6 -0.5 -15.5t-4 -19.5t-5.5 -19t-5 -13
q-2 -3 -6.5 -19t-10 -38t-11.5 -47t-10.5 -47t-6.5 -37t-1 -17q4 0 28.5 10t55.5 35.5t62 70t48 113.5z" />
    <glyph glyph-name="q" unicode="q" horiz-adv-x="436" 
d="M347 702q43 -14 65.5 -54t29 -94.5t-1 -119t-22.5 -127.5q-7 -25 -17 -52t-20 -51t-19 -43.5t-15 -28.5q6 -13 12 -26.5t11 -25t9 -20t6 -11.5q1 -3 2 -6.5t1 -7.5v-8q-2 -8 -12 -13.5t-21 -5.5q-3 -2 -12.5 -4.5t-17.5 -2.5q-5 -3 -8 -5t-14 -2q-9 0 -14.5 4t-7.5 7
q-2 7 -5 13q-2 5 -5 11.5t-6 12.5q-23 -14 -49.5 -26t-43.5 -15q-12 -1 -23 -2q-9 -1 -18 -1.5t-11 -0.5q-14 0 -31.5 4t-31.5 15q-23 20 -36.5 55.5t-16.5 85.5q-4 59 7 131.5t30.5 141t43.5 124.5t46 81q20 23 33.5 35.5t33.5 12.5q9 1 18 3q8 2 17 4t17 5q26 5 47.5 7.5
t49.5 -0.5zM273 244q1 2 8 22.5t15.5 52.5t15.5 73t7.5 82.5t-8 80.5t-30.5 69h-8q-8 0 -11 -3q-21 -24 -43 -67.5t-40.5 -97t-31.5 -112.5t-17 -112.5t2.5 -97t28.5 -66.5q12 9 24 20q10 10 21.5 24.5t21.5 34.5q-18 34 -32 61q-12 23 -21.5 43.5t-9.5 25.5q-3 6 3 7.5
t11 3.5q1 1 6 4t11 6t12 5.5t9 3.5q8 3 16 7t14 -7q1 -6 5.5 -16l9 -20t8 -18t3.5 -9z" />
    <glyph glyph-name="r" unicode="r" horiz-adv-x="445" 
d="M355 706q41 -8 65.5 -27.5t36 -47t11.5 -60.5t-8 -68.5t-22 -70.5t-31 -66q-17 -32 -36 -55.5t-35 -39.5q-18 -18 -37 -32q12 -57 23 -102q4 -19 8 -37.5t7.5 -33t5.5 -23.5t2 -10q3 -3 3.5 -6t0.5 -6q1 -4 -1 -6.5t-2 -9.5q-4 -6 -18.5 -3t-27.5 3h-37h-41
q-11 -3 -15 10q-2 5 -3 14q-8 38 -14 69q-5 26 -9.5 49t-6.5 27q-1 -1 -4 -13t-6.5 -29t-8 -37.5t-8.5 -38.5t-6.5 -31t-2.5 -16q0 -6 -10 -3.5t-42 -0.5h-27h-9q-7 -3 -17.5 -3.5t-19.5 -0.5q-5 0 -9 4q-2 2 -3 4q0 3 4 21t10.5 48.5t15.5 70.5t18 86q12 59 19.5 121
t18.5 118q18 83 27 138.5t8 62.5q3 12 11 14.5t14 4.5q1 2 7 3t14 1.5t16.5 0.5h14.5q12 -2 20.5 -1t17.5 2.5t21 2.5t32 0q9 3 20.5 3.5t21.5 0.5q11 0 23 -1zM271 382q18 34 33 74.5t19.5 79.5t-4 74t-37.5 60q1 -4 -7 -4q-4 3 -6 1t-2 -4q-8 -32 -15 -66
q-7 -29 -14 -66.5t-15 -74.5q-7 -32 -12.5 -62t-9.5 -53.5t-6 -39.5t-2 -20q13 12 26 28q11 14 25 32t27 41z" />
    <glyph glyph-name="s" unicode="s" horiz-adv-x="534" 
d="M3 215q0 3 1 6q2 6 9 9h27q28 0 47.5 -0.5t40.5 -2.5q13 0 12 -4.5t2 -7.5q0 -2 5.5 -23.5t14.5 -49.5t20.5 -55.5t23.5 -40.5q3 -2 22 8.5t44.5 31.5t51.5 52.5t43.5 71.5t20.5 87t-18 99q-1 -1 -2 -1q-1 -1 -2.5 -1t-2.5 -2q-3 -2 -21.5 -14t-41.5 -26t-45.5 -25.5
t-33.5 -11.5q-8 0 -23 -2t-32 -2q-13 3 -25 3.5t-24 0.5h-57q-7 0 -12 3q-10 3 -20 13q-12 19 -14 37.5t9 42t36.5 56t68.5 79.5q15 16 43 41t55 49q32 28 68 58q3 3 8 6q5 2 12.5 4t20.5 2h109q18 0 37 -13.5t31 -31.5q2 -11 2.5 -23t0.5 -21q0 -21 -5.5 -42t-13 -37.5
t-14 -28t-7.5 -12.5q-1 0 -2 -1t-1 -7q0 -3 -2 -3t-2 3q-4 6 -8.5 2.5t-4.5 -6.5h-8q-2 0 -5 -2.5t-7 -2.5q-3 0 -8 -1.5t-8 1.5q-6 4 -20 7.5t-29 -2.5q-8 -4 -15 -1t-13 9q-5 3 -5.5 15.5t1.5 20.5q9 15 15.5 27t9.5 33q0 3 -12.5 -5.5t-32 -24.5t-43.5 -38.5t-45.5 -46.5
t-39 -49t-24.5 -46l7 4q1 2 16 13t36.5 23.5t48 22.5t52.5 10q55 -3 88 -5t54 -11q33 -12 52 -47.5t16 -105.5q-3 -39 -19.5 -83t-47 -84t-74.5 -72t-101 -47q-9 -4 -22 -5q-12 -2 -30.5 -1t-47.5 6q-8 2 -19 2.5t-22 1.5q-12 1 -25 1q-24 1 -47 23q-20 19 -41 62.5
t-37 127.5z" />
    <glyph glyph-name="t" unicode="t" horiz-adv-x="418" 
d="M305 707q92 -3 130.5 -6.5t38.5 -6.5q-1 -2 -2 -3q-2 -3 -4 -3q-3 -3 -1 -7l2 -4q3 -3 1 -23.5t-10 -40.5q0 -18 -1 -33t-2 -25q0 -3 -5 -3h-5q-16 3 -27 3.5t-22.5 0t-26 -1.5t-37.5 -1q-15 0 -25.5 -0.5t-16.5 -1.5q-8 -1 -12 -1q-6 0 -10.5 -14t-9 -37t-9 -54
t-11.5 -64q-10 -51 -21 -106t-21 -104t-17.5 -88.5t-10.5 -60.5q-2 -4 -3.5 -6t-2.5 -4q-2 -2 -2 -3q-2 -8 -4.5 -9.5t-4.5 -1.5q-4 0 -10 2t-9 2q-5 -3 -11 -1.5t-12 1.5q-1 1 -8.5 1.5t-17.5 0.5t-20.5 -0.5t-17.5 -1.5q-19 -3 -22.5 -0.5t-4.5 7.5q-2 5 -2.5 8.5
t-0.5 6.5q0 4 1 6q-1 6 2.5 24t8.5 40t11 45t11 40q8 33 14.5 69t11.5 73q8 38 12.5 73t7.5 63q4 33 6 61q0 2 1 7t0 10t-4.5 7.5t-12.5 -0.5q-8 -3 -26.5 -1.5t-37.5 1.5q-16 3 -20 9q-3 3 -2 6q2 12 3 23q1 10 1.5 20t0.5 18q-1 17 0 30.5t3 23.5q2 11 3 20h4q7 3 11 3.5
t8 0.5q17 3 46 5t65.5 3.5t77.5 2t81 0.5z" />
    <glyph glyph-name="u" unicode="u" horiz-adv-x="407" 
d="M428 695q8 -7 7.5 -28t-5 -47.5t-10 -54.5t-7.5 -47q-9 -76 -20.5 -157t-30.5 -151.5t-48 -121.5t-72 -66q-16 -15 -64 -15h-12q-5 -3 -18 -3.5t-22 -0.5h9q-18 0 -34 8t-29.5 20.5t-23.5 28.5t-16 33q-19 44 -25 100.5t-4 116t10 117.5t17.5 105.5t18 79.5t11.5 40
q6 20 14.5 28t20 10.5t25.5 3t31 5.5h8q3 3 6 3.5t9 0.5t11 -2.5t5 -5.5q6 -8 6 -18.5t-6 -28.5q-40 -148 -51 -250t-7 -168t16.5 -100.5t21.5 -47.5q20 18 35.5 50t27.5 73t21 88t15.5 93.5t11.5 90.5t9 80q2 42 5 71.5t6 47.5q3 17 20 20t33 3q5 0 13.5 0.5t17.5 3.5
q5 0 10.5 2t9.5 2q17 0 23 -12z" />
    <glyph glyph-name="v" unicode="v" horiz-adv-x="411" 
d="M79 678q0 3 1 8.5t10 8.5q8 3 10.5 3.5t8.5 0.5q7 0 7.5 2.5t11.5 4.5q26 3 38.5 0.5t20.5 -0.5q5 0 9 -1q10 -2 15 -6q3 -3 6 -12.5t1 -23.5q1 -8 -2 -38t-7 -71q-3 -37 -8.5 -79t-14.5 -87q-7 -53 -14 -103t-12.5 -89t-9 -64t-3.5 -26q11 33 22 62q9 25 17 49t12 35
q2 4 9 23.5t17 48.5t22.5 65.5t25.5 74t25.5 74t22.5 66t16.5 49.5t7.5 25q2 1 6 2q6 2 12 2q3 2 11.5 4t19.5 3.5t23 1t22 -3.5q5 -2 11 -1.5t11 0.5t9.5 -3t7.5 -12q1 -4 2 -9q0 -5 -0.5 -11.5t-2.5 -14.5q-2 -4 -12.5 -31.5t-26 -70t-34.5 -95.5t-38.5 -108t-38.5 -107.5
t-33.5 -93.5t-23.5 -67t-10 -27h-8q-3 0 -3.5 -1.5t-3.5 1.5q-3 0 -1 -2l2 -2q0 -8 1 -12q-3 -6 -1 -9.5t-6 -6.5h-8h-48q-19 -2 -30 -2t-19.5 0.5l-17 1t-22.5 0.5q-28 0 -48 0.5t-23 3.5q1 1 1 2q0 2 -2 2q-3 0 -7.5 2.5t-8.5 6t-5 6.5t4 5q3 0 3 2v2v7.5t2 14.5
q8 49 16.5 110t16.5 125t14.5 126.5t11.5 115t7.5 90.5t2.5 53z" />
    <glyph glyph-name="w" unicode="w" horiz-adv-x="752" 
d="M622 39q-5 -13 -8 -20.5t-5.5 -11.5t-5.5 -5t-8 -1q-9 2 -23 1.5t-27 -0.5q-15 -1 -31 -1q-9 0 -26 0.5t-36.5 1t-37.5 0t-28 -1.5q-4 0 -11 1t-13 5.5t-9.5 13t0.5 23.5q1 7 3 25t4.5 42.5t5.5 53.5l6 58q6 68 14 150q-2 -1 -7 -13.5l-13 -32.5t-18.5 -45t-22.5 -51
q-14 -36 -28 -72.5t-26 -66.5t-20.5 -50.5t-10.5 -25.5q-5 -23 -80 -15h-52q-9 2 -24 1.5t-30 -0.5q-18 -1 -37 -1q-16 0 -14 26.5t13 86t26.5 154t27.5 230.5q1 7 4.5 33.5t7.5 58.5t8 61.5t7 41.5l5 5q-1 5 4.5 7.5t9.5 -1.5h43q6 4 17.5 2t15.5 -2q5 -5 11 -6t13 -5
q4 -3 4.5 -4l2.5 -5v-4q0 -6 1 -10q-2 -9 -5.5 -27t-7 -42.5t-7 -54.5t-4.5 -62q-5 -54 -10.5 -108.5t-10.5 -97.5t-8 -68.5t-1 -21.5q2 3 12 25.5t24 57t31 77t35 86.5t34.5 86.5t30 75.5t21.5 53t9 21q3 6 15.5 5t16.5 -1q8 3 20 3.5t23 0.5q7 0 18.5 -0.5l23 -1t21 -0.5
t13.5 2q4 0 9.5 -7.5t2.5 -15.5q1 -2 1 -21t-2 -46.5t-4.5 -59.5t-5 -60.5t-4.5 -49t-3 -25.5v-16t-1 -29.5t-1.5 -38t-1.5 -41.5q-3 -49 -5 -110q1 2 5 15t10 33.5t14.5 48t18.5 57.5q14 55 31.5 116.5t34 114.5t28 89.5t13.5 41.5q2 14 6.5 15t15.5 4h67q14 2 22 -1t12 -7
t5 -11q-3 -27 -14.5 -71.5t-26.5 -98.5t-31.5 -113.5t-29.5 -116.5q-11 -44 -22.5 -82.5t-20.5 -69.5t-14.5 -52.5t-4.5 -30.5z" />
    <glyph glyph-name="x" unicode="x" horiz-adv-x="541" 
d="M268 243q-1 -2 -6.5 -11.5t-12.5 -21l-14 -23t-11 -17.5q-5 -8 -16 -26.5t-22 -38.5t-20.5 -37.5t-10.5 -23.5q-3 -9 -11.5 -20.5t-12.5 -11.5q-2 2 -11.5 2t-14.5 -2q-7 0 -16 -2.5t-15 -2.5q-3 4 -9 3.5t-26 -7.5q-16 -3 -23.5 -2t-10.5 3q-4 3 -3 8q-3 1 1 9q2 4 5 7
q4 11 11 24q5 11 13.5 25.5t19.5 31.5q14 20 29.5 44.5t31.5 50t31.5 50.5t29.5 47q8 14 16 27t14 23q7 11 13 21q0 1 -7.5 20t-19 47t-24.5 61.5t-25 65.5q-18 56 -37 81q-5 6 -3.5 8t-2.5 9q0 5 4 9q2 2 4 3q2 6 13 12q5 3 11 5q2 0 3.5 -1.5t7.5 1.5q18 7 27.5 10
t14.5 3.5t7.5 -0.5t6.5 -1q13 0 18.5 -1t15.5 -15q5 -7 17 -35.5t26 -60.5q16 -38 35 -84q6 13 21 35.5t32.5 47.5t35 49t27.5 39q4 5 10.5 9t14.5 8t18 8h12.5t17.5 1q11 1 23 2l12 -2q5 -1 12 -1h14q8 -3 7.5 -8t-3.5 -8v-6.5t-3 -6.5q-2 -3 -16 -20.5t-31 -44.5
q-23 -30 -49.5 -68t-49 -71t-37.5 -56.5t-15 -24.5q-5 -5 -5 -9q0 -2 2 -3q1 -1 7.5 -14.5t15.5 -35.5t21 -49.5t26 -57.5q5 -15 11.5 -27.5t13.5 -24.5q15 -23 25 -43.5t16 -36.5q7 -18 12 -34q3 -6 3 -8t-2 -8v-4q1 -2 1 -4q0 -4 -5 -4h-16q-6 -3 -12.5 -6t-13.5 -3
q-8 -3 -16.5 -1.5t-13.5 1.5q-7 0 -21.5 -4t-19.5 -8q-7 -3 -9 -2.5t-7 7.5q-3 2 -6 5t-7 19q-2 7 -6 18t-9 22.5t-10.5 22.5t-10.5 18q-6 18 -12.5 27.5t-11.5 25.5l-10 20t-11 24q-6 14 -13 29z" />
    <glyph glyph-name="y" unicode="y" horiz-adv-x="490" 
d="M517 703q3 -2 0 -10t-7.5 -18t-10 -19.5t-6.5 -12.5l-85 -180q-10 -21 -23.5 -46t-27.5 -52q-26 -49 -53 -98t-51.5 -92t-44.5 -77.5t-30 -53.5l-4 -8q-4 -8 -6 -8q-2 -2 -5 -9t-6 -7q-4 -2 -11 -3t-10 -1t-8.5 2t-11.5 4t-11.5 4t-6.5 2q-6 5 -12 5.5t-12 1.5
q-6 0 -18 3.5t-20 3.5q-20 4 -13 21q2 3 4 7q2 3 3.5 6t3.5 6q5 6 6.5 12t6.5 13q12 24 29.5 53t32.5 52q15 20 27.5 43.5t23.5 47.5q1 4 1 13.5t-1.5 21.5t-3.5 24.5t-3 22.5q-12 46 -23.5 94.5t-20.5 89t-14.5 67t-5.5 28.5q-4 8 -4 12q-1 4 0 7q0 4 4 8q13 4 31 7t34 5.5
t28 4t14 3.5q3 2 5 1.5t4 -0.5q2 -1 3 -1q5 -3 7 -26t8 -61q3 -16 8 -43.5t10.5 -56.5t11 -56.5t9.5 -43.5q5 12 11.5 31t14.5 38q8 21 18 45q0 2 4.5 12.5t10.5 22.5q6 14 15 32l7.5 15t8.5 19t7.5 18t4.5 11t4.5 10.5t7.5 15t7 13t4 4.5q5 0 13 0.5t17 1t17 0t12 -1.5
q15 -3 35.5 0t35.5 0z" />
    <glyph glyph-name="z" unicode="z" horiz-adv-x="683" 
d="M763 701q3 -4 3.5 -13t-1.5 -22t-5 -27.5t-7 -29.5q-16 -22 -24 -40q-14 -25 -28.5 -35.5t-25.5 -21.5q-4 -3 -19.5 -15.5t-37.5 -30t-47 -37.5t-46 -36.5t-36.5 -28.5t-17.5 -13q5 -2 18.5 -10t27.5 -17t25 -17t11 -10q4 0 1.5 -5t-6.5 -9q-2 0 -7.5 -5t-12.5 -11
t-14.5 -11.5t-13.5 -6.5q-8 -8 -9.5 -11.5t-5.5 -3.5q-19 12 -36 23q-14 9 -29 18t-22 13q-39 -27 -62 -49.5t-40.5 -42t-33 -36.5t-39.5 -33q29 1 57 2q23 1 49 0.5t44 -2.5h248q7 0 8 -5t-0.5 -12.5t-4.5 -17t-3 -18.5q0 -19 -5 -28t-9 -16q-2 -4 -3.5 -10.5t-6 -12.5
t-12.5 -9.5t-23 -1.5q-10 1 -40.5 1.5t-70.5 0t-86 -1.5t-87.5 -1.5t-74.5 0t-48 1.5q-17 0 -36 -1t-37.5 -1.5t-34 -1.5t-24.5 -1q-11 0 -15.5 10t-5 23.5t0.5 26t1 18.5q1 6 2 13.5t2 14.5t2 12.5t3 7.5q2 4 18.5 19.5t41 38.5t54.5 49.5t59 52.5t54 48t41 36
q-8 5 -19.5 12t-24 14.5t-24.5 14.5t-19 12q-5 4 -5 5t5 4l6 6q3 3 6 6.5t8 7.5q7 12 15.5 19t12.5 11q8 0 11.5 3.5t7.5 -3.5q5 -2 20.5 -10.5t31.5 -18.5q18 -11 41 -25l180 161q-26 -3 -50 -5q-20 -2 -40.5 -2t-31.5 3q-11 0 -37.5 0.5t-59 2t-65.5 3t-56 3.5
q-26 2 -39 4t-18.5 3.5t-6 3t-0.5 3.5q-2 4 -3 11.5t-1.5 15t-0.5 14v8.5q2 3 5.5 13.5t8.5 21.5q5 13 11 28q34 -1 63 -2q25 -1 49 -1.5t33 -0.5q11 0 32.5 1.5t45.5 2.5t48 1.5t41 -1.5q16 -4 44.5 -5t57.5 -1t52.5 1t29.5 1q7 1 19.5 0.5t27 -2t28 -3t22.5 -1.5h20v0z
" />
    <glyph glyph-name="asciitilde" unicode="~" horiz-adv-x="833" 
d="M723 803q3 -6 4.5 -17t-1.5 -24.5t-11.5 -28.5t-26.5 -29q-5 -5 -15.5 -12.5t-26 -15.5t-34.5 -13.5t-41 -5.5q-14 0 -31.5 3.5t-36.5 14t-38 28.5t-37 48h-3q-11 18 -25 32q-12 12 -28 22t-34 10q-5 0 -10.5 -2t-10.5 -4q-23 -9 -36.5 -18.5t-21 -18t-10 -14.5t-2.5 -7
q-5 -13 -5 -24t4 -22t16 -21q2 -2 11.5 -9t11.5 -9q8 -12 3 -17q-2 -5 -8 -9.5t-12 0.5q-1 0 -9 3.5t-18.5 11t-20.5 18.5t-14 25q-2 11 -2.5 24.5t3.5 28.5t14 31t29 33q17 17 40 26t48 9q46 0 81 -35q16 -15 26.5 -28t17.5 -22q9 -8 15 -16.5t14 -15.5q22 -15 42 -23.5
t40 -8.5q33 0 79 29q9 8 16.5 17.5t13 18t8 16t0.5 10.5q-12 11 -38 11q-15 0 -32 -3t-31.5 -7.5t-25 -9t-13.5 -6.5q-7 -2 -12 -2t-10 0.5t-8 4.5q-2 2 -3.5 7.5t-1.5 9.5q0 14 9 19.5t20 10.5l15 5t27.5 8t31.5 7t28 3q21 0 34.5 -5t22 -12t13 -15t6.5 -15z" />
    <glyph glyph-name="exclamdown" unicode="&#xa1;" horiz-adv-x="274" 
d="M245.135 493.414q-4.96484 -10.9209 -6.4541 -18.8643q-1.48926 -7.94238 -2.48242 -12.9072q-0.993164 -4.96387 -2.97852 -6.45312q-1.98633 -1.48926 -7.94336 0.496094q-4.96484 0 -14.3975 -0.993164q-9.43262 -0.992188 -20.8516 -1.48926
q-11.418 -0.496094 -21.8438 -1.48926q-10.4258 -0.992188 -18.3691 -0.992188q-6.95117 0 -8.93652 2.97852t-1.48926 7.94238q0.496094 4.96484 2.48242 10.9219q1.98535 5.95703 3.97168 10.9209q7.94336 13.9004 11.915 29.7861t7.94336 26.8066
q2.97852 4.96484 6.4541 5.95801q3.47461 0.992188 8.93555 0q5.46191 -0.993164 14.8945 -1.98633t25.3193 0.993164q15.8867 0 23.8301 -1.48926t11.418 -3.97168q3.47559 -2.48242 3.47559 -4.46777v-3.97168q-1.98535 -1.98535 -4.46777 -7.94238t-4.46875 -12.9072
q-2.97852 -7.94336 -5.95703 -16.8789zM221.305 394.128q-1.98633 -1.98535 -4.96484 -18.3672q-2.97852 -16.3828 -6.9502 -38.7217q-3.97168 -22.3398 -7.94336 -46.6641q-3.97168 -24.3252 -7.94336 -42.1973q-1.98633 -10.9209 -6.4541 -31.2744
q-4.46875 -20.3535 -9.92969 -46.168t-11.915 -53.6143q-6.4541 -27.8008 -11.915 -52.126q-5.46094 -24.3242 -9.92871 -43.6855q-4.46777 -19.3604 -6.4541 -27.3037q-1.98633 -12.9072 -6.4541 -31.7715t-9.92871 -37.7285t-9.92969 -35.2461
q-4.46777 -16.3828 -6.4541 -23.332q-3.97168 -10.9219 -9.92871 -10.4258q-5.95801 0.49707 -13.9014 0.49707q-4.96387 0 -20.3545 -0.49707q-15.3906 -0.496094 -41.2061 -3.47461q-13.9014 0 -19.3623 2.97852t-6.4541 6.9502t1.98633 8.93555
q11.915 24.8213 26.3125 72.4785t29.291 105.243t28.7939 118.646q13.9014 61.0615 24.8232 111.697q10.9229 50.6357 17.376 84.8887q6.4541 34.2539 6.4541 39.2188q2.97949 13.8994 8.44043 16.3818t9.43262 2.48242q7.94336 -2.97852 26.3125 -3.47559
q18.3682 -0.496094 35.248 -0.496094q6.9502 0 9.92969 -2.97852q2.97852 -2.97852 3.97168 -6.9502q0.992188 -3.97168 0.496094 -7.94238q-0.496094 -3.97168 -0.496094 -5.95801z" />
    <glyph glyph-name="dieresis" unicode="&#xa8;" horiz-adv-x="389" 
d="M16 859q0 7 1 14t8 7q9 0 19.5 2.5t17.5 0.5q8 -1 20.5 -0.5t26 1.5t27 2.5t24.5 2.5q10 0 14.5 -5t5.5 -13.5t0 -19t-2 -20.5q-2 -20 -3.5 -28t-5.5 -24q-5 -16 -23 -16.5t-41 1.5h-74q-16 2 -18 15.5t0 24.5q1 5 2 14t1 18v23zM216 859q0 7 1 14t8 7q9 0 19.5 2.5
t17.5 0.5q8 -1 20.5 -0.5t26 1.5t27 2.5t24.5 2.5q10 0 14.5 -5t5.5 -13.5t0 -19t-2 -20.5q-2 -20 -3.5 -28t-5.5 -24q-5 -16 -23 -16.5t-41 1.5h-74q-16 2 -18 15.5t0 24.5q1 5 2 14t1 18v23z" />
    <glyph glyph-name="acute" unicode="&#xb4;" horiz-adv-x="250" 
d="M75 848q2 5 10.5 12.5t18.5 16t19.5 16t14.5 12.5q3 6 8 0.5t10.5 -15.5t10 -20.5t6.5 -15.5q2 -7 11 -15t14 -16q7 -8 1.5 -14t-10.5 -9q-4 -1 -14 -10.5t-21 -21t-21 -23t-14 -17.5q-8 -12 -12 -12.5t-6 -0.5q-5 0 -10 12t-10 16q-7 2 -12 17.5t-17 26.5
q-7 6 -7.5 12.5t2 12t6.5 9t7 4.5t5.5 5t4.5 8q3 4 5 10z" />
    <glyph glyph-name="questiondown" unicode="&#xbf;" horiz-adv-x="364" 
d="M330.999 522.502q-8.2002 0 -23.0635 1.02344q-14.8623 1.02441 -21.0127 -1.02344q-5.125 0 -10.25 1.02344q-5.125 1.02441 -7.1748 1.02441q-5.12598 0 -5.12598 11.2656v10.2422q0 4.09668 -0.511719 8.19336q-0.512695 4.09668 -2.56348 6.14453
q0 6.14551 1.53809 12.8027q1.53711 6.65723 9.7373 6.65723h32.8008q11.2754 0 20.501 0.511719t11.2754 -7.68164q2.0498 -7.16895 2.0498 -11.2656v-14.3379q2.0498 -8.19336 2.5625 -17.9238q0.512695 -9.72949 -10.7627 -6.65625zM339.199 495.873v2.04883
q0 2.04785 -2.0498 2.04785q2.0498 0 2.0498 -2.04785v-2.04883zM369.95 22.707q-10.251 -58.3779 -25.1133 -88.5908q-14.8633 -30.2139 -29.2129 -43.5273q-16.4004 -15.3623 -32.8008 -15.3623h-16.4004q-15.376 0 -26.6514 -3.07324
q-36.9004 -4.09668 -52.2754 -3.07227q-9.22559 1.02441 -15.376 3.07227q-39.9756 11.2666 -70.7266 33.2861t-51.7637 49.6719t-32.2881 57.8652t-12.3008 56.8418q-2.0498 21.5078 -0.512695 37.3818q1.53809 15.875 5.6377 27.1406q2.05078 6.14551 13.3262 23.0439
q11.2744 16.8984 27.1631 35.8457q15.8877 18.9473 34.8506 36.3584t36.3887 24.5801q23.5752 11.2656 41 22.5322q17.4258 11.2656 28.7012 19.459q4.09961 2.04785 6.66309 5.63281q2.5625 3.58398 6.66211 5.63281q17.4258 17.4111 28.1885 37.3818
q10.7627 19.9717 16.9131 40.4551q8.2002 24.5801 8.71191 49.6719q0.512695 25.0928 -5.63672 39.4307v8.19336q3.07422 11.2656 5.125 11.2656q0 8.19336 6.14941 8.19336q2.05078 -2.04785 5.12598 -3.58398q3.07422 -1.53613 5.125 1.53613q2.0498 0 5.6377 -0.511719
q3.58691 -0.512695 6.66211 -3.58496h37.9258q6.15039 4.09668 8.2002 4.09668q2.05078 1.02441 4.10059 0q2.0498 0 2.0498 -2.04785v-2.04883v-1.02441q0 -1.02441 1.02539 -1.53613q1.02441 -0.511719 2.0498 -2.56055v-13.3145q-1.02539 -3.07227 -0.512695 -13.3135
q0.512695 -10.2422 1.02539 -23.5557q0.511719 -13.3145 0 -28.165q-0.512695 -14.8506 -3.58789 -27.1406q-8.2002 -29.7012 -23.0635 -60.4258q-14.8623 -30.7256 -38.4385 -54.2812q-4.09961 -7.16895 -23.5752 -22.5322q-19.4756 -15.3623 -42.5381 -31.2363
q-23.0635 -15.875 -44.0762 -29.7012q-21.0137 -13.8262 -28.1885 -16.8984q-7.1748 -4.09766 -13.8379 -14.3389q-6.66211 -10.2412 -11.2754 -21.5078q-4.6123 -11.2656 -7.1748 -20.4834q-2.5625 -9.2168 -2.5625 -10.2412q-5.125 -46.0879 13.3252 -83.4697
q18.4502 -37.3828 42.5381 -63.499q24.0889 -26.1162 46.127 -39.4307q22.0371 -13.3145 24.0879 -11.2656q8.2002 8.19336 16.4004 27.1406t14.3496 38.918q6.15039 19.9717 9.73828 34.8223t3.58789 15.875q2.0498 2.04785 1.02441 5.63281
q-1.02441 3.58398 7.17578 3.58398q14.3496 2.04883 28.7002 2.56055t33.8262 0.511719h12.8125t4.6123 -0.511719q1.02539 -0.511719 1.02539 -1.02441q0 -0.511719 1.02539 -1.53613q2.0498 0 4.09961 -4.09668q1.02539 -2.04785 1.02539 -5.12012z" />
    <glyph glyph-name="Agrave" unicode="&#xc0;" 
d="M475 664q8 -4 6 -6q-1 -1 -4 -2q-1 -1 -2 -1q-2 -2 -2 -3q8 -6 5.5 -13.5t-4.5 -12.5q-5 -15 -3.5 -19.5t-4.5 -14.5q0 -6 -6 -8q-3 -1 -5 -1q1 -3 4 -33t7 -75t8 -99.5t7 -107.5q2 -47 2.5 -91t-0.5 -77.5t-2.5 -54.5t-2.5 -22q-1 -20 -4 -23.5t-5 -3.5q-3 0 -12.5 1.5
t-12.5 -1.5q-2 0 -6.5 0.5t-20.5 3.5q-10 1 -21.5 0.5t-21.5 -1.5q-12 -1 -24 -3q-9 0 -10.5 1.5t-3.5 9.5q-5 6 -5.5 9.5t-1.5 6.5v5t2 11q-1 1 -1 5v9v12q-17 0 -35 1q-15 1 -34 1.5t-36 0.5q-14 2 -23.5 1.5t-16.5 -0.5q-8 -1 -14 -1t-7.5 -4.5t-6.5 -21.5q-3 -9 -5 -16
t-4 -12q-2 -6 -3 -11q-5 -5 -11 -2t-23 6q-17 0 -28 2t-31 2q-8 2 -16.5 2t-14.5 1q-8 0 -14 1q-5 0 -4 2.5t0 5.5q-3 3 -3 10q0 3 1 6q0 1 8.5 31.5t23 78.5t32 108t35.5 122q16 55 30.5 107.5t25.5 94.5t17.5 69.5t6.5 33.5q4 14 8 14h13h26q-1 1 1 3q1 0 2 1
q17 3 38.5 3.5t41.5 0.5q14 2 28 0t34 -6q5 -1 9 -1t23 -4q11 -3 21 -4.5t18 -2.5q9 -1 17 -1q5 0 5 -4q0 -2 -1 -3l-2 -5q5 -2 6 -3t2 -1q0 -1 1 -2t1.5 -2t2.5 -3zM316 203q-2 69 -4.5 120.5t-6 91t-8.5 69.5t-11 57q-1 2 -1 -4q0 -3 -1 -7q-6 -26 -14 -53
q-7 -23 -15.5 -53t-17.5 -60q-8 -31 -16.5 -59t-15.5 -50q-8 -26 -16 -48h4q21 -2 42 -3q18 -2 39.5 -2.5t39.5 -2.5q4 -3 2 4zM351 863q5 -2 12.5 -10.5t16 -18.5t16 -20t12.5 -14q6 -3 0.5 -8t-15.5 -10.5t-20.5 -10t-15.5 -6.5q-7 -2 -15 -11t-16 -14q-8 -7 -14 -1.5
t-9 10.5q-1 4 -10.5 14t-21 21t-23 21t-17.5 14q-12 8 -12.5 12t-0.5 6q0 5 12 10t16 10q2 7 17.5 12t26.5 17q6 7 12.5 7.5t12 -2t9 -6.5t4.5 -7t5 -6t8 -5q4 -3 10 -4z" />
    <glyph glyph-name="Aacute" unicode="&#xc1;" horiz-adv-x="498" 
d="M475 664q8 -4 6 -6q-1 -1 -4 -2q-1 -1 -2 -1q-2 -2 -2 -3q8 -6 5.5 -13.5t-4.5 -12.5q-5 -15 -3.5 -19.5t-4.5 -14.5q0 -6 -6 -8q-3 -1 -5 -1q1 -3 4 -33t7 -75t8 -99.5t7 -107.5q2 -47 2.5 -91t-0.5 -77.5t-2.5 -54.5t-2.5 -22q-1 -20 -4 -23.5t-5 -3.5q-3 0 -12.5 1.5
t-12.5 -1.5q-2 0 -6.5 0.5t-20.5 3.5q-10 1 -21.5 0.5t-21.5 -1.5q-12 -1 -24 -3q-9 0 -10.5 1.5t-3.5 9.5q-5 6 -5.5 9.5t-1.5 6.5v5t2 11q-1 1 -1 5v9v12q-17 0 -35 1q-15 1 -34 1.5t-36 0.5q-14 2 -23.5 1.5t-16.5 -0.5q-8 -1 -14 -1t-7.5 -4.5t-6.5 -21.5q-3 -9 -5 -16
t-4 -12q-2 -6 -3 -11q-5 -5 -11 -2t-23 6q-17 0 -28 2t-31 2q-8 2 -16.5 2t-14.5 1q-8 0 -14 1q-5 0 -4 2.5t0 5.5q-3 3 -3 10q0 3 1 6q0 1 8.5 31.5t23 78.5t32 108t35.5 122q16 55 30.5 107.5t25.5 94.5t17.5 69.5t6.5 33.5q4 14 8 14h13h26q-1 1 1 3q1 0 2 1
q17 3 38.5 3.5t41.5 0.5q14 2 28 0t34 -6q5 -1 9 -1t23 -4q11 -3 21 -4.5t18 -2.5q9 -1 17 -1q5 0 5 -4q0 -2 -1 -3l-2 -5q5 -2 6 -3t2 -1q0 -1 1 -2t1.5 -2t2.5 -3zM316 203q-2 69 -4.5 120.5t-6 91t-8.5 69.5t-11 57q-1 2 -1 -4q0 -3 -1 -7q-6 -26 -14 -53
q-7 -23 -15.5 -53t-17.5 -60q-8 -31 -16.5 -59t-15.5 -50q-8 -26 -16 -48h4q21 -2 42 -3q18 -2 39.5 -2.5t39.5 -2.5q4 -3 2 4zM305 847q2 5 10.5 12.5t18.5 16t19.5 16t14.5 12.5q3 6 8 0.5t10.5 -15.5t10 -20.5t6.5 -15.5q2 -7 11 -15t14 -16q7 -8 1.5 -14t-10.5 -9
q-4 -1 -14 -10.5t-21 -21t-21 -23t-14 -17.5q-8 -12 -12 -12.5t-6 -0.5q-5 0 -10 12t-10 16q-7 2 -12 17.5t-17 26.5q-7 6 -7.5 12.5t2 12t6.5 9t7 4.5t5.5 5t4.5 8q3 4 5 10z" />
    <glyph glyph-name="Acircumflex" unicode="&#xc2;" horiz-adv-x="519" 
d="M185 765q3 0 15.5 -1t30.5 1q20 1 47.5 2t52.5 -1q14 0 31 0.5t32 2.5q18 1 35 3q2 2 10 1t19 1q5 0 5 -5q-1 -2 -1 -4q0 -4 3 -5q2 -2 3 -4t-1 -5q-2 -5 0.5 -9t2.5 -6q2 -4 -4 -4.5t-14 -0.5h-27q-4 1 -19.5 1h-34t-35 -0.5t-22.5 -0.5q-6 1 -21 1h-31.5h-30.5t-17 -1
q-9 -2 -22 -3t-15 3q-3 4 -3.5 3.5t-2.5 1.5q-5 6 -2.5 9t2.5 6q2 5 5.5 8.5l5.5 5.5h3zM475 664q8 -4 6 -6q-1 -1 -4 -2q-1 -1 -2 -1q-2 -2 -2 -3q8 -6 5.5 -13.5t-4.5 -12.5q-5 -15 -3.5 -19.5t-4.5 -14.5q0 -6 -6 -8q-3 -1 -5 -1q1 -3 4 -33t7 -75t8 -99.5t7 -107.5
q2 -47 2.5 -91t-0.5 -77.5t-2.5 -54.5t-2.5 -22q-1 -20 -4 -23.5t-5 -3.5q-3 0 -12.5 1.5t-12.5 -1.5q-2 0 -6.5 0.5t-20.5 3.5q-10 1 -21.5 0.5t-21.5 -1.5q-12 -1 -24 -3q-9 0 -10.5 1.5t-3.5 9.5q-5 6 -5.5 9.5t-1.5 6.5v5t2 11q-1 1 -1 5v9v12q-17 0 -35 1
q-15 1 -34 1.5t-36 0.5q-14 2 -23.5 1.5t-16.5 -0.5q-8 -1 -14 -1t-7.5 -4.5t-6.5 -21.5q-3 -9 -5 -16t-4 -12q-2 -6 -3 -11q-5 -5 -11 -2t-23 6q-17 0 -28 2t-31 2q-8 2 -16.5 2t-14.5 1q-8 0 -14 1q-5 0 -4 2.5t0 5.5q-3 3 -3 10q0 3 1 6q0 1 8.5 31.5t23 78.5t32 108
t35.5 122q16 55 30.5 107.5t25.5 94.5t17.5 69.5t6.5 33.5q4 14 8 14h13h26q-1 1 1 3q1 0 2 1q17 3 38.5 3.5t41.5 0.5q14 2 28 0t34 -6q5 -1 9 -1t23 -4q11 -3 21 -4.5t18 -2.5q9 -1 17 -1q5 0 5 -4q0 -2 -1 -3l-2 -5q5 -2 6 -3t2 -1q0 -1 1 -2t1.5 -2t2.5 -3zM316 203
q-2 69 -4.5 120.5t-6 91t-8.5 69.5t-11 57q-1 2 -1 -4q0 -3 -1 -7q-6 -26 -14 -53q-7 -23 -15.5 -53t-17.5 -60q-8 -31 -16.5 -59t-15.5 -50q-8 -26 -16 -48h4q21 -2 42 -3q18 -2 39.5 -2.5t39.5 -2.5q4 -3 2 4z" />
    <glyph glyph-name="Atilde" unicode="&#xc3;" 
d="M553 757q3 -6 4.5 -17t-1.5 -24.5t-11.5 -28.5t-26.5 -29q-5 -5 -15.5 -12.5t-26 -15.5t-34.5 -13.5t-41 -5.5q-14 0 -31.5 3.5t-36.5 14t-38 28.5t-37 48h-3q-11 18 -25 32q-12 12 -28 22t-34 10q-5 0 -10.5 -2t-10.5 -4q-23 -9 -36.5 -18.5t-21 -18t-10 -14.5t-2.5 -7
q-5 -13 -5 -24t4 -22t16 -21q2 -2 11.5 -9t11.5 -9q8 -12 3 -17q-2 -5 -8 -9.5t-12 0.5q-1 0 -9 3.5t-18.5 11t-20.5 18.5t-14 25q-2 11 -2.5 24.5t3.5 28.5t14 31t29 33q17 17 40 26t48 9q46 0 81 -35q16 -15 26.5 -28t17.5 -22q9 -8 15 -16.5t14 -15.5q22 -15 42 -23.5
t40 -8.5q33 0 79 29q9 8 16.5 17.5t13 18t8 16t0.5 10.5q-12 11 -38 11q-15 0 -32 -3t-31.5 -7.5t-25 -9t-13.5 -6.5q-7 -2 -12 -2t-10 0.5t-8 4.5q-2 2 -3.5 7.5t-1.5 9.5q0 14 9 19.5t20 10.5l15 5t27.5 8t31.5 7t28 3q21 0 34.5 -5t22 -12t13 -15t6.5 -15zM475 664
q8 -4 6 -6q-1 -1 -4 -2q-1 -1 -2 -1q-2 -2 -2 -3q8 -6 5.5 -13.5t-4.5 -12.5q-5 -15 -3.5 -19.5t-4.5 -14.5q0 -6 -6 -8q-3 -1 -5 -1q1 -3 4 -33t7 -75t8 -99.5t7 -107.5q2 -47 2.5 -91t-0.5 -77.5t-2.5 -54.5t-2.5 -22q-1 -20 -4 -23.5t-5 -3.5q-3 0 -12.5 1.5t-12.5 -1.5
q-2 0 -6.5 0.5t-20.5 3.5q-10 1 -21.5 0.5t-21.5 -1.5q-12 -1 -24 -3q-9 0 -10.5 1.5t-3.5 9.5q-5 6 -5.5 9.5t-1.5 6.5v5t2 11q-1 1 -1 5v9v12q-17 0 -35 1q-15 1 -34 1.5t-36 0.5q-14 2 -23.5 1.5t-16.5 -0.5q-8 -1 -14 -1t-7.5 -4.5t-6.5 -21.5q-3 -9 -5 -16t-4 -12
q-2 -6 -3 -11q-5 -5 -11 -2t-23 6q-17 0 -28 2t-31 2q-8 2 -16.5 2t-14.5 1q-8 0 -14 1q-5 0 -4 2.5t0 5.5q-3 3 -3 10q0 3 1 6q0 1 8.5 31.5t23 78.5t32 108t35.5 122q16 55 30.5 107.5t25.5 94.5t17.5 69.5t6.5 33.5q4 14 8 14h13h26q-1 1 1 3q1 0 2 1q17 3 38.5 3.5
t41.5 0.5q14 2 28 0t34 -6q5 -1 9 -1t23 -4q11 -3 21 -4.5t18 -2.5q9 -1 17 -1q5 0 5 -4q0 -2 -1 -3l-2 -5q5 -2 6 -3t2 -1q0 -1 1 -2t1.5 -2t2.5 -3zM316 203q-2 69 -4.5 120.5t-6 91t-8.5 69.5t-11 57q-1 2 -1 -4q0 -3 -1 -7q-6 -26 -14 -53q-7 -23 -15.5 -53t-17.5 -60
q-8 -31 -16.5 -59t-15.5 -50q-8 -26 -16 -48h4q21 -2 42 -3q18 -2 39.5 -2.5t39.5 -2.5q4 -3 2 4z" />
    <glyph glyph-name="Adieresis" unicode="&#xc4;" horiz-adv-x="498" 
d="M475 664q8 -4 6 -6q-1 -1 -4 -2q-1 -1 -2 -1q-2 -2 -2 -3q8 -6 5.5 -13.5t-4.5 -12.5q-5 -15 -3.5 -19.5t-4.5 -14.5q0 -6 -6 -8q-3 -1 -5 -1q1 -3 4 -33t7 -75t8 -99.5t7 -107.5q2 -47 2.5 -91t-0.5 -77.5t-2.5 -54.5t-2.5 -22q-1 -20 -4 -23.5t-5 -3.5q-3 0 -12.5 1.5
t-12.5 -1.5q-2 0 -6.5 0.5t-20.5 3.5q-10 1 -21.5 0.5t-21.5 -1.5q-12 -1 -24 -3q-9 0 -10.5 1.5t-3.5 9.5q-5 6 -5.5 9.5t-1.5 6.5v5t2 11q-1 1 -1 5v9v12q-17 0 -35 1q-15 1 -34 1.5t-36 0.5q-14 2 -23.5 1.5t-16.5 -0.5q-8 -1 -14 -1t-7.5 -4.5t-6.5 -21.5q-3 -9 -5 -16
t-4 -12q-2 -6 -3 -11q-5 -5 -11 -2t-23 6q-17 0 -28 2t-31 2q-8 2 -16.5 2t-14.5 1q-8 0 -14 1q-5 0 -4 2.5t0 5.5q-3 3 -3 10q0 3 1 6q0 1 8.5 31.5t23 78.5t32 108t35.5 122q16 55 30.5 107.5t25.5 94.5t17.5 69.5t6.5 33.5q4 14 8 14h13h26q-1 1 1 3q1 0 2 1
q17 3 38.5 3.5t41.5 0.5q14 2 28 0t34 -6q5 -1 9 -1t23 -4q11 -3 21 -4.5t18 -2.5q9 -1 17 -1q5 0 5 -4q0 -2 -1 -3l-2 -5q5 -2 6 -3t2 -1q0 -1 1 -2t1.5 -2t2.5 -3zM316 203q-2 69 -4.5 120.5t-6 91t-8.5 69.5t-11 57q-1 2 -1 -4q0 -3 -1 -7q-6 -26 -14 -53
q-7 -23 -15.5 -53t-17.5 -60q-8 -31 -16.5 -59t-15.5 -50q-8 -26 -16 -48h4q21 -2 42 -3q18 -2 39.5 -2.5t39.5 -2.5q4 -3 2 4zM136 837q0 7 1 14t8 7q9 0 19.5 2.5t17.5 0.5q8 -1 20.5 -0.5t26 1.5t27 2.5t24.5 2.5q10 0 14.5 -5t5.5 -13.5t0 -19t-2 -20.5q-2 -20 -3.5 -28
t-5.5 -24q-5 -16 -23 -16.5t-41 1.5h-74q-16 2 -18 15.5t0 24.5q1 5 2 14t1 18v23zM336 837q0 7 1 14t8 7q9 0 19.5 2.5t17.5 0.5q8 -1 20.5 -0.5t26 1.5t27 2.5t24.5 2.5q10 0 14.5 -5t5.5 -13.5t0 -19t-2 -20.5q-2 -20 -3.5 -28t-5.5 -24q-5 -16 -23 -16.5t-41 1.5h-74
q-16 2 -18 15.5t0 24.5q1 5 2 14t1 18v23z" />
    <glyph glyph-name="Ccedilla" unicode="&#xc7;" horiz-adv-x="476" 
d="M82 -26q45 12 93.5 14t87.5 -1t61.5 -8.5t16.5 -9.5q-3 -7 -12 -12q-4 -3 -9 -4q-5 -4 -8.5 -2t-7.5 2t-5 -2.5t-6 -2.5h-42q-4 -5 -6.5 -8t-14.5 -3q-8 4 -21.5 4.5t-36.5 0.5q-11 2 -25 3l-28 2q-16 1 -32 1q-1 3 -3 6q-2 2 -3.5 4.5t-3.5 4.5q-2 0 -3 1q-3 1 -3 5
q0 2 5 4q3 1 6 1zM236 145q2 2 -0.5 7t-3.5 9q-1 3 -1 6.5v5.5q0 3 1 6q10 42 22 86t23 79q21 63 26 111.5t2 82t-9.5 52t-6.5 20.5q-1 5 -3 7q-1 1 -3 1q-20 -73 -33 -133.5t-27 -108.5q-30 -112 -44 -176t-19 -96.5t-4 -41t1 -10.5q0 -3 7.5 -10t18.5 -7q33 5 68.5 6.5
t65.5 1.5t51 -0.5t26 -0.5q13 0 6 -9q-1 -1 -1 -3q0 -4 4 -5l2 -9q-4 -4 -1 -12q-4 2 -19 2.5t-32.5 0.5t-33.5 -0.5t-20 -0.5q-23 0 -36 -0.5t-21.5 -1t-16 -1t-20 -1t-33.5 -1t-57 -0.5q-29 0 -46 2t-27 4q-11 3 -16 6q-5 4 -13.5 19t-11.5 53q0 10 4.5 36.5t12 62.5
t17.5 79t21 86q25 101 56 223q0 4 2 13.5t4.5 19.5t5 18.5t3.5 12.5q3 3 5.5 11t4.5 16.5t4 15.5t4 7q-2 3 0.5 7.5t20.5 4.5q34 -2 57.5 -0.5t40 3t28 3.5t21.5 2q47 -4 76 -25.5t45 -52.5t21 -66.5t4.5 -66.5t-4 -54.5t-5.5 -29.5q-1 -7 -6 -28.5t-12 -49.5t-16 -59
t-16.5 -58t-13.5 -45.5t-8 -21.5q-6 1 -24.5 1t-39 -1.5t-37.5 -2.5t-20 -1q-7 -3 -14 -3t-7 3z" />
    <glyph glyph-name="Egrave" unicode="&#xc8;" 
d="M144 686l14 2q10 1 23 5q9 5 35 8t61 4.5t74.5 2t76 -0.5t66 -3t43.5 -5q1 -2 1 -7t-1.5 -12.5t-3.5 -20.5l-4.5 -21t-2.5 -11t-2 -6.5t-4 -6.5q-2 0 -1.5 -3.5t0.5 -7.5q0 -5 1 -11v-4q0 -2 -1 -4l-2 -4q-5 0 -5.5 -0.5t-0.5 -3.5q-2 -3 -3.5 -5t-15.5 -2.5t-46 0
t-94 3.5h-26t-30 -0.5t-26 -1t-12 -1.5q0 -2 -3 -22t-7 -43l-10 -62l46 2q8 -2 25 -1.5t35 0.5t34.5 -0.5t23.5 -3.5q20 -5 23 -9.5t3 -7.5q-2 -2 -2.5 -8.5t-1.5 -15t-1 -16v-10.5q0 -5 -3.5 -9t-6.5 -8q-3 0 -3.5 -5t-0.5 -11t-4.5 -18t-19.5 -14q-6 -2 -21.5 -3t-35.5 -1
t-41 0.5t-39 0t-30 -1.5t-13 -4q-2 -5 -7.5 -29.5t-12.5 -52.5q-8 -33 -17 -73q1 0 12 -0.5t26 -1.5t31.5 -1.5t28.5 -0.5q11 -2 32.5 -3t43 -2.5t39 -2t20.5 -0.5t-2.5 -7.5t-5.5 -13.5q0 -5 -2 -20t-6 -25q-3 -9 -4 -14t-4 -15q-5 -9 -5 -16t-3.5 -12t-14 -7.5t-35.5 -0.5
q-27 0 -56 1q-25 1 -55.5 1.5t-59.5 0.5q-46 4 -77.5 2t-36.5 -2q-4 0 -8 2q-3 2 -5.5 4t-2.5 7q2 3 -2 6t-8 3q-2 0 -4 7t1 17q3 4 3 8v8q0 3 2.5 4.5t2.5 8.5q9 34 18.5 80.5t19.5 98.5q8 34 16.5 70t15.5 73q6 34 11.5 69t13.5 66q4 34 8 62.5t8 48.5t9 30.5t11 9.5z
M380 846q5 -2 12.5 -10.5t16 -18.5t16 -20t12.5 -14q6 -3 0.5 -8t-15.5 -10.5t-20.5 -10t-15.5 -6.5q-7 -2 -15 -11t-16 -14q-8 -7 -14 -1.5t-9 10.5q-1 4 -10.5 14t-21 21t-23 21t-17.5 14q-12 8 -12.5 12t-0.5 6q0 5 12 10t16 10q2 7 17.5 12t26.5 17q6 7 12.5 7.5t12 -2
t9 -6.5t4.5 -7t5 -6t8 -5q4 -3 10 -4z" />
    <glyph glyph-name="Eacute" unicode="&#xc9;" 
d="M150 677q6 1 13 2q5 1 11.5 2t11.5 3q9 4 34.5 7t60 4.5t73 2t74.5 -0.5t64.5 -2.5t42.5 -4.5q1 -2 1 -7t-1.5 -12.5t-3.5 -20.5q-3 -14 -4.5 -20.5t-2.5 -10.5t-2 -6.5t-4 -6.5q-2 0 -1.5 -3.5t0.5 -7.5t1 -10v-4q0 -2 -1 -4l-2 -4q-5 0 -5 -4q-2 -3 -3.5 -5t-15.5 -2.5
t-45.5 0t-91.5 3.5h-26t-29 -0.5t-25 -1t-12 -1.5q0 -2 -3 -21.5t-7 -42.5l-10 -60h100q19 -4 38 -4.5t22 -0.5t-1.5 -2t-9.5 -2h-10.5t-15.5 0.5t-15 1t-8 2.5q-3 0 -2.5 -2t6.5 -2q4 0 12.5 -0.5t17 -2t16 -3t10.5 -2.5q6 -2 8 -3l8 -4q7 0 8 -3t1 -6q-3 -3 -3.5 -16.5
t-0.5 -19.5q0 -5 -3 -8.5t-6 -7.5q-3 0 -3.5 -5t-0.5 -11t-4.5 -17.5t-19.5 -13.5q-6 -2 -21 -3t-34.5 -1t-40 0.5t-38 0t-29.5 -1.5t-13 -4q-2 -5 -8 -29.5t-12 -51.5q-8 -33 -16 -71q1 0 12 -0.5t25.5 -1.5t30.5 -1.5t28 -0.5q10 -2 31 -3t42.5 -2.5t38.5 -2t20 -0.5
t-2.5 -7t-5.5 -13q0 -5 -2 -20t-6 -24q-3 -9 -4 -14t-4 -15q-4 -8 -4.5 -15t-4 -12t-13.5 -7.5t-34 -0.5q-28 0 -56 1q-25 1 -54 1.5t-58 0.5q-45 4 -76 2t-36 -2q-4 0 -8 2q-7 3 -7 11q2 3 -2 5.5t-8 2.5q-2 0 -4 7t1 17q3 4 3 8v3v5q0 3 2.5 4.5t2.5 7.5q9 33 18 79t19 97
q8 33 16.5 68.5t14.5 71.5q6 33 11.5 67.5t13.5 64.5q8 67 15.5 109t19.5 39zM324 848q2 5 10.5 12.5t18.5 16t19.5 16t14.5 12.5q3 6 8 0.5t10.5 -15.5t10 -20.5t6.5 -15.5q2 -7 11 -15t14 -16q7 -8 1.5 -14t-10.5 -9q-4 -1 -14 -10.5t-21 -21t-21 -23t-14 -17.5
q-8 -12 -12 -12.5t-6 -0.5q-5 0 -10 12t-10 16q-7 2 -12 17.5t-17 26.5q-7 6 -7.5 12.5t2 12t6.5 9t7 4.5t5.5 5t4.5 8q3 4 5 10z" />
    <glyph glyph-name="Ecircumflex" unicode="&#xca;" 
d="M194 765q3 0 15.5 -1t30.5 1q20 1 47.5 2t52.5 -1q14 0 31 0.5t32 2.5q18 1 35 3q2 2 10 1t19 1q5 0 5 -5q-1 -2 -1 -4q0 -4 3 -5q2 -2 3 -4t-1 -5q-2 -5 0.5 -9t2.5 -6q2 -4 -4 -4.5t-14 -0.5h-27q-4 1 -19.5 1h-34t-35 -0.5t-22.5 -0.5q-6 1 -21 1h-31.5h-30.5t-17 -1
q-9 -2 -22 -3t-15 3q-3 4 -3.5 3.5t-2.5 1.5q-5 6 -2.5 9t2.5 6q2 5 5.5 8.5l5.5 5.5h3zM144 686l14 2q10 1 23 5q9 5 35 8t61 4.5t74.5 2t76 -0.5t66 -3t43.5 -5q1 -2 1 -7t-1.5 -12.5t-3.5 -20.5l-4.5 -21t-2.5 -11t-2 -6.5t-4 -6.5q-2 0 -1.5 -3.5t0.5 -7.5q0 -5 1 -11
v-4q0 -2 -1 -4l-2 -4q-5 0 -5.5 -0.5t-0.5 -3.5q-2 -3 -3.5 -5t-15.5 -2.5t-46 0t-94 3.5h-26t-30 -0.5t-26 -1t-12 -1.5q0 -2 -3 -22t-7 -43l-10 -62l46 2q8 -2 25 -1.5t35 0.5t34.5 -0.5t23.5 -3.5q20 -5 23 -9.5t3 -7.5q-2 -2 -2.5 -8.5t-1.5 -15t-1 -16v-10.5
q0 -5 -3.5 -9t-6.5 -8q-3 0 -3.5 -5t-0.5 -11t-4.5 -18t-19.5 -14q-6 -2 -21.5 -3t-35.5 -1t-41 0.5t-39 0t-30 -1.5t-13 -4q-2 -5 -7.5 -29.5t-12.5 -52.5q-8 -33 -17 -73q1 0 12 -0.5t26 -1.5t31.5 -1.5t28.5 -0.5q11 -2 32.5 -3t43 -2.5t39 -2t20.5 -0.5t-2.5 -7.5
t-5.5 -13.5q0 -5 -2 -20t-6 -25q-3 -9 -4 -14t-4 -15q-5 -9 -5 -16t-3.5 -12t-14 -7.5t-35.5 -0.5q-27 0 -56 1q-25 1 -55.5 1.5t-59.5 0.5q-46 4 -77.5 2t-36.5 -2q-4 0 -8 2q-3 2 -5.5 4t-2.5 7q2 3 -2 6t-8 3q-2 0 -4 7t1 17q3 4 3 8v8q0 3 2.5 4.5t2.5 8.5
q9 34 18.5 80.5t19.5 98.5q8 34 16.5 70t15.5 73q6 34 11.5 69t13.5 66q4 34 8 62.5t8 48.5t9 30.5t11 9.5z" />
    <glyph glyph-name="Edieresis" unicode="&#xcb;" 
d="M144 686l14 2q10 1 23 5q9 5 35 8t61 4.5t74.5 2t76 -0.5t66 -3t43.5 -5q1 -2 1 -7t-1.5 -12.5t-3.5 -20.5l-4.5 -21t-2.5 -11t-2 -6.5t-4 -6.5q-2 0 -1.5 -3.5t0.5 -7.5q0 -5 1 -11v-4q0 -2 -1 -4l-2 -4q-5 0 -5.5 -0.5t-0.5 -3.5q-2 -3 -3.5 -5t-15.5 -2.5t-46 0
t-94 3.5h-26t-30 -0.5t-26 -1t-12 -1.5q0 -2 -3 -22t-7 -43l-10 -62l46 2q8 -2 25 -1.5t35 0.5t34.5 -0.5t23.5 -3.5q20 -5 23 -9.5t3 -7.5q-2 -2 -2.5 -8.5t-1.5 -15t-1 -16v-10.5q0 -5 -3.5 -9t-6.5 -8q-3 0 -3.5 -5t-0.5 -11t-4.5 -18t-19.5 -14q-6 -2 -21.5 -3t-35.5 -1
t-41 0.5t-39 0t-30 -1.5t-13 -4q-2 -5 -7.5 -29.5t-12.5 -52.5q-8 -33 -17 -73q1 0 12 -0.5t26 -1.5t31.5 -1.5t28.5 -0.5q11 -2 32.5 -3t43 -2.5t39 -2t20.5 -0.5t-2.5 -7.5t-5.5 -13.5q0 -5 -2 -20t-6 -25q-3 -9 -4 -14t-4 -15q-5 -9 -5 -16t-3.5 -12t-14 -7.5t-35.5 -0.5
q-27 0 -56 1q-25 1 -55.5 1.5t-59.5 0.5q-46 4 -77.5 2t-36.5 -2q-4 0 -8 2q-3 2 -5.5 4t-2.5 7q2 3 -2 6t-8 3q-2 0 -4 7t1 17q3 4 3 8v8q0 3 2.5 4.5t2.5 8.5q9 34 18.5 80.5t19.5 98.5q8 34 16.5 70t15.5 73q6 34 11.5 69t13.5 66q4 34 8 62.5t8 48.5t9 30.5t11 9.5z
M183 825q0 7 1 14t8 7q9 0 19.5 2.5t17.5 0.5q8 -1 20.5 -0.5t26 1.5t27 2.5t24.5 2.5q10 0 14.5 -5t5.5 -13.5t0 -19t-2 -20.5q-2 -20 -3.5 -28t-5.5 -24q-5 -16 -23 -16.5t-41 1.5h-74q-16 2 -18 15.5t0 24.5q1 5 2 14t1 18v23zM383 825q0 7 1 14t8 7q9 0 19.5 2.5
t17.5 0.5q8 -1 20.5 -0.5t26 1.5t27 2.5t24.5 2.5q10 0 14.5 -5t5.5 -13.5t0 -19t-2 -20.5q-2 -20 -3.5 -28t-5.5 -24q-5 -16 -23 -16.5t-41 1.5h-74q-16 2 -18 15.5t0 24.5q1 5 2 14t1 18v23z" />
    <glyph glyph-name="Igrave" unicode="&#xcc;" horiz-adv-x="266" 
d="M7 5q-10 10 -1.5 46.5t19.5 90.5q9 49 21 104.5t23 102.5t18.5 79.5t8.5 35.5q1 4 5 20.5t7.5 36.5t6 39t1.5 28t0 22t3 24q2 13 3 27q9 16 13 28.5t13 12.5q3 0 10.5 0.5t16.5 1l18 1t15 0.5q26 2 39.5 1.5t21.5 -1.5t11 -3q1 -9 3.5 -10.5t4.5 -2.5t2.5 -5.5
t-2.5 -18.5q0 -6 -2 -9.5t-2 -6.5q0 -4 0.5 -9t-1.5 -12q-5 -32 -20 -79q-6 -31 -12.5 -65.5t-17.5 -72.5q-15 -66 -30 -132.5t-27 -119.5t-19 -88t-7 -38q1 -8 -3.5 -16.5t-6.5 -11.5q0 -1 -1 -2t-8 -1q-19 3 -38 3t-34.5 -0.5t-27 -1.5t-15.5 -1q-6 -2 -8 0q-1 1 -1 3z
M224 857q5 -2 12.5 -10.5t16 -18.5t16 -20t12.5 -14q6 -3 0.5 -8t-15.5 -10.5t-20.5 -10t-15.5 -6.5q-7 -2 -15 -11t-16 -14q-8 -7 -14 -1.5t-9 10.5q-1 4 -10.5 14t-21 21t-23 21t-17.5 14q-12 8 -12.5 12t-0.5 6q0 5 12 10t16 10q2 7 17.5 12t26.5 17q6 7 12.5 7.5t12 -2
t9 -6.5t4.5 -7t5 -6t8 -5q4 -3 10 -4z" />
    <glyph glyph-name="Iacute" unicode="&#xcd;" horiz-adv-x="272" 
d="M7 5q-10 10 -1.5 46.5t19.5 90.5q9 49 21 104.5t23 102.5t18.5 79.5t8.5 35.5q1 4 5 20.5t7.5 36.5t6 39t1.5 28t0 22t3 24q2 13 3 27q9 16 13 28.5t13 12.5q3 0 10.5 0.5t16.5 1l18 1t15 0.5q26 2 39.5 1.5t21.5 -1.5t11 -3q1 -9 3.5 -10.5t4.5 -2.5t2.5 -5.5
t-2.5 -18.5q0 -6 -2 -9.5t-2 -6.5q0 -4 0.5 -9t-1.5 -12q-5 -32 -20 -79q-6 -31 -12.5 -65.5t-17.5 -72.5q-15 -66 -30 -132.5t-27 -119.5t-19 -88t-7 -38q1 -8 -3.5 -16.5t-6.5 -11.5q0 -1 -1 -2t-8 -1q-19 3 -38 3t-34.5 -0.5t-27 -1.5t-15.5 -1q-6 -2 -8 0q-1 1 -1 3z
M235 842q2 5 10.5 12.5t18.5 16t19.5 16t14.5 12.5q3 6 8 0.5t10.5 -15.5t10 -20.5t6.5 -15.5q2 -7 11 -15t14 -16q7 -8 1.5 -14t-10.5 -9q-4 -1 -14 -10.5t-21 -21t-21 -23t-14 -17.5q-8 -12 -12 -12.5t-6 -0.5q-5 0 -10 12t-10 16q-7 2 -12 17.5t-17 26.5q-7 6 -7.5 12.5
t2 12t6.5 9t7 4.5t5.5 5t4.5 8q3 4 5 10z" />
    <glyph glyph-name="Icircumflex" unicode="&#xce;" horiz-adv-x="266" 
d="M56 765q3 0 15.5 -1t30.5 1q20 1 47.5 2t52.5 -1q14 0 31 0.5t32 2.5q18 1 35 3q2 2 10 1t19 1q5 0 5 -5q-1 -2 -1 -4q0 -4 3 -5q2 -2 3 -4t-1 -5q-2 -5 0.5 -9t2.5 -6q2 -4 -4 -4.5t-14 -0.5h-27q-4 1 -19.5 1h-34t-35 -0.5t-22.5 -0.5q-6 1 -21 1h-31.5h-30.5t-17 -1
q-9 -2 -22 -3t-15 3q-3 4 -3.5 3.5t-2.5 1.5q-5 6 -2.5 9t2.5 6q2 5 5.5 8.5l5.5 5.5h3zM7 5q-10 10 -1.5 46.5t19.5 90.5q9 49 21 104.5t23 102.5t18.5 79.5t8.5 35.5q1 4 5 20.5t7.5 36.5t6 39t1.5 28t0 22t3 24q2 13 3 27q9 16 13 28.5t13 12.5q3 0 10.5 0.5t16.5 1l18 1
t15 0.5q26 2 39.5 1.5t21.5 -1.5t11 -3q1 -9 3.5 -10.5t4.5 -2.5t2.5 -5.5t-2.5 -18.5q0 -6 -2 -9.5t-2 -6.5q0 -4 0.5 -9t-1.5 -12q-5 -32 -20 -79q-6 -31 -12.5 -65.5t-17.5 -72.5q-15 -66 -30 -132.5t-27 -119.5t-19 -88t-7 -38q1 -8 -3.5 -16.5t-6.5 -11.5q0 -1 -1 -2
t-8 -1q-19 3 -38 3t-34.5 -0.5t-27 -1.5t-15.5 -1q-6 -2 -8 0q-1 1 -1 3z" />
    <glyph glyph-name="Idieresis" unicode="&#xcf;" horiz-adv-x="266" 
d="M7 5q-10 10 -1.5 46.5t19.5 90.5q9 49 21 104.5t23 102.5t18.5 79.5t8.5 35.5q1 4 5 20.5t7.5 36.5t6 39t1.5 28t0 22t3 24q2 13 3 27q9 16 13 28.5t13 12.5q3 0 10.5 0.5t16.5 1l18 1t15 0.5q26 2 39.5 1.5t21.5 -1.5t11 -3q1 -9 3.5 -10.5t4.5 -2.5t2.5 -5.5
t-2.5 -18.5q0 -6 -2 -9.5t-2 -6.5q0 -4 0.5 -9t-1.5 -12q-5 -32 -20 -79q-6 -31 -12.5 -65.5t-17.5 -72.5q-15 -66 -30 -132.5t-27 -119.5t-19 -88t-7 -38q1 -8 -3.5 -16.5t-6.5 -11.5q0 -1 -1 -2t-8 -1q-19 3 -38 3t-34.5 -0.5t-27 -1.5t-15.5 -1q-6 -2 -8 0q-1 1 -1 3z
M41 834q0 7 1 14t8 7q9 0 19.5 2.5t17.5 0.5q8 -1 20.5 -0.5t26 1.5t27 2.5t24.5 2.5q10 0 14.5 -5t5.5 -13.5t0 -19t-2 -20.5q-2 -20 -3.5 -28t-5.5 -24q-5 -16 -23 -16.5t-41 1.5h-74q-16 2 -18 15.5t0 24.5q1 5 2 14t1 18v23zM241 834q0 7 1 14t8 7q9 0 19.5 2.5
t17.5 0.5q8 -1 20.5 -0.5t26 1.5t27 2.5t24.5 2.5q10 0 14.5 -5t5.5 -13.5t0 -19t-2 -20.5q-2 -20 -3.5 -28t-5.5 -24q-5 -16 -23 -16.5t-41 1.5h-74q-16 2 -18 15.5t0 24.5q1 5 2 14t1 18v23z" />
    <glyph glyph-name="Ntilde" unicode="&#xd1;" horiz-adv-x="445" 
d="M517 785q3 -6 4.5 -17t-1.5 -24.5t-11.5 -28.5t-26.5 -29q-5 -5 -15.5 -12.5t-26 -15.5t-34.5 -13.5t-41 -5.5q-14 0 -31.5 3.5t-36.5 14t-38 28.5t-37 48h-3q-11 18 -25 32q-12 12 -28 22t-34 10q-5 0 -10.5 -2t-10.5 -4q-23 -9 -36.5 -18.5t-21 -18t-10 -14.5t-2.5 -7
q-5 -13 -5 -24t4 -22t16 -21q2 -2 11.5 -9t11.5 -9q8 -12 3 -17q-2 -5 -8 -9.5t-12 0.5q-1 0 -9 3.5t-18.5 11t-20.5 18.5t-14 25q-2 11 -2.5 24.5t3.5 28.5t14 31t29 33q17 17 40 26t48 9q46 0 81 -35q16 -15 26.5 -28t17.5 -22q9 -8 15 -16.5t14 -15.5q22 -15 42 -23.5
t40 -8.5q33 0 79 29q9 8 16.5 17.5t13 18t8 16t0.5 10.5q-12 11 -38 11q-15 0 -32 -3t-31.5 -7.5t-25 -9t-13.5 -6.5q-7 -2 -12 -2t-10 0.5t-8 4.5q-2 2 -3.5 7.5t-1.5 9.5q0 14 9 19.5t20 10.5l15 5t27.5 8t31.5 7t28 3q21 0 34.5 -5t22 -12t13 -15t6.5 -15zM1 18
q0 4 2.5 32.5t7.5 72.5t11.5 99t14.5 114q10 61 20.5 120.5t19.5 106.5t15 77t8 32q-1 6 2.5 8.5t9 3t13 1.5t14.5 4q2 3 14 4t26 3q9 2 21 7.5t21 0.5q4 -3 7.5 -27t6 -53.5t4.5 -57t3 -36.5q0 -5 2.5 -20t5.5 -36.5t7 -47.5l8 -52q10 -62 22 -137q0 2 2.5 23.5t8.5 56.5
q5 60 15 125t21 119q12 63 27 124q2 8 9 6.5t16 1.5q2 0 9.5 1t16.5 -1q9 0 20.5 2t23.5 4q5 0 8.5 -2.5t5.5 -4.5q2 -4 2 -7q-3 -17 -9.5 -36.5t-12.5 -48.5q-9 -46 -19 -105.5t-19.5 -122t-18.5 -124t-15.5 -112t-10.5 -84.5t-4 -43q-2 -9 -10.5 -11.5t-13.5 -2.5
q-5 1 -17 0.5t-24.5 -0.5t-23.5 1.5t-12 5.5q-1 5 -10 4.5t-14 -0.5q-6 0 -8.5 2.5t-7.5 9.5q-2 5 -6 24.5t-9 48t-10.5 63t-11.5 69.5q-13 83 -29 185q-2 -7 -7 -31.5t-11 -58t-12 -73.5t-11 -77q-3 -28 -4.5 -53t-3 -44.5t-2 -32t-0.5 -14.5q-1 -2 -2 -6t-2.5 -7t-5 -5
t-9.5 0q-4 -2 -13.5 -3t-19.5 -1q-12 -1 -26 0q-11 -2 -16.5 0t-7.5 6q-3 4 -2 10z" />
    <glyph glyph-name="Ograve" unicode="&#xd2;" horiz-adv-x="430" 
d="M401 699q24 -13 36.5 -36.5t17 -54t2.5 -66t-6 -72.5q-5 -60 -18.5 -128.5t-39 -131.5t-64.5 -115.5t-93 -80.5q-12 -6 -29.5 -9.5t-35 -5t-32 -1.5h-19.5q-3 -2 -8 -2.5t-7 -0.5q-13 0 -23.5 5.5t-17.5 13.5q-35 27 -49 73.5t-13 102.5t14.5 117t34.5 117
q13 46 33.5 89.5t44.5 79.5t49.5 62t48.5 36h7q6 0 18 2.5t23 5.5q12 0 22.5 0.5t18.5 2.5h19q9 0 15.5 2t11.5 2q18 0 27 -2.5t12 -4.5zM158 68q21 21 41 50q17 25 36.5 62t35.5 87q23 69 38 136q6 28 11 59t7.5 61t1 58t-8.5 52q-3 -1 -6 -3q-2 -2 -4.5 -3t-3.5 -2
q-14 -11 -38.5 -43t-50.5 -78.5t-49 -103t-34.5 -115t-7.5 -115t32 -102.5zM310 842q5 -2 12.5 -10.5t16 -18.5t16 -20t12.5 -14q6 -3 0.5 -8t-15.5 -10.5t-20.5 -10t-15.5 -6.5q-7 -2 -15 -11t-16 -14q-8 -7 -14 -1.5t-9 10.5q-1 4 -10.5 14t-21 21t-23 21t-17.5 14
q-12 8 -12.5 12t-0.5 6q0 5 12 10t16 10q2 7 17.5 12t26.5 17q6 7 12.5 7.5t12 -2t9 -6.5t4.5 -7t5 -6t8 -5q4 -3 10 -4z" />
    <glyph glyph-name="Oacute" unicode="&#xd3;" horiz-adv-x="435" 
d="M401 699q24 -13 36.5 -36.5t17 -54t2.5 -66t-6 -72.5q-5 -60 -18.5 -128.5t-39 -131.5t-64.5 -115.5t-93 -80.5q-12 -6 -29.5 -9.5t-35 -5t-32 -1.5h-19.5q-3 -2 -8 -2.5t-7 -0.5q-13 0 -23.5 5.5t-17.5 13.5q-35 27 -49 73.5t-13 102.5t14.5 117t34.5 117
q13 46 33.5 89.5t44.5 79.5t49.5 62t48.5 36h7q6 0 18 2.5t23 5.5q12 0 22.5 0.5t18.5 2.5h19q9 0 15.5 2t11.5 2q18 0 27 -2.5t12 -4.5zM158 68q21 21 41 50q17 25 36.5 62t35.5 87q23 69 38 136q6 28 11 59t7.5 61t1 58t-8.5 52q-3 -1 -6 -3q-2 -2 -4.5 -3t-3.5 -2
q-14 -11 -38.5 -43t-50.5 -78.5t-49 -103t-34.5 -115t-7.5 -115t32 -102.5zM287 847q2 5 10.5 12.5t18.5 16t19.5 16t14.5 12.5q3 6 8 0.5t10.5 -15.5t10 -20.5t6.5 -15.5q2 -7 11 -15t14 -16q7 -8 1.5 -14t-10.5 -9q-4 -1 -14 -10.5t-21 -21t-21 -23t-14 -17.5
q-8 -12 -12 -12.5t-6 -0.5q-5 0 -10 12t-10 16q-7 2 -12 17.5t-17 26.5q-7 6 -7.5 12.5t2 12t6.5 9t7 4.5t5.5 5t4.5 8q3 4 5 10z" />
    <glyph glyph-name="Ocircumflex" unicode="&#xd4;" horiz-adv-x="430" 
d="M188 765q3 0 15.5 -1t30.5 1q20 1 47.5 2t52.5 -1q14 0 31 0.5t32 2.5q18 1 35 3q2 2 10 1t19 1q5 0 5 -5q-1 -2 -1 -4q0 -4 3 -5q2 -2 3 -4t-1 -5q-2 -5 0.5 -9t2.5 -6q2 -4 -4 -4.5t-14 -0.5h-27q-4 1 -19.5 1h-34t-35 -0.5t-22.5 -0.5q-6 1 -21 1h-31.5h-30.5t-17 -1
q-9 -2 -22 -3t-15 3q-3 4 -3.5 3.5t-2.5 1.5q-5 6 -2.5 9t2.5 6q2 5 5.5 8.5l5.5 5.5h3zM401 699q24 -13 36.5 -36.5t17 -54t2.5 -66t-6 -72.5q-5 -60 -18.5 -128.5t-39 -131.5t-64.5 -115.5t-93 -80.5q-12 -6 -29.5 -9.5t-35 -5t-32 -1.5h-19.5q-3 -2 -8 -2.5t-7 -0.5
q-13 0 -23.5 5.5t-17.5 13.5q-35 27 -49 73.5t-13 102.5t14.5 117t34.5 117q13 46 33.5 89.5t44.5 79.5t49.5 62t48.5 36h7q6 0 18 2.5t23 5.5q12 0 22.5 0.5t18.5 2.5h19q9 0 15.5 2t11.5 2q18 0 27 -2.5t12 -4.5zM158 68q21 21 41 50q17 25 36.5 62t35.5 87q23 69 38 136
q6 28 11 59t7.5 61t1 58t-8.5 52q-3 -1 -6 -3q-2 -2 -4.5 -3t-3.5 -2q-14 -11 -38.5 -43t-50.5 -78.5t-49 -103t-34.5 -115t-7.5 -115t32 -102.5z" />
    <glyph glyph-name="Otilde" unicode="&#xd5;" horiz-adv-x="430" 
d="M563 753q3 -6 4.5 -17t-1.5 -24.5t-11.5 -28.5t-26.5 -29q-5 -5 -15.5 -12.5t-26 -15.5t-34.5 -13.5t-41 -5.5q-14 0 -31.5 3.5t-36.5 14t-38 28.5t-37 48h-3q-11 18 -25 32q-12 12 -28 22t-34 10q-5 0 -10.5 -2t-10.5 -4q-23 -9 -36.5 -18.5t-21 -18t-10 -14.5t-2.5 -7
q-5 -13 -5 -24t4 -22t16 -21q2 -2 11.5 -9t11.5 -9q8 -12 3 -17q-2 -5 -8 -9.5t-12 0.5q-1 0 -9 3.5t-18.5 11t-20.5 18.5t-14 25q-2 11 -2.5 24.5t3.5 28.5t14 31t29 33q17 17 40 26t48 9q46 0 81 -35q16 -15 26.5 -28t17.5 -22q9 -8 15 -16.5t14 -15.5q22 -15 42 -23.5
t40 -8.5q33 0 79 29q9 8 16.5 17.5t13 18t8 16t0.5 10.5q-12 11 -38 11q-15 0 -32 -3t-31.5 -7.5t-25 -9t-13.5 -6.5q-7 -2 -12 -2t-10 0.5t-8 4.5q-2 2 -3.5 7.5t-1.5 9.5q0 14 9 19.5t20 10.5l15 5t27.5 8t31.5 7t28 3q21 0 34.5 -5t22 -12t13 -15t6.5 -15zM401 699
q24 -13 36.5 -36.5t17 -54t2.5 -66t-6 -72.5q-5 -60 -18.5 -128.5t-39 -131.5t-64.5 -115.5t-93 -80.5q-12 -6 -29.5 -9.5t-35 -5t-32 -1.5h-19.5q-3 -2 -8 -2.5t-7 -0.5q-13 0 -23.5 5.5t-17.5 13.5q-35 27 -49 73.5t-13 102.5t14.5 117t34.5 117q13 46 33.5 89.5
t44.5 79.5t49.5 62t48.5 36h7q6 0 18 2.5t23 5.5q12 0 22.5 0.5t18.5 2.5h19q9 0 15.5 2t11.5 2q18 0 27 -2.5t12 -4.5zM158 68q21 21 41 50q17 25 36.5 62t35.5 87q23 69 38 136q6 28 11 59t7.5 61t1 58t-8.5 52q-3 -1 -6 -3q-2 -2 -4.5 -3t-3.5 -2q-14 -11 -38.5 -43
t-50.5 -78.5t-49 -103t-34.5 -115t-7.5 -115t32 -102.5z" />
    <glyph glyph-name="Odieresis" unicode="&#xd6;" horiz-adv-x="435" 
d="M401 699q24 -13 36.5 -36.5t17 -54t2.5 -66t-6 -72.5q-5 -60 -18.5 -128.5t-39 -131.5t-64.5 -115.5t-93 -80.5q-12 -6 -29.5 -9.5t-35 -5t-32 -1.5h-19.5q-3 -2 -8 -2.5t-7 -0.5q-13 0 -23.5 5.5t-17.5 13.5q-35 27 -49 73.5t-13 102.5t14.5 117t34.5 117
q13 46 33.5 89.5t44.5 79.5t49.5 62t48.5 36h7q6 0 18 2.5t23 5.5q12 0 22.5 0.5t18.5 2.5h19q9 0 15.5 2t11.5 2q18 0 27 -2.5t12 -4.5zM158 68q21 21 41 50q17 25 36.5 62t35.5 87q23 69 38 136q6 28 11 59t7.5 61t1 58t-8.5 52q-3 -1 -6 -3q-2 -2 -4.5 -3t-3.5 -2
q-14 -11 -38.5 -43t-50.5 -78.5t-49 -103t-34.5 -115t-7.5 -115t32 -102.5zM121 837q0 7 1 14t8 7q9 0 19.5 2.5t17.5 0.5q8 -1 20.5 -0.5t26 1.5t27 2.5t24.5 2.5q10 0 14.5 -5t5.5 -13.5t0 -19t-2 -20.5q-2 -20 -3.5 -28t-5.5 -24q-5 -16 -23 -16.5t-41 1.5h-74
q-16 2 -18 15.5t0 24.5q1 5 2 14t1 18v23zM321 837q0 7 1 14t8 7q9 0 19.5 2.5t17.5 0.5q8 -1 20.5 -0.5t26 1.5t27 2.5t24.5 2.5q10 0 14.5 -5t5.5 -13.5t0 -19t-2 -20.5q-2 -20 -3.5 -28t-5.5 -24q-5 -16 -23 -16.5t-41 1.5h-74q-16 2 -18 15.5t0 24.5q1 5 2 14t1 18v23z
" />
    <glyph glyph-name="Ugrave" unicode="&#xd9;" horiz-adv-x="407" 
d="M428 695q8 -7 7.5 -28t-5 -47.5t-10 -54.5t-7.5 -47q-9 -76 -20.5 -157t-30.5 -151.5t-48 -121.5t-72 -66q-16 -15 -64 -15h-12q-5 -3 -18 -3.5t-22 -0.5h9q-18 0 -34 8t-29.5 20.5t-23.5 28.5t-16 33q-19 44 -25 100.5t-4 116t10 117.5t17.5 105.5t18 79.5t11.5 40
q6 20 14.5 28t20 10.5t25.5 3t31 5.5h8q3 3 6 3.5t9 0.5t11 -2.5t5 -5.5q6 -8 6 -18.5t-6 -28.5q-40 -148 -51 -250t-7 -168t16.5 -100.5t21.5 -47.5q20 18 35.5 50t27.5 73t21 88t15.5 93.5t11.5 90.5t9 80q2 42 5 71.5t6 47.5q3 17 20 20t33 3q5 0 13.5 0.5t17.5 3.5
q5 0 10.5 2t9.5 2q17 0 23 -12zM277 836q5 -2 12.5 -10.5t16 -18.5t16 -20t12.5 -14q6 -3 0.5 -8t-15.5 -10.5t-20.5 -10t-15.5 -6.5q-7 -2 -15 -11t-16 -14q-8 -7 -14 -1.5t-9 10.5q-1 4 -10.5 14t-21 21t-23 21t-17.5 14q-12 8 -12.5 12t-0.5 6q0 5 12 10t16 10
q2 7 17.5 12t26.5 17q6 7 12.5 7.5t12 -2t9 -6.5t4.5 -7t5 -6t8 -5q4 -3 10 -4z" />
    <glyph glyph-name="Uacute" unicode="&#xda;" horiz-adv-x="452" 
d="M428 695q8 -7 7.5 -28t-5 -47.5t-10 -54.5t-7.5 -47q-9 -76 -20.5 -157t-30.5 -151.5t-48 -121.5t-72 -66q-16 -15 -64 -15h-12q-5 -3 -18 -3.5t-22 -0.5h9q-18 0 -34 8t-29.5 20.5t-23.5 28.5t-16 33q-19 44 -25 100.5t-4 116t10 117.5t17.5 105.5t18 79.5t11.5 40
q6 20 14.5 28t20 10.5t25.5 3t31 5.5h8q3 3 6 3.5t9 0.5t11 -2.5t5 -5.5q6 -8 6 -18.5t-6 -28.5q-40 -148 -51 -250t-7 -168t16.5 -100.5t21.5 -47.5q20 18 35.5 50t27.5 73t21 88t15.5 93.5t11.5 90.5t9 80q2 42 5 71.5t6 47.5q3 17 20 20t33 3q5 0 13.5 0.5t17.5 3.5
q5 0 10.5 2t9.5 2q17 0 23 -12zM271 851q2 5 10.5 12.5t18.5 16t19.5 16t14.5 12.5q3 6 8 0.5t10.5 -15.5t10 -20.5t6.5 -15.5q2 -7 11 -15t14 -16q7 -8 1.5 -14t-10.5 -9q-4 -1 -14 -10.5t-21 -21t-21 -23t-14 -17.5q-8 -12 -12 -12.5t-6 -0.5q-5 0 -10 12t-10 16
q-7 2 -12 17.5t-17 26.5q-7 6 -7.5 12.5t2 12t6.5 9t7 4.5t5.5 5t4.5 8q3 4 5 10z" />
    <glyph glyph-name="Ucircumflex" unicode="&#xdb;" horiz-adv-x="407" 
d="M127 765q3 0 15.5 -1t30.5 1q20 1 47.5 2t52.5 -1q14 0 31 0.5t32 2.5q18 1 35 3q2 2 10 1t19 1q5 0 5 -5q-1 -2 -1 -4q0 -4 3 -5q2 -2 3 -4t-1 -5q-2 -5 0.5 -9t2.5 -6q2 -4 -4 -4.5t-14 -0.5h-27q-4 1 -19.5 1h-34t-35 -0.5t-22.5 -0.5q-6 1 -21 1h-31.5h-30.5t-17 -1
q-9 -2 -22 -3t-15 3q-3 4 -3.5 3.5t-2.5 1.5q-5 6 -2.5 9t2.5 6q2 5 5.5 8.5l5.5 5.5h3zM428 695q8 -7 7.5 -28t-5 -47.5t-10 -54.5t-7.5 -47q-9 -76 -20.5 -157t-30.5 -151.5t-48 -121.5t-72 -66q-16 -15 -64 -15h-12q-5 -3 -18 -3.5t-22 -0.5h9q-18 0 -34 8t-29.5 20.5
t-23.5 28.5t-16 33q-19 44 -25 100.5t-4 116t10 117.5t17.5 105.5t18 79.5t11.5 40q6 20 14.5 28t20 10.5t25.5 3t31 5.5h8q3 3 6 3.5t9 0.5t11 -2.5t5 -5.5q6 -8 6 -18.5t-6 -28.5q-40 -148 -51 -250t-7 -168t16.5 -100.5t21.5 -47.5q20 18 35.5 50t27.5 73t21 88
t15.5 93.5t11.5 90.5t9 80q2 42 5 71.5t6 47.5q3 17 20 20t33 3q5 0 13.5 0.5t17.5 3.5q5 0 10.5 2t9.5 2q17 0 23 -12z" />
    <glyph glyph-name="Udieresis" unicode="&#xdc;" horiz-adv-x="452" 
d="M428 695q8 -7 7.5 -28t-5 -47.5t-10 -54.5t-7.5 -47q-9 -76 -20.5 -157t-30.5 -151.5t-48 -121.5t-72 -66q-16 -15 -64 -15h-12q-5 -3 -18 -3.5t-22 -0.5h9q-18 0 -34 8t-29.5 20.5t-23.5 28.5t-16 33q-19 44 -25 100.5t-4 116t10 117.5t17.5 105.5t18 79.5t11.5 40
q6 20 14.5 28t20 10.5t25.5 3t31 5.5h8q3 3 6 3.5t9 0.5t11 -2.5t5 -5.5q6 -8 6 -18.5t-6 -28.5q-40 -148 -51 -250t-7 -168t16.5 -100.5t21.5 -47.5q20 18 35.5 50t27.5 73t21 88t15.5 93.5t11.5 90.5t9 80q2 42 5 71.5t6 47.5q3 17 20 20t33 3q5 0 13.5 0.5t17.5 3.5
q5 0 10.5 2t9.5 2q17 0 23 -12zM117 825q0 7 1 14t8 7q9 0 19.5 2.5t17.5 0.5q8 -1 20.5 -0.5t26 1.5t27 2.5t24.5 2.5q10 0 14.5 -5t5.5 -13.5t0 -19t-2 -20.5q-2 -20 -3.5 -28t-5.5 -24q-5 -16 -23 -16.5t-41 1.5h-74q-16 2 -18 15.5t0 24.5q1 5 2 14t1 18v23zM317 825
q0 7 1 14t8 7q9 0 19.5 2.5t17.5 0.5q8 -1 20.5 -0.5t26 1.5t27 2.5t24.5 2.5q10 0 14.5 -5t5.5 -13.5t0 -19t-2 -20.5q-2 -20 -3.5 -28t-5.5 -24q-5 -16 -23 -16.5t-41 1.5h-74q-16 2 -18 15.5t0 24.5q1 5 2 14t1 18v23z" />
    <glyph glyph-name="agrave" unicode="&#xe0;" 
d="M475 664q8 -4 6 -6q-1 -1 -4 -2q-1 -1 -2 -1q-2 -2 -2 -3q8 -6 5.5 -13.5t-4.5 -12.5q-5 -15 -3.5 -19.5t-4.5 -14.5q0 -6 -6 -8q-3 -1 -5 -1q1 -3 4 -33t7 -75t8 -99.5t7 -107.5q2 -47 2.5 -91t-0.5 -77.5t-2.5 -54.5t-2.5 -22q-1 -20 -4 -23.5t-5 -3.5q-3 0 -12.5 1.5
t-12.5 -1.5q-2 0 -6.5 0.5t-20.5 3.5q-10 1 -21.5 0.5t-21.5 -1.5q-12 -1 -24 -3q-9 0 -10.5 1.5t-3.5 9.5q-5 6 -5.5 9.5t-1.5 6.5v5t2 11q-1 1 -1 5v9v12q-17 0 -35 1q-15 1 -34 1.5t-36 0.5q-14 2 -23.5 1.5t-16.5 -0.5q-8 -1 -14 -1t-7.5 -4.5t-6.5 -21.5q-3 -9 -5 -16
t-4 -12q-2 -6 -3 -11q-5 -5 -11 -2t-23 6q-17 0 -28 2t-31 2q-8 2 -16.5 2t-14.5 1q-8 0 -14 1q-5 0 -4 2.5t0 5.5q-3 3 -3 10q0 3 1 6q0 1 8.5 31.5t23 78.5t32 108t35.5 122q16 55 30.5 107.5t25.5 94.5t17.5 69.5t6.5 33.5q4 14 8 14h13h26q-1 1 1 3q1 0 2 1
q17 3 38.5 3.5t41.5 0.5q14 2 28 0t34 -6q5 -1 9 -1t23 -4q11 -3 21 -4.5t18 -2.5q9 -1 17 -1q5 0 5 -4q0 -2 -1 -3l-2 -5q5 -2 6 -3t2 -1q0 -1 1 -2t1.5 -2t2.5 -3zM316 203q-2 69 -4.5 120.5t-6 91t-8.5 69.5t-11 57q-1 2 -1 -4q0 -3 -1 -7q-6 -26 -14 -53
q-7 -23 -15.5 -53t-17.5 -60q-8 -31 -16.5 -59t-15.5 -50q-8 -26 -16 -48h4q21 -2 42 -3q18 -2 39.5 -2.5t39.5 -2.5q4 -3 2 4zM351 863q5 -2 12.5 -10.5t16 -18.5t16 -20t12.5 -14q6 -3 0.5 -8t-15.5 -10.5t-20.5 -10t-15.5 -6.5q-7 -2 -15 -11t-16 -14q-8 -7 -14 -1.5
t-9 10.5q-1 4 -10.5 14t-21 21t-23 21t-17.5 14q-12 8 -12.5 12t-0.5 6q0 5 12 10t16 10q2 7 17.5 12t26.5 17q6 7 12.5 7.5t12 -2t9 -6.5t4.5 -7t5 -6t8 -5q4 -3 10 -4z" />
    <glyph glyph-name="aacute" unicode="&#xe1;" horiz-adv-x="498" 
d="M475 664q8 -4 6 -6q-1 -1 -4 -2q-1 -1 -2 -1q-2 -2 -2 -3q8 -6 5.5 -13.5t-4.5 -12.5q-5 -15 -3.5 -19.5t-4.5 -14.5q0 -6 -6 -8q-3 -1 -5 -1q1 -3 4 -33t7 -75t8 -99.5t7 -107.5q2 -47 2.5 -91t-0.5 -77.5t-2.5 -54.5t-2.5 -22q-1 -20 -4 -23.5t-5 -3.5q-3 0 -12.5 1.5
t-12.5 -1.5q-2 0 -6.5 0.5t-20.5 3.5q-10 1 -21.5 0.5t-21.5 -1.5q-12 -1 -24 -3q-9 0 -10.5 1.5t-3.5 9.5q-5 6 -5.5 9.5t-1.5 6.5v5t2 11q-1 1 -1 5v9v12q-17 0 -35 1q-15 1 -34 1.5t-36 0.5q-14 2 -23.5 1.5t-16.5 -0.5q-8 -1 -14 -1t-7.5 -4.5t-6.5 -21.5q-3 -9 -5 -16
t-4 -12q-2 -6 -3 -11q-5 -5 -11 -2t-23 6q-17 0 -28 2t-31 2q-8 2 -16.5 2t-14.5 1q-8 0 -14 1q-5 0 -4 2.5t0 5.5q-3 3 -3 10q0 3 1 6q0 1 8.5 31.5t23 78.5t32 108t35.5 122q16 55 30.5 107.5t25.5 94.5t17.5 69.5t6.5 33.5q4 14 8 14h13h26q-1 1 1 3q1 0 2 1
q17 3 38.5 3.5t41.5 0.5q14 2 28 0t34 -6q5 -1 9 -1t23 -4q11 -3 21 -4.5t18 -2.5q9 -1 17 -1q5 0 5 -4q0 -2 -1 -3l-2 -5q5 -2 6 -3t2 -1q0 -1 1 -2t1.5 -2t2.5 -3zM316 203q-2 69 -4.5 120.5t-6 91t-8.5 69.5t-11 57q-1 2 -1 -4q0 -3 -1 -7q-6 -26 -14 -53
q-7 -23 -15.5 -53t-17.5 -60q-8 -31 -16.5 -59t-15.5 -50q-8 -26 -16 -48h4q21 -2 42 -3q18 -2 39.5 -2.5t39.5 -2.5q4 -3 2 4zM305 847q2 5 10.5 12.5t18.5 16t19.5 16t14.5 12.5q3 6 8 0.5t10.5 -15.5t10 -20.5t6.5 -15.5q2 -7 11 -15t14 -16q7 -8 1.5 -14t-10.5 -9
q-4 -1 -14 -10.5t-21 -21t-21 -23t-14 -17.5q-8 -12 -12 -12.5t-6 -0.5q-5 0 -10 12t-10 16q-7 2 -12 17.5t-17 26.5q-7 6 -7.5 12.5t2 12t6.5 9t7 4.5t5.5 5t4.5 8q3 4 5 10z" />
    <glyph glyph-name="acircumflex" unicode="&#xe2;" horiz-adv-x="519" 
d="M185 765q3 0 15.5 -1t30.5 1q20 1 47.5 2t52.5 -1q14 0 31 0.5t32 2.5q18 1 35 3q2 2 10 1t19 1q5 0 5 -5q-1 -2 -1 -4q0 -4 3 -5q2 -2 3 -4t-1 -5q-2 -5 0.5 -9t2.5 -6q2 -4 -4 -4.5t-14 -0.5h-27q-4 1 -19.5 1h-34t-35 -0.5t-22.5 -0.5q-6 1 -21 1h-31.5h-30.5t-17 -1
q-9 -2 -22 -3t-15 3q-3 4 -3.5 3.5t-2.5 1.5q-5 6 -2.5 9t2.5 6q2 5 5.5 8.5l5.5 5.5h3zM475 664q8 -4 6 -6q-1 -1 -4 -2q-1 -1 -2 -1q-2 -2 -2 -3q8 -6 5.5 -13.5t-4.5 -12.5q-5 -15 -3.5 -19.5t-4.5 -14.5q0 -6 -6 -8q-3 -1 -5 -1q1 -3 4 -33t7 -75t8 -99.5t7 -107.5
q2 -47 2.5 -91t-0.5 -77.5t-2.5 -54.5t-2.5 -22q-1 -20 -4 -23.5t-5 -3.5q-3 0 -12.5 1.5t-12.5 -1.5q-2 0 -6.5 0.5t-20.5 3.5q-10 1 -21.5 0.5t-21.5 -1.5q-12 -1 -24 -3q-9 0 -10.5 1.5t-3.5 9.5q-5 6 -5.5 9.5t-1.5 6.5v5t2 11q-1 1 -1 5v9v12q-17 0 -35 1
q-15 1 -34 1.5t-36 0.5q-14 2 -23.5 1.5t-16.5 -0.5q-8 -1 -14 -1t-7.5 -4.5t-6.5 -21.5q-3 -9 -5 -16t-4 -12q-2 -6 -3 -11q-5 -5 -11 -2t-23 6q-17 0 -28 2t-31 2q-8 2 -16.5 2t-14.5 1q-8 0 -14 1q-5 0 -4 2.5t0 5.5q-3 3 -3 10q0 3 1 6q0 1 8.5 31.5t23 78.5t32 108
t35.5 122q16 55 30.5 107.5t25.5 94.5t17.5 69.5t6.5 33.5q4 14 8 14h13h26q-1 1 1 3q1 0 2 1q17 3 38.5 3.5t41.5 0.5q14 2 28 0t34 -6q5 -1 9 -1t23 -4q11 -3 21 -4.5t18 -2.5q9 -1 17 -1q5 0 5 -4q0 -2 -1 -3l-2 -5q5 -2 6 -3t2 -1q0 -1 1 -2t1.5 -2t2.5 -3zM316 203
q-2 69 -4.5 120.5t-6 91t-8.5 69.5t-11 57q-1 2 -1 -4q0 -3 -1 -7q-6 -26 -14 -53q-7 -23 -15.5 -53t-17.5 -60q-8 -31 -16.5 -59t-15.5 -50q-8 -26 -16 -48h4q21 -2 42 -3q18 -2 39.5 -2.5t39.5 -2.5q4 -3 2 4z" />
    <glyph glyph-name="atilde" unicode="&#xe3;" 
d="M553 757q3 -6 4.5 -17t-1.5 -24.5t-11.5 -28.5t-26.5 -29q-5 -5 -15.5 -12.5t-26 -15.5t-34.5 -13.5t-41 -5.5q-14 0 -31.5 3.5t-36.5 14t-38 28.5t-37 48h-3q-11 18 -25 32q-12 12 -28 22t-34 10q-5 0 -10.5 -2t-10.5 -4q-23 -9 -36.5 -18.5t-21 -18t-10 -14.5t-2.5 -7
q-5 -13 -5 -24t4 -22t16 -21q2 -2 11.5 -9t11.5 -9q8 -12 3 -17q-2 -5 -8 -9.5t-12 0.5q-1 0 -9 3.5t-18.5 11t-20.5 18.5t-14 25q-2 11 -2.5 24.5t3.5 28.5t14 31t29 33q17 17 40 26t48 9q46 0 81 -35q16 -15 26.5 -28t17.5 -22q9 -8 15 -16.5t14 -15.5q22 -15 42 -23.5
t40 -8.5q33 0 79 29q9 8 16.5 17.5t13 18t8 16t0.5 10.5q-12 11 -38 11q-15 0 -32 -3t-31.5 -7.5t-25 -9t-13.5 -6.5q-7 -2 -12 -2t-10 0.5t-8 4.5q-2 2 -3.5 7.5t-1.5 9.5q0 14 9 19.5t20 10.5l15 5t27.5 8t31.5 7t28 3q21 0 34.5 -5t22 -12t13 -15t6.5 -15zM475 664
q8 -4 6 -6q-1 -1 -4 -2q-1 -1 -2 -1q-2 -2 -2 -3q8 -6 5.5 -13.5t-4.5 -12.5q-5 -15 -3.5 -19.5t-4.5 -14.5q0 -6 -6 -8q-3 -1 -5 -1q1 -3 4 -33t7 -75t8 -99.5t7 -107.5q2 -47 2.5 -91t-0.5 -77.5t-2.5 -54.5t-2.5 -22q-1 -20 -4 -23.5t-5 -3.5q-3 0 -12.5 1.5t-12.5 -1.5
q-2 0 -6.5 0.5t-20.5 3.5q-10 1 -21.5 0.5t-21.5 -1.5q-12 -1 -24 -3q-9 0 -10.5 1.5t-3.5 9.5q-5 6 -5.5 9.5t-1.5 6.5v5t2 11q-1 1 -1 5v9v12q-17 0 -35 1q-15 1 -34 1.5t-36 0.5q-14 2 -23.5 1.5t-16.5 -0.5q-8 -1 -14 -1t-7.5 -4.5t-6.5 -21.5q-3 -9 -5 -16t-4 -12
q-2 -6 -3 -11q-5 -5 -11 -2t-23 6q-17 0 -28 2t-31 2q-8 2 -16.5 2t-14.5 1q-8 0 -14 1q-5 0 -4 2.5t0 5.5q-3 3 -3 10q0 3 1 6q0 1 8.5 31.5t23 78.5t32 108t35.5 122q16 55 30.5 107.5t25.5 94.5t17.5 69.5t6.5 33.5q4 14 8 14h13h26q-1 1 1 3q1 0 2 1q17 3 38.5 3.5
t41.5 0.5q14 2 28 0t34 -6q5 -1 9 -1t23 -4q11 -3 21 -4.5t18 -2.5q9 -1 17 -1q5 0 5 -4q0 -2 -1 -3l-2 -5q5 -2 6 -3t2 -1q0 -1 1 -2t1.5 -2t2.5 -3zM316 203q-2 69 -4.5 120.5t-6 91t-8.5 69.5t-11 57q-1 2 -1 -4q0 -3 -1 -7q-6 -26 -14 -53q-7 -23 -15.5 -53t-17.5 -60
q-8 -31 -16.5 -59t-15.5 -50q-8 -26 -16 -48h4q21 -2 42 -3q18 -2 39.5 -2.5t39.5 -2.5q4 -3 2 4z" />
    <glyph glyph-name="adieresis" unicode="&#xe4;" horiz-adv-x="498" 
d="M475 664q8 -4 6 -6q-1 -1 -4 -2q-1 -1 -2 -1q-2 -2 -2 -3q8 -6 5.5 -13.5t-4.5 -12.5q-5 -15 -3.5 -19.5t-4.5 -14.5q0 -6 -6 -8q-3 -1 -5 -1q1 -3 4 -33t7 -75t8 -99.5t7 -107.5q2 -47 2.5 -91t-0.5 -77.5t-2.5 -54.5t-2.5 -22q-1 -20 -4 -23.5t-5 -3.5q-3 0 -12.5 1.5
t-12.5 -1.5q-2 0 -6.5 0.5t-20.5 3.5q-10 1 -21.5 0.5t-21.5 -1.5q-12 -1 -24 -3q-9 0 -10.5 1.5t-3.5 9.5q-5 6 -5.5 9.5t-1.5 6.5v5t2 11q-1 1 -1 5v9v12q-17 0 -35 1q-15 1 -34 1.5t-36 0.5q-14 2 -23.5 1.5t-16.5 -0.5q-8 -1 -14 -1t-7.5 -4.5t-6.5 -21.5q-3 -9 -5 -16
t-4 -12q-2 -6 -3 -11q-5 -5 -11 -2t-23 6q-17 0 -28 2t-31 2q-8 2 -16.5 2t-14.5 1q-8 0 -14 1q-5 0 -4 2.5t0 5.5q-3 3 -3 10q0 3 1 6q0 1 8.5 31.5t23 78.5t32 108t35.5 122q16 55 30.5 107.5t25.5 94.5t17.5 69.5t6.5 33.5q4 14 8 14h13h26q-1 1 1 3q1 0 2 1
q17 3 38.5 3.5t41.5 0.5q14 2 28 0t34 -6q5 -1 9 -1t23 -4q11 -3 21 -4.5t18 -2.5q9 -1 17 -1q5 0 5 -4q0 -2 -1 -3l-2 -5q5 -2 6 -3t2 -1q0 -1 1 -2t1.5 -2t2.5 -3zM316 203q-2 69 -4.5 120.5t-6 91t-8.5 69.5t-11 57q-1 2 -1 -4q0 -3 -1 -7q-6 -26 -14 -53
q-7 -23 -15.5 -53t-17.5 -60q-8 -31 -16.5 -59t-15.5 -50q-8 -26 -16 -48h4q21 -2 42 -3q18 -2 39.5 -2.5t39.5 -2.5q4 -3 2 4zM136 837q0 7 1 14t8 7q9 0 19.5 2.5t17.5 0.5q8 -1 20.5 -0.5t26 1.5t27 2.5t24.5 2.5q10 0 14.5 -5t5.5 -13.5t0 -19t-2 -20.5q-2 -20 -3.5 -28
t-5.5 -24q-5 -16 -23 -16.5t-41 1.5h-74q-16 2 -18 15.5t0 24.5q1 5 2 14t1 18v23zM336 837q0 7 1 14t8 7q9 0 19.5 2.5t17.5 0.5q8 -1 20.5 -0.5t26 1.5t27 2.5t24.5 2.5q10 0 14.5 -5t5.5 -13.5t0 -19t-2 -20.5q-2 -20 -3.5 -28t-5.5 -24q-5 -16 -23 -16.5t-41 1.5h-74
q-16 2 -18 15.5t0 24.5q1 5 2 14t1 18v23z" />
    <glyph glyph-name="ccedilla" unicode="&#xe7;" horiz-adv-x="476" 
d="M82 -26q45 12 93.5 14t87.5 -1t61.5 -8.5t16.5 -9.5q-3 -7 -12 -12q-4 -3 -9 -4q-5 -4 -8.5 -2t-7.5 2t-5 -2.5t-6 -2.5h-42q-4 -5 -6.5 -8t-14.5 -3q-8 4 -21.5 4.5t-36.5 0.5q-11 2 -25 3l-28 2q-16 1 -32 1q-1 3 -3 6q-2 2 -3.5 4.5t-3.5 4.5q-2 0 -3 1q-3 1 -3 5
q0 2 5 4q3 1 6 1zM236 145q2 2 -0.5 7t-3.5 9q-1 3 -1 6.5v5.5q0 3 1 6q10 42 22 86t23 79q21 63 26 111.5t2 82t-9.5 52t-6.5 20.5q-1 5 -3 7q-1 1 -3 1q-20 -73 -33 -133.5t-27 -108.5q-30 -112 -44 -176t-19 -96.5t-4 -41t1 -10.5q0 -3 7.5 -10t18.5 -7q33 5 68.5 6.5
t65.5 1.5t51 -0.5t26 -0.5q13 0 6 -9q-1 -1 -1 -3q0 -4 4 -5l2 -9q-4 -4 -1 -12q-4 2 -19 2.5t-32.5 0.5t-33.5 -0.5t-20 -0.5q-23 0 -36 -0.5t-21.5 -1t-16 -1t-20 -1t-33.5 -1t-57 -0.5q-29 0 -46 2t-27 4q-11 3 -16 6q-5 4 -13.5 19t-11.5 53q0 10 4.5 36.5t12 62.5
t17.5 79t21 86q25 101 56 223q0 4 2 13.5t4.5 19.5t5 18.5t3.5 12.5q3 3 5.5 11t4.5 16.5t4 15.5t4 7q-2 3 0.5 7.5t20.5 4.5q34 -2 57.5 -0.5t40 3t28 3.5t21.5 2q47 -4 76 -25.5t45 -52.5t21 -66.5t4.5 -66.5t-4 -54.5t-5.5 -29.5q-1 -7 -6 -28.5t-12 -49.5t-16 -59
t-16.5 -58t-13.5 -45.5t-8 -21.5q-6 1 -24.5 1t-39 -1.5t-37.5 -2.5t-20 -1q-7 -3 -14 -3t-7 3z" />
    <glyph glyph-name="egrave" unicode="&#xe8;" 
d="M144 686l14 2q10 1 23 5q9 5 35 8t61 4.5t74.5 2t76 -0.5t66 -3t43.5 -5q1 -2 1 -7t-1.5 -12.5t-3.5 -20.5l-4.5 -21t-2.5 -11t-2 -6.5t-4 -6.5q-2 0 -1.5 -3.5t0.5 -7.5q0 -5 1 -11v-4q0 -2 -1 -4l-2 -4q-5 0 -5.5 -0.5t-0.5 -3.5q-2 -3 -3.5 -5t-15.5 -2.5t-46 0
t-94 3.5h-26t-30 -0.5t-26 -1t-12 -1.5q0 -2 -3 -22t-7 -43l-10 -62l46 2q8 -2 25 -1.5t35 0.5t34.5 -0.5t23.5 -3.5q20 -5 23 -9.5t3 -7.5q-2 -2 -2.5 -8.5t-1.5 -15t-1 -16v-10.5q0 -5 -3.5 -9t-6.5 -8q-3 0 -3.5 -5t-0.5 -11t-4.5 -18t-19.5 -14q-6 -2 -21.5 -3t-35.5 -1
t-41 0.5t-39 0t-30 -1.5t-13 -4q-2 -5 -7.5 -29.5t-12.5 -52.5q-8 -33 -17 -73q1 0 12 -0.5t26 -1.5t31.5 -1.5t28.5 -0.5q11 -2 32.5 -3t43 -2.5t39 -2t20.5 -0.5t-2.5 -7.5t-5.5 -13.5q0 -5 -2 -20t-6 -25q-3 -9 -4 -14t-4 -15q-5 -9 -5 -16t-3.5 -12t-14 -7.5t-35.5 -0.5
q-27 0 -56 1q-25 1 -55.5 1.5t-59.5 0.5q-46 4 -77.5 2t-36.5 -2q-4 0 -8 2q-3 2 -5.5 4t-2.5 7q2 3 -2 6t-8 3q-2 0 -4 7t1 17q3 4 3 8v8q0 3 2.5 4.5t2.5 8.5q9 34 18.5 80.5t19.5 98.5q8 34 16.5 70t15.5 73q6 34 11.5 69t13.5 66q4 34 8 62.5t8 48.5t9 30.5t11 9.5z
M380 846q5 -2 12.5 -10.5t16 -18.5t16 -20t12.5 -14q6 -3 0.5 -8t-15.5 -10.5t-20.5 -10t-15.5 -6.5q-7 -2 -15 -11t-16 -14q-8 -7 -14 -1.5t-9 10.5q-1 4 -10.5 14t-21 21t-23 21t-17.5 14q-12 8 -12.5 12t-0.5 6q0 5 12 10t16 10q2 7 17.5 12t26.5 17q6 7 12.5 7.5t12 -2
t9 -6.5t4.5 -7t5 -6t8 -5q4 -3 10 -4z" />
    <glyph glyph-name="eacute" unicode="&#xe9;" 
d="M150 677q6 1 13 2q5 1 11.5 2t11.5 3q9 4 34.5 7t60 4.5t73 2t74.5 -0.5t64.5 -2.5t42.5 -4.5q1 -2 1 -7t-1.5 -12.5t-3.5 -20.5q-3 -14 -4.5 -20.5t-2.5 -10.5t-2 -6.5t-4 -6.5q-2 0 -1.5 -3.5t0.5 -7.5t1 -10v-4q0 -2 -1 -4l-2 -4q-5 0 -5 -4q-2 -3 -3.5 -5t-15.5 -2.5
t-45.5 0t-91.5 3.5h-26t-29 -0.5t-25 -1t-12 -1.5q0 -2 -3 -21.5t-7 -42.5l-10 -60h100q19 -4 38 -4.5t22 -0.5t-1.5 -2t-9.5 -2h-10.5t-15.5 0.5t-15 1t-8 2.5q-3 0 -2.5 -2t6.5 -2q4 0 12.5 -0.5t17 -2t16 -3t10.5 -2.5q6 -2 8 -3l8 -4q7 0 8 -3t1 -6q-3 -3 -3.5 -16.5
t-0.5 -19.5q0 -5 -3 -8.5t-6 -7.5q-3 0 -3.5 -5t-0.5 -11t-4.5 -17.5t-19.5 -13.5q-6 -2 -21 -3t-34.5 -1t-40 0.5t-38 0t-29.5 -1.5t-13 -4q-2 -5 -8 -29.5t-12 -51.5q-8 -33 -16 -71q1 0 12 -0.5t25.5 -1.5t30.5 -1.5t28 -0.5q10 -2 31 -3t42.5 -2.5t38.5 -2t20 -0.5
t-2.5 -7t-5.5 -13q0 -5 -2 -20t-6 -24q-3 -9 -4 -14t-4 -15q-4 -8 -4.5 -15t-4 -12t-13.5 -7.5t-34 -0.5q-28 0 -56 1q-25 1 -54 1.5t-58 0.5q-45 4 -76 2t-36 -2q-4 0 -8 2q-7 3 -7 11q2 3 -2 5.5t-8 2.5q-2 0 -4 7t1 17q3 4 3 8v3v5q0 3 2.5 4.5t2.5 7.5q9 33 18 79t19 97
q8 33 16.5 68.5t14.5 71.5q6 33 11.5 67.5t13.5 64.5q8 67 15.5 109t19.5 39zM324 848q2 5 10.5 12.5t18.5 16t19.5 16t14.5 12.5q3 6 8 0.5t10.5 -15.5t10 -20.5t6.5 -15.5q2 -7 11 -15t14 -16q7 -8 1.5 -14t-10.5 -9q-4 -1 -14 -10.5t-21 -21t-21 -23t-14 -17.5
q-8 -12 -12 -12.5t-6 -0.5q-5 0 -10 12t-10 16q-7 2 -12 17.5t-17 26.5q-7 6 -7.5 12.5t2 12t6.5 9t7 4.5t5.5 5t4.5 8q3 4 5 10z" />
    <glyph glyph-name="ecircumflex" unicode="&#xea;" 
d="M194 765q3 0 15.5 -1t30.5 1q20 1 47.5 2t52.5 -1q14 0 31 0.5t32 2.5q18 1 35 3q2 2 10 1t19 1q5 0 5 -5q-1 -2 -1 -4q0 -4 3 -5q2 -2 3 -4t-1 -5q-2 -5 0.5 -9t2.5 -6q2 -4 -4 -4.5t-14 -0.5h-27q-4 1 -19.5 1h-34t-35 -0.5t-22.5 -0.5q-6 1 -21 1h-31.5h-30.5t-17 -1
q-9 -2 -22 -3t-15 3q-3 4 -3.5 3.5t-2.5 1.5q-5 6 -2.5 9t2.5 6q2 5 5.5 8.5l5.5 5.5h3zM144 686l14 2q10 1 23 5q9 5 35 8t61 4.5t74.5 2t76 -0.5t66 -3t43.5 -5q1 -2 1 -7t-1.5 -12.5t-3.5 -20.5l-4.5 -21t-2.5 -11t-2 -6.5t-4 -6.5q-2 0 -1.5 -3.5t0.5 -7.5q0 -5 1 -11
v-4q0 -2 -1 -4l-2 -4q-5 0 -5.5 -0.5t-0.5 -3.5q-2 -3 -3.5 -5t-15.5 -2.5t-46 0t-94 3.5h-26t-30 -0.5t-26 -1t-12 -1.5q0 -2 -3 -22t-7 -43l-10 -62l46 2q8 -2 25 -1.5t35 0.5t34.5 -0.5t23.5 -3.5q20 -5 23 -9.5t3 -7.5q-2 -2 -2.5 -8.5t-1.5 -15t-1 -16v-10.5
q0 -5 -3.5 -9t-6.5 -8q-3 0 -3.5 -5t-0.5 -11t-4.5 -18t-19.5 -14q-6 -2 -21.5 -3t-35.5 -1t-41 0.5t-39 0t-30 -1.5t-13 -4q-2 -5 -7.5 -29.5t-12.5 -52.5q-8 -33 -17 -73q1 0 12 -0.5t26 -1.5t31.5 -1.5t28.5 -0.5q11 -2 32.5 -3t43 -2.5t39 -2t20.5 -0.5t-2.5 -7.5
t-5.5 -13.5q0 -5 -2 -20t-6 -25q-3 -9 -4 -14t-4 -15q-5 -9 -5 -16t-3.5 -12t-14 -7.5t-35.5 -0.5q-27 0 -56 1q-25 1 -55.5 1.5t-59.5 0.5q-46 4 -77.5 2t-36.5 -2q-4 0 -8 2q-3 2 -5.5 4t-2.5 7q2 3 -2 6t-8 3q-2 0 -4 7t1 17q3 4 3 8v8q0 3 2.5 4.5t2.5 8.5
q9 34 18.5 80.5t19.5 98.5q8 34 16.5 70t15.5 73q6 34 11.5 69t13.5 66q4 34 8 62.5t8 48.5t9 30.5t11 9.5z" />
    <glyph glyph-name="edieresis" unicode="&#xeb;" 
d="M144 686l14 2q10 1 23 5q9 5 35 8t61 4.5t74.5 2t76 -0.5t66 -3t43.5 -5q1 -2 1 -7t-1.5 -12.5t-3.5 -20.5l-4.5 -21t-2.5 -11t-2 -6.5t-4 -6.5q-2 0 -1.5 -3.5t0.5 -7.5q0 -5 1 -11v-4q0 -2 -1 -4l-2 -4q-5 0 -5.5 -0.5t-0.5 -3.5q-2 -3 -3.5 -5t-15.5 -2.5t-46 0
t-94 3.5h-26t-30 -0.5t-26 -1t-12 -1.5q0 -2 -3 -22t-7 -43l-10 -62l46 2q8 -2 25 -1.5t35 0.5t34.5 -0.5t23.5 -3.5q20 -5 23 -9.5t3 -7.5q-2 -2 -2.5 -8.5t-1.5 -15t-1 -16v-10.5q0 -5 -3.5 -9t-6.5 -8q-3 0 -3.5 -5t-0.5 -11t-4.5 -18t-19.5 -14q-6 -2 -21.5 -3t-35.5 -1
t-41 0.5t-39 0t-30 -1.5t-13 -4q-2 -5 -7.5 -29.5t-12.5 -52.5q-8 -33 -17 -73q1 0 12 -0.5t26 -1.5t31.5 -1.5t28.5 -0.5q11 -2 32.5 -3t43 -2.5t39 -2t20.5 -0.5t-2.5 -7.5t-5.5 -13.5q0 -5 -2 -20t-6 -25q-3 -9 -4 -14t-4 -15q-5 -9 -5 -16t-3.5 -12t-14 -7.5t-35.5 -0.5
q-27 0 -56 1q-25 1 -55.5 1.5t-59.5 0.5q-46 4 -77.5 2t-36.5 -2q-4 0 -8 2q-3 2 -5.5 4t-2.5 7q2 3 -2 6t-8 3q-2 0 -4 7t1 17q3 4 3 8v8q0 3 2.5 4.5t2.5 8.5q9 34 18.5 80.5t19.5 98.5q8 34 16.5 70t15.5 73q6 34 11.5 69t13.5 66q4 34 8 62.5t8 48.5t9 30.5t11 9.5z
M183 825q0 7 1 14t8 7q9 0 19.5 2.5t17.5 0.5q8 -1 20.5 -0.5t26 1.5t27 2.5t24.5 2.5q10 0 14.5 -5t5.5 -13.5t0 -19t-2 -20.5q-2 -20 -3.5 -28t-5.5 -24q-5 -16 -23 -16.5t-41 1.5h-74q-16 2 -18 15.5t0 24.5q1 5 2 14t1 18v23zM383 825q0 7 1 14t8 7q9 0 19.5 2.5
t17.5 0.5q8 -1 20.5 -0.5t26 1.5t27 2.5t24.5 2.5q10 0 14.5 -5t5.5 -13.5t0 -19t-2 -20.5q-2 -20 -3.5 -28t-5.5 -24q-5 -16 -23 -16.5t-41 1.5h-74q-16 2 -18 15.5t0 24.5q1 5 2 14t1 18v23z" />
    <glyph glyph-name="igrave" unicode="&#xec;" horiz-adv-x="266" 
d="M7 5q-10 10 -1.5 46.5t19.5 90.5q9 49 21 104.5t23 102.5t18.5 79.5t8.5 35.5q1 4 5 20.5t7.5 36.5t6 39t1.5 28t0 22t3 24q2 13 3 27q9 16 13 28.5t13 12.5q3 0 10.5 0.5t16.5 1l18 1t15 0.5q26 2 39.5 1.5t21.5 -1.5t11 -3q1 -9 3.5 -10.5t4.5 -2.5t2.5 -5.5
t-2.5 -18.5q0 -6 -2 -9.5t-2 -6.5q0 -4 0.5 -9t-1.5 -12q-5 -32 -20 -79q-6 -31 -12.5 -65.5t-17.5 -72.5q-15 -66 -30 -132.5t-27 -119.5t-19 -88t-7 -38q1 -8 -3.5 -16.5t-6.5 -11.5q0 -1 -1 -2t-8 -1q-19 3 -38 3t-34.5 -0.5t-27 -1.5t-15.5 -1q-6 -2 -8 0q-1 1 -1 3z
M224 857q5 -2 12.5 -10.5t16 -18.5t16 -20t12.5 -14q6 -3 0.5 -8t-15.5 -10.5t-20.5 -10t-15.5 -6.5q-7 -2 -15 -11t-16 -14q-8 -7 -14 -1.5t-9 10.5q-1 4 -10.5 14t-21 21t-23 21t-17.5 14q-12 8 -12.5 12t-0.5 6q0 5 12 10t16 10q2 7 17.5 12t26.5 17q6 7 12.5 7.5t12 -2
t9 -6.5t4.5 -7t5 -6t8 -5q4 -3 10 -4z" />
    <glyph glyph-name="iacute" unicode="&#xed;" horiz-adv-x="272" 
d="M7 5q-10 10 -1.5 46.5t19.5 90.5q9 49 21 104.5t23 102.5t18.5 79.5t8.5 35.5q1 4 5 20.5t7.5 36.5t6 39t1.5 28t0 22t3 24q2 13 3 27q9 16 13 28.5t13 12.5q3 0 10.5 0.5t16.5 1l18 1t15 0.5q26 2 39.5 1.5t21.5 -1.5t11 -3q1 -9 3.5 -10.5t4.5 -2.5t2.5 -5.5
t-2.5 -18.5q0 -6 -2 -9.5t-2 -6.5q0 -4 0.5 -9t-1.5 -12q-5 -32 -20 -79q-6 -31 -12.5 -65.5t-17.5 -72.5q-15 -66 -30 -132.5t-27 -119.5t-19 -88t-7 -38q1 -8 -3.5 -16.5t-6.5 -11.5q0 -1 -1 -2t-8 -1q-19 3 -38 3t-34.5 -0.5t-27 -1.5t-15.5 -1q-6 -2 -8 0q-1 1 -1 3z
M235 842q2 5 10.5 12.5t18.5 16t19.5 16t14.5 12.5q3 6 8 0.5t10.5 -15.5t10 -20.5t6.5 -15.5q2 -7 11 -15t14 -16q7 -8 1.5 -14t-10.5 -9q-4 -1 -14 -10.5t-21 -21t-21 -23t-14 -17.5q-8 -12 -12 -12.5t-6 -0.5q-5 0 -10 12t-10 16q-7 2 -12 17.5t-17 26.5q-7 6 -7.5 12.5
t2 12t6.5 9t7 4.5t5.5 5t4.5 8q3 4 5 10z" />
    <glyph glyph-name="icircumflex" unicode="&#xee;" horiz-adv-x="266" 
d="M56 765q3 0 15.5 -1t30.5 1q20 1 47.5 2t52.5 -1q14 0 31 0.5t32 2.5q18 1 35 3q2 2 10 1t19 1q5 0 5 -5q-1 -2 -1 -4q0 -4 3 -5q2 -2 3 -4t-1 -5q-2 -5 0.5 -9t2.5 -6q2 -4 -4 -4.5t-14 -0.5h-27q-4 1 -19.5 1h-34t-35 -0.5t-22.5 -0.5q-6 1 -21 1h-31.5h-30.5t-17 -1
q-9 -2 -22 -3t-15 3q-3 4 -3.5 3.5t-2.5 1.5q-5 6 -2.5 9t2.5 6q2 5 5.5 8.5l5.5 5.5h3zM7 5q-10 10 -1.5 46.5t19.5 90.5q9 49 21 104.5t23 102.5t18.5 79.5t8.5 35.5q1 4 5 20.5t7.5 36.5t6 39t1.5 28t0 22t3 24q2 13 3 27q9 16 13 28.5t13 12.5q3 0 10.5 0.5t16.5 1l18 1
t15 0.5q26 2 39.5 1.5t21.5 -1.5t11 -3q1 -9 3.5 -10.5t4.5 -2.5t2.5 -5.5t-2.5 -18.5q0 -6 -2 -9.5t-2 -6.5q0 -4 0.5 -9t-1.5 -12q-5 -32 -20 -79q-6 -31 -12.5 -65.5t-17.5 -72.5q-15 -66 -30 -132.5t-27 -119.5t-19 -88t-7 -38q1 -8 -3.5 -16.5t-6.5 -11.5q0 -1 -1 -2
t-8 -1q-19 3 -38 3t-34.5 -0.5t-27 -1.5t-15.5 -1q-6 -2 -8 0q-1 1 -1 3z" />
    <glyph glyph-name="idieresis" unicode="&#xef;" horiz-adv-x="266" 
d="M7 5q-10 10 -1.5 46.5t19.5 90.5q9 49 21 104.5t23 102.5t18.5 79.5t8.5 35.5q1 4 5 20.5t7.5 36.5t6 39t1.5 28t0 22t3 24q2 13 3 27q9 16 13 28.5t13 12.5q3 0 10.5 0.5t16.5 1l18 1t15 0.5q26 2 39.5 1.5t21.5 -1.5t11 -3q1 -9 3.5 -10.5t4.5 -2.5t2.5 -5.5
t-2.5 -18.5q0 -6 -2 -9.5t-2 -6.5q0 -4 0.5 -9t-1.5 -12q-5 -32 -20 -79q-6 -31 -12.5 -65.5t-17.5 -72.5q-15 -66 -30 -132.5t-27 -119.5t-19 -88t-7 -38q1 -8 -3.5 -16.5t-6.5 -11.5q0 -1 -1 -2t-8 -1q-19 3 -38 3t-34.5 -0.5t-27 -1.5t-15.5 -1q-6 -2 -8 0q-1 1 -1 3z
M41 834q0 7 1 14t8 7q9 0 19.5 2.5t17.5 0.5q8 -1 20.5 -0.5t26 1.5t27 2.5t24.5 2.5q10 0 14.5 -5t5.5 -13.5t0 -19t-2 -20.5q-2 -20 -3.5 -28t-5.5 -24q-5 -16 -23 -16.5t-41 1.5h-74q-16 2 -18 15.5t0 24.5q1 5 2 14t1 18v23zM241 834q0 7 1 14t8 7q9 0 19.5 2.5
t17.5 0.5q8 -1 20.5 -0.5t26 1.5t27 2.5t24.5 2.5q10 0 14.5 -5t5.5 -13.5t0 -19t-2 -20.5q-2 -20 -3.5 -28t-5.5 -24q-5 -16 -23 -16.5t-41 1.5h-74q-16 2 -18 15.5t0 24.5q1 5 2 14t1 18v23z" />
    <glyph glyph-name="ntilde" unicode="&#xf1;" horiz-adv-x="445" 
d="M517 785q3 -6 4.5 -17t-1.5 -24.5t-11.5 -28.5t-26.5 -29q-5 -5 -15.5 -12.5t-26 -15.5t-34.5 -13.5t-41 -5.5q-14 0 -31.5 3.5t-36.5 14t-38 28.5t-37 48h-3q-11 18 -25 32q-12 12 -28 22t-34 10q-5 0 -10.5 -2t-10.5 -4q-23 -9 -36.5 -18.5t-21 -18t-10 -14.5t-2.5 -7
q-5 -13 -5 -24t4 -22t16 -21q2 -2 11.5 -9t11.5 -9q8 -12 3 -17q-2 -5 -8 -9.5t-12 0.5q-1 0 -9 3.5t-18.5 11t-20.5 18.5t-14 25q-2 11 -2.5 24.5t3.5 28.5t14 31t29 33q17 17 40 26t48 9q46 0 81 -35q16 -15 26.5 -28t17.5 -22q9 -8 15 -16.5t14 -15.5q22 -15 42 -23.5
t40 -8.5q33 0 79 29q9 8 16.5 17.5t13 18t8 16t0.5 10.5q-12 11 -38 11q-15 0 -32 -3t-31.5 -7.5t-25 -9t-13.5 -6.5q-7 -2 -12 -2t-10 0.5t-8 4.5q-2 2 -3.5 7.5t-1.5 9.5q0 14 9 19.5t20 10.5l15 5t27.5 8t31.5 7t28 3q21 0 34.5 -5t22 -12t13 -15t6.5 -15zM1 18
q0 4 2.5 32.5t7.5 72.5t11.5 99t14.5 114q10 61 20.5 120.5t19.5 106.5t15 77t8 32q-1 6 2.5 8.5t9 3t13 1.5t14.5 4q2 3 14 4t26 3q9 2 21 7.5t21 0.5q4 -3 7.5 -27t6 -53.5t4.5 -57t3 -36.5q0 -5 2.5 -20t5.5 -36.5t7 -47.5l8 -52q10 -62 22 -137q0 2 2.5 23.5t8.5 56.5
q5 60 15 125t21 119q12 63 27 124q2 8 9 6.5t16 1.5q2 0 9.5 1t16.5 -1q9 0 20.5 2t23.5 4q5 0 8.5 -2.5t5.5 -4.5q2 -4 2 -7q-3 -17 -9.5 -36.5t-12.5 -48.5q-9 -46 -19 -105.5t-19.5 -122t-18.5 -124t-15.5 -112t-10.5 -84.5t-4 -43q-2 -9 -10.5 -11.5t-13.5 -2.5
q-5 1 -17 0.5t-24.5 -0.5t-23.5 1.5t-12 5.5q-1 5 -10 4.5t-14 -0.5q-6 0 -8.5 2.5t-7.5 9.5q-2 5 -6 24.5t-9 48t-10.5 63t-11.5 69.5q-13 83 -29 185q-2 -7 -7 -31.5t-11 -58t-12 -73.5t-11 -77q-3 -28 -4.5 -53t-3 -44.5t-2 -32t-0.5 -14.5q-1 -2 -2 -6t-2.5 -7t-5 -5
t-9.5 0q-4 -2 -13.5 -3t-19.5 -1q-12 -1 -26 0q-11 -2 -16.5 0t-7.5 6q-3 4 -2 10z" />
    <glyph glyph-name="ograve" unicode="&#xf2;" horiz-adv-x="430" 
d="M401 699q24 -13 36.5 -36.5t17 -54t2.5 -66t-6 -72.5q-5 -60 -18.5 -128.5t-39 -131.5t-64.5 -115.5t-93 -80.5q-12 -6 -29.5 -9.5t-35 -5t-32 -1.5h-19.5q-3 -2 -8 -2.5t-7 -0.5q-13 0 -23.5 5.5t-17.5 13.5q-35 27 -49 73.5t-13 102.5t14.5 117t34.5 117
q13 46 33.5 89.5t44.5 79.5t49.5 62t48.5 36h7q6 0 18 2.5t23 5.5q12 0 22.5 0.5t18.5 2.5h19q9 0 15.5 2t11.5 2q18 0 27 -2.5t12 -4.5zM158 68q21 21 41 50q17 25 36.5 62t35.5 87q23 69 38 136q6 28 11 59t7.5 61t1 58t-8.5 52q-3 -1 -6 -3q-2 -2 -4.5 -3t-3.5 -2
q-14 -11 -38.5 -43t-50.5 -78.5t-49 -103t-34.5 -115t-7.5 -115t32 -102.5zM310 842q5 -2 12.5 -10.5t16 -18.5t16 -20t12.5 -14q6 -3 0.5 -8t-15.5 -10.5t-20.5 -10t-15.5 -6.5q-7 -2 -15 -11t-16 -14q-8 -7 -14 -1.5t-9 10.5q-1 4 -10.5 14t-21 21t-23 21t-17.5 14
q-12 8 -12.5 12t-0.5 6q0 5 12 10t16 10q2 7 17.5 12t26.5 17q6 7 12.5 7.5t12 -2t9 -6.5t4.5 -7t5 -6t8 -5q4 -3 10 -4z" />
    <glyph glyph-name="oacute" unicode="&#xf3;" horiz-adv-x="435" 
d="M401 699q24 -13 36.5 -36.5t17 -54t2.5 -66t-6 -72.5q-5 -60 -18.5 -128.5t-39 -131.5t-64.5 -115.5t-93 -80.5q-12 -6 -29.5 -9.5t-35 -5t-32 -1.5h-19.5q-3 -2 -8 -2.5t-7 -0.5q-13 0 -23.5 5.5t-17.5 13.5q-35 27 -49 73.5t-13 102.5t14.5 117t34.5 117
q13 46 33.5 89.5t44.5 79.5t49.5 62t48.5 36h7q6 0 18 2.5t23 5.5q12 0 22.5 0.5t18.5 2.5h19q9 0 15.5 2t11.5 2q18 0 27 -2.5t12 -4.5zM158 68q21 21 41 50q17 25 36.5 62t35.5 87q23 69 38 136q6 28 11 59t7.5 61t1 58t-8.5 52q-3 -1 -6 -3q-2 -2 -4.5 -3t-3.5 -2
q-14 -11 -38.5 -43t-50.5 -78.5t-49 -103t-34.5 -115t-7.5 -115t32 -102.5zM287 847q2 5 10.5 12.5t18.5 16t19.5 16t14.5 12.5q3 6 8 0.5t10.5 -15.5t10 -20.5t6.5 -15.5q2 -7 11 -15t14 -16q7 -8 1.5 -14t-10.5 -9q-4 -1 -14 -10.5t-21 -21t-21 -23t-14 -17.5
q-8 -12 -12 -12.5t-6 -0.5q-5 0 -10 12t-10 16q-7 2 -12 17.5t-17 26.5q-7 6 -7.5 12.5t2 12t6.5 9t7 4.5t5.5 5t4.5 8q3 4 5 10z" />
    <glyph glyph-name="ocircumflex" unicode="&#xf4;" horiz-adv-x="430" 
d="M188 765q3 0 15.5 -1t30.5 1q20 1 47.5 2t52.5 -1q14 0 31 0.5t32 2.5q18 1 35 3q2 2 10 1t19 1q5 0 5 -5q-1 -2 -1 -4q0 -4 3 -5q2 -2 3 -4t-1 -5q-2 -5 0.5 -9t2.5 -6q2 -4 -4 -4.5t-14 -0.5h-27q-4 1 -19.5 1h-34t-35 -0.5t-22.5 -0.5q-6 1 -21 1h-31.5h-30.5t-17 -1
q-9 -2 -22 -3t-15 3q-3 4 -3.5 3.5t-2.5 1.5q-5 6 -2.5 9t2.5 6q2 5 5.5 8.5l5.5 5.5h3zM401 699q24 -13 36.5 -36.5t17 -54t2.5 -66t-6 -72.5q-5 -60 -18.5 -128.5t-39 -131.5t-64.5 -115.5t-93 -80.5q-12 -6 -29.5 -9.5t-35 -5t-32 -1.5h-19.5q-3 -2 -8 -2.5t-7 -0.5
q-13 0 -23.5 5.5t-17.5 13.5q-35 27 -49 73.5t-13 102.5t14.5 117t34.5 117q13 46 33.5 89.5t44.5 79.5t49.5 62t48.5 36h7q6 0 18 2.5t23 5.5q12 0 22.5 0.5t18.5 2.5h19q9 0 15.5 2t11.5 2q18 0 27 -2.5t12 -4.5zM158 68q21 21 41 50q17 25 36.5 62t35.5 87q23 69 38 136
q6 28 11 59t7.5 61t1 58t-8.5 52q-3 -1 -6 -3q-2 -2 -4.5 -3t-3.5 -2q-14 -11 -38.5 -43t-50.5 -78.5t-49 -103t-34.5 -115t-7.5 -115t32 -102.5z" />
    <glyph glyph-name="otilde" unicode="&#xf5;" horiz-adv-x="430" 
d="M563 753q3 -6 4.5 -17t-1.5 -24.5t-11.5 -28.5t-26.5 -29q-5 -5 -15.5 -12.5t-26 -15.5t-34.5 -13.5t-41 -5.5q-14 0 -31.5 3.5t-36.5 14t-38 28.5t-37 48h-3q-11 18 -25 32q-12 12 -28 22t-34 10q-5 0 -10.5 -2t-10.5 -4q-23 -9 -36.5 -18.5t-21 -18t-10 -14.5t-2.5 -7
q-5 -13 -5 -24t4 -22t16 -21q2 -2 11.5 -9t11.5 -9q8 -12 3 -17q-2 -5 -8 -9.5t-12 0.5q-1 0 -9 3.5t-18.5 11t-20.5 18.5t-14 25q-2 11 -2.5 24.5t3.5 28.5t14 31t29 33q17 17 40 26t48 9q46 0 81 -35q16 -15 26.5 -28t17.5 -22q9 -8 15 -16.5t14 -15.5q22 -15 42 -23.5
t40 -8.5q33 0 79 29q9 8 16.5 17.5t13 18t8 16t0.5 10.5q-12 11 -38 11q-15 0 -32 -3t-31.5 -7.5t-25 -9t-13.5 -6.5q-7 -2 -12 -2t-10 0.5t-8 4.5q-2 2 -3.5 7.5t-1.5 9.5q0 14 9 19.5t20 10.5l15 5t27.5 8t31.5 7t28 3q21 0 34.5 -5t22 -12t13 -15t6.5 -15zM401 699
q24 -13 36.5 -36.5t17 -54t2.5 -66t-6 -72.5q-5 -60 -18.5 -128.5t-39 -131.5t-64.5 -115.5t-93 -80.5q-12 -6 -29.5 -9.5t-35 -5t-32 -1.5h-19.5q-3 -2 -8 -2.5t-7 -0.5q-13 0 -23.5 5.5t-17.5 13.5q-35 27 -49 73.5t-13 102.5t14.5 117t34.5 117q13 46 33.5 89.5
t44.5 79.5t49.5 62t48.5 36h7q6 0 18 2.5t23 5.5q12 0 22.5 0.5t18.5 2.5h19q9 0 15.5 2t11.5 2q18 0 27 -2.5t12 -4.5zM158 68q21 21 41 50q17 25 36.5 62t35.5 87q23 69 38 136q6 28 11 59t7.5 61t1 58t-8.5 52q-3 -1 -6 -3q-2 -2 -4.5 -3t-3.5 -2q-14 -11 -38.5 -43
t-50.5 -78.5t-49 -103t-34.5 -115t-7.5 -115t32 -102.5z" />
    <glyph glyph-name="odieresis" unicode="&#xf6;" horiz-adv-x="435" 
d="M401 699q24 -13 36.5 -36.5t17 -54t2.5 -66t-6 -72.5q-5 -60 -18.5 -128.5t-39 -131.5t-64.5 -115.5t-93 -80.5q-12 -6 -29.5 -9.5t-35 -5t-32 -1.5h-19.5q-3 -2 -8 -2.5t-7 -0.5q-13 0 -23.5 5.5t-17.5 13.5q-35 27 -49 73.5t-13 102.5t14.5 117t34.5 117
q13 46 33.5 89.5t44.5 79.5t49.5 62t48.5 36h7q6 0 18 2.5t23 5.5q12 0 22.5 0.5t18.5 2.5h19q9 0 15.5 2t11.5 2q18 0 27 -2.5t12 -4.5zM158 68q21 21 41 50q17 25 36.5 62t35.5 87q23 69 38 136q6 28 11 59t7.5 61t1 58t-8.5 52q-3 -1 -6 -3q-2 -2 -4.5 -3t-3.5 -2
q-14 -11 -38.5 -43t-50.5 -78.5t-49 -103t-34.5 -115t-7.5 -115t32 -102.5zM121 837q0 7 1 14t8 7q9 0 19.5 2.5t17.5 0.5q8 -1 20.5 -0.5t26 1.5t27 2.5t24.5 2.5q10 0 14.5 -5t5.5 -13.5t0 -19t-2 -20.5q-2 -20 -3.5 -28t-5.5 -24q-5 -16 -23 -16.5t-41 1.5h-74
q-16 2 -18 15.5t0 24.5q1 5 2 14t1 18v23zM321 837q0 7 1 14t8 7q9 0 19.5 2.5t17.5 0.5q8 -1 20.5 -0.5t26 1.5t27 2.5t24.5 2.5q10 0 14.5 -5t5.5 -13.5t0 -19t-2 -20.5q-2 -20 -3.5 -28t-5.5 -24q-5 -16 -23 -16.5t-41 1.5h-74q-16 2 -18 15.5t0 24.5q1 5 2 14t1 18v23z
" />
    <glyph glyph-name="ugrave" unicode="&#xf9;" horiz-adv-x="407" 
d="M428 695q8 -7 7.5 -28t-5 -47.5t-10 -54.5t-7.5 -47q-9 -76 -20.5 -157t-30.5 -151.5t-48 -121.5t-72 -66q-16 -15 -64 -15h-12q-5 -3 -18 -3.5t-22 -0.5h9q-18 0 -34 8t-29.5 20.5t-23.5 28.5t-16 33q-19 44 -25 100.5t-4 116t10 117.5t17.5 105.5t18 79.5t11.5 40
q6 20 14.5 28t20 10.5t25.5 3t31 5.5h8q3 3 6 3.5t9 0.5t11 -2.5t5 -5.5q6 -8 6 -18.5t-6 -28.5q-40 -148 -51 -250t-7 -168t16.5 -100.5t21.5 -47.5q20 18 35.5 50t27.5 73t21 88t15.5 93.5t11.5 90.5t9 80q2 42 5 71.5t6 47.5q3 17 20 20t33 3q5 0 13.5 0.5t17.5 3.5
q5 0 10.5 2t9.5 2q17 0 23 -12zM277 836q5 -2 12.5 -10.5t16 -18.5t16 -20t12.5 -14q6 -3 0.5 -8t-15.5 -10.5t-20.5 -10t-15.5 -6.5q-7 -2 -15 -11t-16 -14q-8 -7 -14 -1.5t-9 10.5q-1 4 -10.5 14t-21 21t-23 21t-17.5 14q-12 8 -12.5 12t-0.5 6q0 5 12 10t16 10
q2 7 17.5 12t26.5 17q6 7 12.5 7.5t12 -2t9 -6.5t4.5 -7t5 -6t8 -5q4 -3 10 -4z" />
    <glyph glyph-name="uacute" unicode="&#xfa;" horiz-adv-x="452" 
d="M428 695q8 -7 7.5 -28t-5 -47.5t-10 -54.5t-7.5 -47q-9 -76 -20.5 -157t-30.5 -151.5t-48 -121.5t-72 -66q-16 -15 -64 -15h-12q-5 -3 -18 -3.5t-22 -0.5h9q-18 0 -34 8t-29.5 20.5t-23.5 28.5t-16 33q-19 44 -25 100.5t-4 116t10 117.5t17.5 105.5t18 79.5t11.5 40
q6 20 14.5 28t20 10.5t25.5 3t31 5.5h8q3 3 6 3.5t9 0.5t11 -2.5t5 -5.5q6 -8 6 -18.5t-6 -28.5q-40 -148 -51 -250t-7 -168t16.5 -100.5t21.5 -47.5q20 18 35.5 50t27.5 73t21 88t15.5 93.5t11.5 90.5t9 80q2 42 5 71.5t6 47.5q3 17 20 20t33 3q5 0 13.5 0.5t17.5 3.5
q5 0 10.5 2t9.5 2q17 0 23 -12zM271 851q2 5 10.5 12.5t18.5 16t19.5 16t14.5 12.5q3 6 8 0.5t10.5 -15.5t10 -20.5t6.5 -15.5q2 -7 11 -15t14 -16q7 -8 1.5 -14t-10.5 -9q-4 -1 -14 -10.5t-21 -21t-21 -23t-14 -17.5q-8 -12 -12 -12.5t-6 -0.5q-5 0 -10 12t-10 16
q-7 2 -12 17.5t-17 26.5q-7 6 -7.5 12.5t2 12t6.5 9t7 4.5t5.5 5t4.5 8q3 4 5 10z" />
    <glyph glyph-name="ucircumflex" unicode="&#xfb;" horiz-adv-x="407" 
d="M127 765q3 0 15.5 -1t30.5 1q20 1 47.5 2t52.5 -1q14 0 31 0.5t32 2.5q18 1 35 3q2 2 10 1t19 1q5 0 5 -5q-1 -2 -1 -4q0 -4 3 -5q2 -2 3 -4t-1 -5q-2 -5 0.5 -9t2.5 -6q2 -4 -4 -4.5t-14 -0.5h-27q-4 1 -19.5 1h-34t-35 -0.5t-22.5 -0.5q-6 1 -21 1h-31.5h-30.5t-17 -1
q-9 -2 -22 -3t-15 3q-3 4 -3.5 3.5t-2.5 1.5q-5 6 -2.5 9t2.5 6q2 5 5.5 8.5l5.5 5.5h3zM428 695q8 -7 7.5 -28t-5 -47.5t-10 -54.5t-7.5 -47q-9 -76 -20.5 -157t-30.5 -151.5t-48 -121.5t-72 -66q-16 -15 -64 -15h-12q-5 -3 -18 -3.5t-22 -0.5h9q-18 0 -34 8t-29.5 20.5
t-23.5 28.5t-16 33q-19 44 -25 100.5t-4 116t10 117.5t17.5 105.5t18 79.5t11.5 40q6 20 14.5 28t20 10.5t25.5 3t31 5.5h8q3 3 6 3.5t9 0.5t11 -2.5t5 -5.5q6 -8 6 -18.5t-6 -28.5q-40 -148 -51 -250t-7 -168t16.5 -100.5t21.5 -47.5q20 18 35.5 50t27.5 73t21 88
t15.5 93.5t11.5 90.5t9 80q2 42 5 71.5t6 47.5q3 17 20 20t33 3q5 0 13.5 0.5t17.5 3.5q5 0 10.5 2t9.5 2q17 0 23 -12z" />
    <glyph glyph-name="udieresis" unicode="&#xfc;" horiz-adv-x="452" 
d="M428 695q8 -7 7.5 -28t-5 -47.5t-10 -54.5t-7.5 -47q-9 -76 -20.5 -157t-30.5 -151.5t-48 -121.5t-72 -66q-16 -15 -64 -15h-12q-5 -3 -18 -3.5t-22 -0.5h9q-18 0 -34 8t-29.5 20.5t-23.5 28.5t-16 33q-19 44 -25 100.5t-4 116t10 117.5t17.5 105.5t18 79.5t11.5 40
q6 20 14.5 28t20 10.5t25.5 3t31 5.5h8q3 3 6 3.5t9 0.5t11 -2.5t5 -5.5q6 -8 6 -18.5t-6 -28.5q-40 -148 -51 -250t-7 -168t16.5 -100.5t21.5 -47.5q20 18 35.5 50t27.5 73t21 88t15.5 93.5t11.5 90.5t9 80q2 42 5 71.5t6 47.5q3 17 20 20t33 3q5 0 13.5 0.5t17.5 3.5
q5 0 10.5 2t9.5 2q17 0 23 -12zM117 825q0 7 1 14t8 7q9 0 19.5 2.5t17.5 0.5q8 -1 20.5 -0.5t26 1.5t27 2.5t24.5 2.5q10 0 14.5 -5t5.5 -13.5t0 -19t-2 -20.5q-2 -20 -3.5 -28t-5.5 -24q-5 -16 -23 -16.5t-41 1.5h-74q-16 2 -18 15.5t0 24.5q1 5 2 14t1 18v23zM317 825
q0 7 1 14t8 7q9 0 19.5 2.5t17.5 0.5q8 -1 20.5 -0.5t26 1.5t27 2.5t24.5 2.5q10 0 14.5 -5t5.5 -13.5t0 -19t-2 -20.5q-2 -20 -3.5 -28t-5.5 -24q-5 -16 -23 -16.5t-41 1.5h-74q-16 2 -18 15.5t0 24.5q1 5 2 14t1 18v23z" />
    <glyph glyph-name="Nacute" unicode="&#x143;" horiz-adv-x="464" 
d="M16 26q0 4 2.5 31.5t7 70.5t11 97t14.5 111q10 60 20 117.5t18.5 103.5t14.5 75.5t8 31.5q-1 6 2.5 8t9 3t12.5 1.5t14 3.5q2 3 13.5 4t25.5 3q9 2 21 7.5t20 0.5q4 -3 7.5 -26.5t6 -52t4.5 -55.5t3 -36q0 -5 2.5 -19.5t5.5 -35t7 -46t8 -50.5q10 -60 21 -134q0 2 2.5 23
t7.5 55q5 59 15 121.5t21 115.5q12 62 26 121q2 8 8.5 6.5t15.5 1.5q2 0 9.5 1t16.5 -1q8 0 19.5 2t22.5 4q5 0 8.5 -2.5t5.5 -4.5q2 -4 2 -7q-3 -17 -9.5 -35t-11.5 -47q-9 -45 -19 -103t-19 -119t-18 -121t-15 -109t-10 -82.5t-4 -41.5q-2 -9 -10.5 -11.5t-13.5 -2.5
q-4 1 -15.5 0.5t-24.5 -0.5t-23.5 1.5t-11.5 5.5q-1 5 -9.5 4.5t-13.5 -0.5q-6 0 -8.5 2.5t-7.5 8.5q-2 5 -5.5 24t-8.5 46.5t-10.5 61t-11.5 68.5q-13 81 -28 180q-2 -7 -7 -30.5t-10.5 -56.5t-11.5 -71.5t-11 -74.5q-5 -55 -7.5 -96t-2.5 -45q-2 -5 -4 -12.5t-14 -4.5
q-4 -2 -13.5 -3t-19.5 -1q-11 -1 -25 0q-11 -2 -16 0.5t-7 5.5q-3 4 -2 9zM285 851q2 5 10.5 12.5t18.5 16t19.5 16t14.5 12.5q3 6 8 0.5t10.5 -15.5t10 -20.5t6.5 -15.5q2 -7 11 -15t14 -16q7 -8 1.5 -14t-10.5 -9q-4 -1 -14 -10.5t-21 -21t-21 -23t-14 -17.5
q-8 -12 -12 -12.5t-6 -0.5q-5 0 -10 12t-10 16q-7 2 -12 17.5t-17 26.5q-7 6 -7.5 12.5t2 12t6.5 9t7 4.5t5.5 5t4.5 8q3 4 5 10z" />
    <glyph glyph-name="nacute" unicode="&#x144;" horiz-adv-x="464" 
d="M16 26q0 4 2.5 31.5t7 70.5t11 97t14.5 111q10 60 20 117.5t18.5 103.5t14.5 75.5t8 31.5q-1 6 2.5 8t9 3t12.5 1.5t14 3.5q2 3 13.5 4t25.5 3q9 2 21 7.5t20 0.5q4 -3 7.5 -26.5t6 -52t4.5 -55.5t3 -36q0 -5 2.5 -19.5t5.5 -35t7 -46t8 -50.5q10 -60 21 -134q0 2 2.5 23
t7.5 55q5 59 15 121.5t21 115.5q12 62 26 121q2 8 8.5 6.5t15.5 1.5q2 0 9.5 1t16.5 -1q8 0 19.5 2t22.5 4q5 0 8.5 -2.5t5.5 -4.5q2 -4 2 -7q-3 -17 -9.5 -35t-11.5 -47q-9 -45 -19 -103t-19 -119t-18 -121t-15 -109t-10 -82.5t-4 -41.5q-2 -9 -10.5 -11.5t-13.5 -2.5
q-4 1 -15.5 0.5t-24.5 -0.5t-23.5 1.5t-11.5 5.5q-1 5 -9.5 4.5t-13.5 -0.5q-6 0 -8.5 2.5t-7.5 8.5q-2 5 -5.5 24t-8.5 46.5t-10.5 61t-11.5 68.5q-13 81 -28 180q-2 -7 -7 -30.5t-10.5 -56.5t-11.5 -71.5t-11 -74.5q-5 -55 -7.5 -96t-2.5 -45q-2 -5 -4 -12.5t-14 -4.5
q-4 -2 -13.5 -3t-19.5 -1q-11 -1 -25 0q-11 -2 -16 0.5t-7 5.5q-3 4 -2 9zM285 851q2 5 10.5 12.5t18.5 16t19.5 16t14.5 12.5q3 6 8 0.5t10.5 -15.5t10 -20.5t6.5 -15.5q2 -7 11 -15t14 -16q7 -8 1.5 -14t-10.5 -9q-4 -1 -14 -10.5t-21 -21t-21 -23t-14 -17.5
q-8 -12 -12 -12.5t-6 -0.5q-5 0 -10 12t-10 16q-7 2 -12 17.5t-17 26.5q-7 6 -7.5 12.5t2 12t6.5 9t7 4.5t5.5 5t4.5 8q3 4 5 10z" />
    <glyph glyph-name="quoteleft" unicode="&#x2018;" horiz-adv-x="203" 
d="M147 427q-3 0 -7.5 -2t-8.5 -2q-3 -4 -20.5 -7.5t-42.5 -3.5q-24 0 -34 3q-6 1 -10 3q-5 3 -7 14t-1 25t5.5 31t13.5 32q8 20 19 44.5t25 52.5q4 2 10 2t10 -2q2 0 5 0.5t10 2.5h22h30q2 3 2 3.5t5 0.5q5 3 6 2t1 -2q3 -3 2 -3.5t2 -0.5v-7q-5 -5 -10.5 -12t-7.5 -14
q-16 -26 -24.5 -48t-13.5 -37q-5 -18 -8 -32v-10q0 -14 1 -18t6 -4h9q-1 -1 -1 -2q0 -2 5 -2q5 2 6.5 1.5t3.5 -0.5q1 -1 2 -1h-5q2 0 4 -2q1 -1 1 -2z" />
    <glyph glyph-name="quoteright" unicode="&#x2019;" horiz-adv-x="183" 
d="M41 611q3 0 7.5 2t8.5 2q3 4 20.5 7.5t42.5 3.5q12 0 20.5 -1t13.5 -2q6 -2 10 -3q4 -3 6.5 -14t1.5 -25t-5.5 -31t-13.5 -32q-8 -20 -19 -44.5t-25 -52.5q-4 -2 -10 -2t-10 2q-2 0 -5 -0.5t-10 -2.5h-22h-30q-2 -3 -2 -3.5t-5 -0.5q-5 -3 -6 -2t-1 2q-3 3 -2 3.5t-2 0.5
v7q5 5 10.5 12t7.5 14q15 26 24 47.5t14 37.5q5 18 8 32v10q0 14 -1 18t-6 4h-9q1 1 1 2q0 2 -5 2q-10 -3 -11 -2q-2 0 -1 2h5q-2 0 -4 2q-1 1 -1 2z" />
    <glyph glyph-name="quotesinglbase" unicode="&#x201a;" horiz-adv-x="833" 
 />
    <glyph glyph-name="quotedblleft" unicode="&#x201c;" horiz-adv-x="344" 
d="M298 427q-3 0 -7.5 -2t-8.5 -2q-3 -4 -20.5 -7.5t-42.5 -3.5q-24 0 -34 3q-6 1 -10 3q-5 3 -7 14t-1 25t5.5 31t13.5 32q8 20 19 44.5t25 52.5q4 2 10 2t10 -2q2 0 5 0.5t10 2.5h22h30q2 3 2 3.5t5 0.5q5 3 6 2t1 -2q3 -3 2 -3.5t2 -0.5v-7q-5 -5 -10.5 -12t-7.5 -14
q-16 -26 -24.5 -48t-13.5 -37q-5 -18 -8 -32v-10q0 -14 1 -18t6 -4h9q-1 -1 -1 -2q0 -2 5 -2q5 2 6.5 1.5t3.5 -0.5q1 -1 2 -1h-5q2 0 4 -2q1 -1 1 -2zM138 427q-3 0 -7.5 -2t-8.5 -2q-3 -4 -20.5 -7.5t-42.5 -3.5q-24 0 -34 3q-6 1 -10 3q-5 3 -7 14t-1 25t5.5 31t13.5 32
q8 20 19 44.5t25 52.5q4 2 10 2t10 -2q2 0 5 0.5t10 2.5h22h30q2 3 2 3.5t5 0.5q5 3 6 2t1 -2q3 -3 2 -3.5t2 -0.5v-7q-5 -5 -10.5 -12t-7.5 -14q-16 -26 -24.5 -48t-13.5 -37q-5 -18 -8 -32v-10q0 -14 1 -18t6 -4h9q-1 -1 -1 -2q0 -2 5 -2q5 2 6.5 1.5t3.5 -0.5q1 -1 2 -1
h-5q2 0 4 -2q1 -1 1 -2z" />
    <glyph glyph-name="quotedblright" unicode="&#x201d;" horiz-adv-x="358" 
d="M51 599q3 0 7.5 2t8.5 2q3 4 20.5 7.5t42.5 3.5q12 0 20.5 -1t13.5 -2q6 -2 10 -3q4 -3 6.5 -14t1.5 -25t-5.5 -31t-13.5 -32q-8 -20 -19 -44.5t-25 -52.5q-4 -2 -10 -2t-10 2q-2 0 -5 -0.5t-10 -2.5h-22h-30q-2 -3 -2 -3.5t-5 -0.5q-5 -3 -6 -2t-1 2q-3 3 -2 3.5t-2 0.5
v7q5 5 10.5 12t7.5 14q15 26 24 47.5t14 37.5q5 18 8 32v10q0 14 -1 18t-6 4h-9q1 1 1 2q0 2 -5 2q-10 -3 -11 -2q-2 0 -1 2h5q-2 0 -4 2q-1 1 -1 2zM211 599q3 0 7.5 2t8.5 2q3 4 20.5 7.5t42.5 3.5q12 0 20.5 -1t13.5 -2q6 -2 10 -3q4 -3 6.5 -14t1.5 -25t-5.5 -31
t-13.5 -32q-8 -20 -19 -44.5t-25 -52.5q-4 -2 -10 -2t-10 2q-2 0 -5 -0.5t-10 -2.5h-22h-30q-2 -3 -2 -3.5t-5 -0.5q-5 -3 -6 -2t-1 2q-3 3 -2 3.5t-2 0.5v7q5 5 10.5 12t7.5 14q15 26 24 47.5t14 37.5q5 18 8 32v10q0 14 -1 18t-6 4h-9q1 1 1 2q0 2 -5 2q-10 -3 -11 -2
q-2 0 -1 2h5q-2 0 -4 2q-1 1 -1 2z" />
    <glyph glyph-name="ellipsis" unicode="&#x2026;" horiz-adv-x="577" 
d="M8 99q0 7 1 14t8 7q9 0 19.5 2.5t17.5 0.5q8 -1 20.5 -0.5t26 1.5t27 2.5t24.5 2.5q10 0 14.5 -5t5.5 -13.5t0 -19t-2 -20.5q-2 -20 -3.5 -28t-5.5 -24q-5 -16 -23 -16.5t-41 1.5h-74q-16 2 -18 15.5t0 24.5q1 5 2 14t1 18v23zM208 99q0 7 1 14t8 7q9 0 19.5 2.5
t17.5 0.5q8 -1 20.5 -0.5t26 1.5t27 2.5t24.5 2.5q10 0 14.5 -5t5.5 -13.5t0 -19t-2 -20.5q-2 -20 -3.5 -28t-5.5 -24q-5 -16 -23 -16.5t-41 1.5h-74q-16 2 -18 15.5t0 24.5q1 5 2 14t1 18v23zM408 99q0 7 1 14t8 7q9 0 19.5 2.5t17.5 0.5q8 -1 20.5 -0.5t26 1.5t27 2.5
t24.5 2.5q10 0 14.5 -5t5.5 -13.5t0 -19t-2 -20.5q-2 -20 -3.5 -28t-5.5 -24q-5 -16 -23 -16.5t-41 1.5h-74q-16 2 -18 15.5t0 24.5q1 5 2 14t1 18v23z" />
    <glyph glyph-name="space.001" horiz-adv-x="500" 
 />
    </font>
</defs>
</svg>
