<?xml version="1.0" encoding="UTF-8"?><svg id="a" xmlns="http://www.w3.org/2000/svg" xmlns:xlink="http://www.w3.org/1999/xlink" viewBox="0 0 504 504"><defs><style>.ru{fill:none;}.ru,.rv,.rw,.rx,.ry,.rz{stroke-width:0px;}.sa{clip-path:url(#b);}.rv{fill:#f2b705;}.rw{fill:#000;fill-rule:evenodd;}.rx{fill:#46a637;}.ry{fill:#353a8c;}.rz{fill:#fff;}</style><clipPath id="b"><circle class="ru" cx="252" cy="252" r="88.2"/></clipPath></defs><rect class="rx" y="0" width="504" height="504"/><path class="rv" d="M42.84,252l209.16,133.56,209.16-133.56L252,118.44,42.84,252Z"/><circle class="ry" cx="252" cy="252" r="88.2"/><g class="sa"><path class="rz" d="M-12.62,428.36c0-118.3,95.9-214.2,214.2-214.2s214.2,95.9,214.2,214.2h-12.6c0-111.34-90.26-201.6-201.6-201.6S-.02,317.02-.02,428.36h-12.6Z"/></g><path class="rw" d="M175.76,217.88c-2.07.25-3.52,2.33-3.24,4.63.28,2.3,2.19,3.96,4.26,3.71s3.52-2.33,3.24-4.63c-.28-2.3-2.19-3.96-4.26-3.71ZM176.59,224.67c-1.22.15-2.35-.9-2.53-2.35s.66-2.74,1.88-2.89c1.22-.15,2.35.9,2.53,2.35.18,1.45-.66,2.74-1.88,2.89Z"/><path class="rw" d="M190.76,219.19c-.1-1.46-1.36-2.55-2.82-2.45l-4.79.33.47,8.39,1.56-.11-.22-3.11,3.35-.23c.84.81.95,2.25,1,3.05l1.43-.1c-.06-.94-.2-2.74-1.1-3.43.73-.51,1.19-1.38,1.12-2.34ZM184.85,220.68l-.15-2.15,3.23-.23c.59-.04,1.11.41,1.15,1,.04.59-.4,1.11-1,1.15l-3.23.23Z"/><path class="rw" d="M198.09,216.33l-3.96.07.15,8.4,3.95-.07c1.99-.03,3.57-1.67,3.54-3.66l-.02-1.2c-.03-1.99-1.67-3.57-3.66-3.54ZM200.32,220.85c.02,1.26-.98,2.3-2.24,2.32l-2.28.04-.09-5.28,2.28-.04c1.26-.02,2.3.98,2.33,2.24v.72Z"/><polygon class="rw" points="194.28 224.8 194.28 224.8 194.27 224.8 194.28 224.8"/><polygon class="rw" points="206.5 221.02 211.3 221.19 211.35 219.75 206.55 219.58 206.61 217.9 212.37 218.1 212.42 216.54 205.22 216.29 204.93 224.68 204.93 224.69 212.49 224.95 212.54 223.39 206.42 223.18 206.5 221.02"/><polygon class="rw" points="219.57 222.86 218.4 216.98 216.31 216.8 215.58 225.17 215.59 225.15 217.02 225.28 217.52 219.54 218.69 225.42 220 225.54 222.18 219.95 221.68 225.69 223.11 225.82 223.84 217.45 221.75 217.27 219.57 222.86"/><polygon class="rw" points="232.98 227.12 232.99 227.11 239.2 228.18 239.44 226.76 234.65 225.94 234.98 224.05 238.88 224.72 239.12 223.3 235.22 222.63 235.44 221.33 240.08 222.13 240.32 220.71 234.26 219.67 232.98 227.12"/><path class="rw" d="M255.81,223.34l-4.65-1.2-2.22,8.1,1.51.39.78-3.02,3.25.84c1.41.37,2.85-.48,3.22-1.89.37-1.41-.48-2.85-1.89-3.22ZM256.08,226.13c-.15.58-.74.93-1.32.78l-3.14-.81h0s.54-2.1.54-2.1l3.14.81c.58.15.93.74.78,1.32Z"/><polygon class="rw" points="259.25 233 259.25 232.99 259.25 232.99 259.25 233"/><path class="rw" d="M266.47,226.46l-4.58-1.44-2.64,7.97,1.49.47.94-2.98,3.19,1.01c.5,1.07.06,2.45-.18,3.22l1.37.43c.28-.89.82-2.64.22-3.61.87-.21,1.62-.85,1.91-1.76.44-1.39-.33-2.87-1.72-3.31ZM266.58,229.26c-.17.57-.78.89-1.35.71l-3.09-.97h0l.65-2.06,3.09.97c.57.17.88.78.71,1.35Z"/><path class="rw" d="M275.88,229.73c-1.96-.73-4.2.44-5.01,2.61s.11,4.53,2.07,5.26c1.96.73,4.2-.44,5.01-2.61.81-2.17-.11-4.53-2.07-5.26ZM276.48,234.44c-.51,1.37-1.85,2.13-3,1.7-1.15-.43-1.66-1.88-1.15-3.25s1.85-2.13,3-1.7c1.15.43,1.66,1.88,1.15,3.25Z"/><path class="rw" d="M286.23,233.92l-.11-.05c-1.9-.79-4.17.26-5.08,2.36-.92,2.12-.12,4.53,1.79,5.36.92.4,1.92.35,2.82-.02l-.46,1.05,1.1.48,1.19-2.74h0s.48-1.1.48-1.1h0s0,0,0,0l-1.1-.48h0s-.33-.14-.33-.14c0,0,0,0,0,0l-1.48-.64-.48,1.1,1.24.54c-.68.63-1.59.87-2.37.53-1.12-.49-1.56-1.97-.98-3.31.58-1.34,1.97-2.03,3.09-1.54.71.31,1.15,1.03,1.22,1.85l1.54.67c.15-1.66-.63-3.25-2.09-3.92Z"/><path class="rw" d="M297.27,239.11l-4.3-2.14-3.86,7.45,1.4.7,1.39-2.79,2.99,1.49c.31,1.13-.33,2.42-.68,3.13l1.29.65c.42-.83,1.22-2.46.79-3.51.89-.07,1.73-.58,2.16-1.44.65-1.3.12-2.89-1.18-3.54ZM296.94,241.89c-.27.53-.92.75-1.45.48l-2.9-1.45h.01l.96-1.93,2.9,1.45c.53.27.75.92.48,1.45Z"/><polygon class="rw" points="289.11 244.43 289.11 244.42 289.11 244.42 289.11 244.43"/><polygon class="rw" points="308.25 246.85 309.02 245.49 302.75 241.94 298.61 249.25 298.62 249.25 305.2 252.97 305.97 251.61 300.64 248.6 301.7 246.72 305.88 249.08 306.59 247.83 302.41 245.47 303.24 244.01 308.25 246.85"/><path class="rw" d="M315.86,249.71c-.91-.58-3.33-2.26-4.74-.1-1.63,2.51,3.68,4.62,2.76,6.06-.29.45-.97.47-1.99-.17-1.02-.64-1.47-1.43-1.02-2.14h0s-1.59-1.02-1.59-1.02c-1.13,1.77.61,3.52,1.77,4.26,1.37.87,3.41,1.68,4.59-.17,1.59-2.5-3.61-4.72-2.83-5.89.47-.73,1.08-.51,1.89,0,.81.51,1.34,1.24.86,2l1.54.98c1.13-1.73-.33-3.23-1.24-3.81Z"/><path class="rw" d="M325.06,255.93c-.88-.63-3.21-2.43-4.73-.35-1.77,2.43,3.42,4.81,2.43,6.2-.31.44-1.01.42-1.98-.27-.97-.69-1.39-1.51-.9-2.19l-1.54-1.1c-1.23,1.7.42,3.54,1.54,4.34,1.32.94,3.32,1.85,4.59.07,1.73-2.42-3.35-4.9-2.51-6.03.51-.71,1.11-.47,1.89.09.78.56,1.27,1.32.75,2.05l1.49,1.06c1.23-1.67-.15-3.24-1.03-3.87Z"/><polygon class="rw" points="319.88 259.32 319.88 259.32 319.88 259.32 319.88 259.32"/><path class="rw" d="M333.64,262.41c-1.63-1.3-4.13-.88-5.57.93s-1.29,4.34.34,5.64c1.63,1.3,4.13.88,5.57-.93s1.29-4.34-.34-5.64ZM332.76,267.08c-.91,1.14-2.42,1.44-3.38.68-.96-.77-1-2.31-.09-3.45.91-1.14,2.42-1.45,3.38-.68.96.77,1,2.31.09,3.45Z"/><g id="c"><g id="d"><g id="e"><g id="f"><path id="g" class="rz" d="M180,232.38l-1.17,3.59,1.8.58"/><path id="h" class="rz" d="M180,232.38l1.17,3.59-1.8.58"/></g><g id="i"><path id="j" class="rz" d="M183.59,234.99h-3.78v1.89"/><path id="k" class="rz" d="M183.59,234.99l-3.06,2.22-1.11-1.53"/></g><g id="l"><path id="m" class="rz" d="M176.41,234.99l3.06,2.22,1.11-1.53"/><path id="n" class="rz" d="M176.4,234.99h3.78v1.89"/></g><g id="o"><path id="p" class="rz" d="M182.22,239.22l-1.17-3.59-1.8.58"/><path id="q" class="rz" d="M182.22,239.22l-3.06-2.22,1.11-1.53"/></g><g id="r"><path id="s" class="rz" d="M177.78,239.22l3.06-2.22-1.11-1.53"/><path id="t" class="rz" d="M177.78,239.22l1.17-3.59,1.8.58"/></g></g></g></g><g id="u"><g id="v"><g id="w"><g id="x"><path id="y" class="rz" d="M187.8,269.46l-1.17,3.59,1.8.58"/><path id="z" class="rz" d="M187.8,269.46l1.17,3.59-1.8.58"/></g><g id="aa"><path id="ab" class="rz" d="M191.4,272.07h-3.78v1.89"/><path id="ac" class="rz" d="M191.4,272.07l-3.06,2.22-1.11-1.53"/></g><g id="ad"><path id="ae" class="rz" d="M184.21,272.07l3.06,2.22,1.11-1.53"/><path id="af" class="rz" d="M184.21,272.07h3.78v1.89"/></g><g id="ag"><path id="ah" class="rz" d="M190.02,276.3l-1.17-3.59-1.8.58"/><path id="ai" class="rz" d="M190.02,276.3l-3.06-2.22,1.11-1.53"/></g><g id="aj"><path id="ak" class="rz" d="M185.58,276.3l3.06-2.22-1.11-1.53"/><path id="al" class="rz" d="M185.58,276.3l1.17-3.59,1.8.58"/></g></g></g></g><g id="am"><g id="an"><g id="ao"><g id="ap"><path id="aq" class="rz" d="M177,278.01l-.97,3,1.5.49"/><path id="ar" class="rz" d="M177,278.01l.97,3-1.5.49"/></g><g id="as"><path id="at" class="rz" d="M180,280.19h-3.15v1.58"/><path id="au" class="rz" d="M180,280.19l-2.55,1.85-.93-1.27"/></g><g id="av"><path id="aw" class="rz" d="M174,280.19l2.55,1.85.93-1.27"/><path id="ax" class="rz" d="M174,280.19h3.15v1.58"/></g><g id="ay"><path id="az" class="rz" d="M178.85,283.71l-.97-3-1.5.49"/><path id="ba" class="rz" d="M178.85,283.71l-2.55-1.85.93-1.27"/></g><g id="bb"><path id="bc" class="rz" d="M175.15,283.71l2.55-1.85-.93-1.27"/><path id="bd" class="rz" d="M175.15,283.71l.97-3,1.5.49"/></g></g></g></g><g id="be"><g id="bf"><g id="bg"><g id="bh"><path id="bi" class="rz" d="M196.44,266.04l-.56,1.71.86.28"/><path id="bj" class="rz" d="M196.44,266.04l.56,1.71-.86.28"/></g><g id="bk"><path id="bl" class="rz" d="M198.15,267.28h-1.8v.9"/><path id="bm" class="rz" d="M198.15,267.28l-1.46,1.06-.53-.73"/></g><g id="bn"><path id="bo" class="rz" d="M194.73,267.28l1.46,1.06.53-.73"/><path id="bp" class="rz" d="M194.73,267.28h1.8v.9"/></g><g id="bq"><path id="br" class="rz" d="M197.5,269.3l-.56-1.71-.86.28"/><path id="bs" class="rz" d="M197.5,269.3l-1.46-1.06.53-.73"/></g><g id="bt"><path id="bu" class="rz" d="M195.38,269.3l1.46-1.06-.53-.73"/><path id="bv" class="rz" d="M195.38,269.3l.56-1.71.86.28"/></g></g></g></g><g id="bw"><g id="bx"><g id="by"><g id="bz"><path id="ca" class="rz" d="M206.16,278.85l-.97,3,1.5.49"/><path id="cb" class="rz" d="M206.16,278.85l.97,3-1.5.49"/></g><g id="cc"><path id="cd" class="rz" d="M209.16,281.03h-3.15v1.58"/><path id="ce" class="rz" d="M209.16,281.03l-2.55,1.85-.93-1.27"/></g><g id="cf"><path id="cg" class="rz" d="M203.16,281.03l2.55,1.85.93-1.27"/><path id="ch" class="rz" d="M203.16,281.03h3.15v1.58"/></g><g id="ci"><path id="cj" class="rz" d="M208.01,284.55l-.97-3-1.5.49"/><path id="ck" class="rz" d="M208.01,284.55l-2.55-1.85.93-1.27"/></g><g id="cl"><path id="cm" class="rz" d="M204.31,284.55l2.55-1.85-.93-1.27"/><path id="cn" class="rz" d="M204.31,284.55l.97-3,1.5.49"/></g></g></g></g><g id="co"><g id="cp"><g id="cq"><g id="cr"><path id="cs" class="rz" d="M203.52,288.24l-.78,2.4,1.2.39"/><path id="ct" class="rz" d="M203.52,288.24l.78,2.4-1.2.39"/></g><g id="cu"><path id="cv" class="rz" d="M205.92,289.98h-2.52v1.26"/><path id="cw" class="rz" d="M205.92,289.98l-2.04,1.48-.74-1.02"/></g><g id="cx"><path id="cy" class="rz" d="M201.12,289.98l2.04,1.48.74-1.02"/><path id="cz" class="rz" d="M201.12,289.98h2.52v1.26"/></g><g id="da"><path id="db" class="rz" d="M205,292.8l-.78-2.4-1.2.39"/><path id="dc" class="rz" d="M205,292.8l-2.04-1.48.74-1.02"/></g><g id="dd"><path id="de" class="rz" d="M202.04,292.8l2.04-1.48-.74-1.02"/><path id="df" class="rz" d="M202.04,292.8l.78-2.4,1.2.39"/></g></g></g></g><g id="dg"><g id="dh"><g id="di"><g id="dj"><path id="dk" class="rz" d="M279.36,220.86l-1.17,3.59,1.8.58"/><path id="dl" class="rz" d="M279.36,220.86l1.17,3.59-1.8.58"/></g><g id="dm"><path id="dn" class="rz" d="M282.95,223.47h-3.78v1.89"/><path id="do" class="rz" d="M282.95,223.47l-3.06,2.22-1.11-1.53"/></g><g id="dp"><path id="dq" class="rz" d="M275.77,223.47l3.06,2.22,1.11-1.53"/><path id="dr" class="rz" d="M275.76,223.47h3.78v1.89"/></g><g id="ds"><path id="dt" class="rz" d="M281.58,227.7l-1.17-3.59-1.8.58"/><path id="du" class="rz" d="M281.58,227.7l-3.06-2.22,1.11-1.53"/></g><g id="dv"><path id="dw" class="rz" d="M277.14,227.7l3.06-2.22-1.11-1.53"/><path id="dx" class="rz" d="M277.14,227.7l1.17-3.59,1.8.58"/></g></g></g></g><g id="dy"><g id="dz"><g id="ea"><g id="eb"><path id="ec" class="rz" d="M313.8,279.18l-1.17,3.59,1.8.58"/><path id="ed" class="rz" d="M313.8,279.18l1.17,3.59-1.8.58"/></g><g id="ee"><path id="ef" class="rz" d="M317.4,281.79h-3.78v1.89"/><path id="eg" class="rz" d="M317.39,281.79l-3.06,2.22-1.11-1.53"/></g><g id="eh"><path id="ei" class="rz" d="M310.21,281.79l3.06,2.22,1.11-1.53"/><path id="ej" class="rz" d="M310.21,281.79h3.78v1.89"/></g><g id="ek"><path id="el" class="rz" d="M316.02,286.02l-1.17-3.59-1.8.58"/><path id="em" class="rz" d="M316.02,286.02l-3.06-2.22,1.11-1.53"/></g><g id="en"><path id="eo" class="rz" d="M311.58,286.02l3.06-2.22-1.11-1.53"/><path id="ep" class="rz" d="M311.58,286.02l1.17-3.59,1.8.58"/></g></g></g></g><g id="eq"><g id="er"><g id="es"><g id="et"><path id="eu" class="rz" d="M326.04,281.28l-.78,2.4,1.2.39"/><path id="ev" class="rz" d="M326.04,281.28l.78,2.4-1.2.39"/></g><g id="ew"><path id="ex" class="rz" d="M328.44,283.02h-2.52v1.26"/><path id="ey" class="rz" d="M328.44,283.02l-2.04,1.48-.74-1.02"/></g><g id="ez"><path id="fa" class="rz" d="M323.64,283.02l2.04,1.48.74-1.02"/><path id="fb" class="rz" d="M323.64,283.02h2.52v1.26"/></g><g id="fc"><path id="fd" class="rz" d="M327.52,285.84l-.78-2.4-1.2.39"/><path id="fe" class="rz" d="M327.52,285.84l-2.04-1.48.74-1.02"/></g><g id="ff"><path id="fg" class="rz" d="M324.56,285.84l2.04-1.48-.74-1.02"/><path id="fh" class="rz" d="M324.56,285.84l.78-2.4,1.2.39"/></g></g></g></g><g id="fi"><g id="fj"><g id="fk"><g id="fl"><path id="fm" class="rz" d="M317.4,287.61l-.97,3,1.5.49"/><path id="fn" class="rz" d="M317.4,287.61l.97,3-1.5.49"/></g><g id="fo"><path id="fp" class="rz" d="M320.4,289.79h-3.15v1.58"/><path id="fq" class="rz" d="M320.4,289.79l-2.55,1.85-.93-1.27"/></g><g id="fr"><path id="fs" class="rz" d="M314.4,289.79l2.55,1.85.93-1.27"/><path id="ft" class="rz" d="M314.4,289.79h3.15v1.58"/></g><g id="fu"><path id="fv" class="rz" d="M319.25,293.31l-.97-3-1.5.49"/><path id="fw" class="rz" d="M319.25,293.31l-2.55-1.85.93-1.27"/></g><g id="fx"><path id="fy" class="rz" d="M315.55,293.31l2.55-1.85-.93-1.27"/><path id="fz" class="rz" d="M315.55,293.31l.97-3,1.5.49"/></g></g></g></g><g id="ga"><g id="gb"><g id="gc"><g id="gd"><path id="ge" class="rz" d="M296.16,306.09l-.97,3,1.5.49"/><path id="gf" class="rz" d="M296.16,306.09l.97,3-1.5.49"/></g><g id="gg"><path id="gh" class="rz" d="M299.16,308.27h-3.15v1.58"/><path id="gi" class="rz" d="M299.16,308.27l-2.55,1.85-.93-1.27"/></g><g id="gj"><path id="gk" class="rz" d="M293.16,308.27l2.55,1.85.93-1.27"/><path id="gl" class="rz" d="M293.16,308.27h3.15v1.58"/></g><g id="gm"><path id="gn" class="rz" d="M298.01,311.79l-.97-3-1.5.49"/><path id="go" class="rz" d="M298.01,311.79l-2.55-1.85.93-1.27"/></g><g id="gp"><path id="gq" class="rz" d="M294.31,311.79l2.55-1.85-.93-1.27"/><path id="gr" class="rz" d="M294.31,311.79l.97-3,1.5.49"/></g></g></g></g><g id="gs"><g id="gt"><g id="gu"><g id="gv"><path id="gw" class="rz" d="M296.04,315.6l-.78,2.4,1.2.39"/><path id="gx" class="rz" d="M296.04,315.6l.78,2.4-1.2.39"/></g><g id="gy"><path id="gz" class="rz" d="M298.44,317.34h-2.52v1.26"/><path id="ha" class="rz" d="M298.44,317.34l-2.04,1.48-.74-1.02"/></g><g id="hb"><path id="hc" class="rz" d="M293.64,317.34l2.04,1.48.74-1.02"/><path id="hd" class="rz" d="M293.64,317.34h2.52v1.26"/></g><g id="he"><path id="hf" class="rz" d="M297.52,320.16l-.78-2.4-1.2.39"/><path id="hg" class="rz" d="M297.52,320.16l-2.04-1.48.74-1.02"/></g><g id="hh"><path id="hi" class="rz" d="M294.56,320.16l2.04-1.48-.74-1.02"/><path id="hj" class="rz" d="M294.56,320.16l.78-2.4,1.2.39"/></g></g></g></g><g id="hk"><g id="hl"><g id="hm"><g id="hn"><path id="ho" class="rz" d="M304.92,299.76l-.78,2.4,1.2.39"/><path id="hp" class="rz" d="M304.92,299.76l.78,2.4-1.2.39"/></g><g id="hq"><path id="hr" class="rz" d="M307.32,301.5h-2.52v1.26"/><path id="hs" class="rz" d="M307.32,301.5l-2.04,1.48-.74-1.02"/></g><g id="ht"><path id="hu" class="rz" d="M302.52,301.5l2.04,1.48.74-1.02"/><path id="hv" class="rz" d="M302.52,301.5h2.52v1.26"/></g><g id="hw"><path id="hx" class="rz" d="M306.4,304.32l-.78-2.4-1.2.39"/><path id="hy" class="rz" d="M306.4,304.32l-2.04-1.48.74-1.02"/></g><g id="hz"><path id="ia" class="rz" d="M303.44,304.32l2.04-1.48-.74-1.02"/><path id="ib" class="rz" d="M303.44,304.32l.78-2.4,1.2.39"/></g></g></g></g><g id="ic"><g id="id"><g id="ie"><g id="if"><path id="ig" class="rz" d="M312,294.69l-.97,3,1.5.49"/><path id="ih" class="rz" d="M312,294.69l.97,3-1.5.49"/></g><g id="ii"><path id="ij" class="rz" d="M315,296.87h-3.15v1.58"/><path id="ik" class="rz" d="M315,296.87l-2.55,1.85-.93-1.27"/></g><g id="il"><path id="im" class="rz" d="M309,296.87l2.55,1.85.93-1.27"/><path id="in" class="rz" d="M309,296.87h3.15v1.58"/></g><g id="io"><path id="ip" class="rz" d="M313.85,300.39l-.97-3-1.5.49"/><path id="iq" class="rz" d="M313.85,300.39l-2.55-1.85.93-1.27"/></g><g id="ir"><path id="is" class="rz" d="M310.15,300.39l2.55-1.85-.93-1.27"/><path id="it" class="rz" d="M310.15,300.39l.97-3,1.5.49"/></g></g></g></g><g id="iu"><g id="iv"><g id="iw"><g id="ix"><path id="iy" class="rz" d="M295.8,298.08l-.78,2.4,1.2.39"/><path id="iz" class="rz" d="M295.8,298.08l.78,2.4-1.2.39"/></g><g id="ja"><path id="jb" class="rz" d="M298.2,299.82h-2.52v1.26"/><path id="jc" class="rz" d="M298.2,299.82l-2.04,1.48-.74-1.02"/></g><g id="jd"><path id="je" class="rz" d="M293.4,299.82l2.04,1.48.74-1.02"/><path id="jf" class="rz" d="M293.4,299.82h2.52v1.26"/></g><g id="jg"><path id="jh" class="rz" d="M297.28,302.64l-.78-2.4-1.2.39"/><path id="ji" class="rz" d="M297.28,302.64l-2.04-1.48.74-1.02"/></g><g id="jj"><path id="jk" class="rz" d="M294.32,302.64l2.04-1.48-.74-1.02"/><path id="jl" class="rz" d="M294.32,302.64l.78-2.4,1.2.39"/></g></g></g></g><g id="jm"><g id="jn"><g id="jo"><g id="jp"><path id="jq" class="rz" d="M218.4,252.45l-.97,3,1.5.49"/><path id="jr" class="rz" d="M218.4,252.45l.97,3-1.5.49"/></g><g id="js"><path id="jt" class="rz" d="M221.4,254.63h-3.15v1.58"/><path id="ju" class="rz" d="M221.4,254.63l-2.55,1.85-.93-1.27"/></g><g id="jv"><path id="jw" class="rz" d="M215.4,254.63l2.55,1.85.93-1.27"/><path id="jx" class="rz" d="M215.4,254.63h3.15v1.58"/></g><g id="jy"><path id="jz" class="rz" d="M220.25,258.15l-.97-3-1.5.49"/><path id="ka" class="rz" d="M220.25,258.15l-2.55-1.85.93-1.27"/></g><g id="kb"><path id="kc" class="rz" d="M216.55,258.15l2.55-1.85-.93-1.27"/><path id="kd" class="rz" d="M216.55,258.15l.97-3,1.5.49"/></g></g></g></g><g id="ke"><g id="kf"><g id="kg"><g id="kh"><path id="ki" class="rz" d="M276,245.04l-.78,2.4,1.2.39"/><path id="kj" class="rz" d="M276,245.04l.78,2.4-1.2.39"/></g><g id="kk"><path id="kl" class="rz" d="M278.4,246.78h-2.52v1.26"/><path id="km" class="rz" d="M278.4,246.78l-2.04,1.48-.74-1.02"/></g><g id="kn"><path id="ko" class="rz" d="M273.6,246.78l2.04,1.48.74-1.02"/><path id="kp" class="rz" d="M273.6,246.78h2.52v1.26"/></g><g id="kq"><path id="kr" class="rz" d="M277.48,249.6l-.78-2.4-1.2.39"/><path id="ks" class="rz" d="M277.48,249.6l-2.04-1.48.74-1.02"/></g><g id="kt"><path id="ku" class="rz" d="M274.52,249.6l2.04-1.48-.74-1.02"/><path id="kv" class="rz" d="M274.52,249.6l.78-2.4,1.2.39"/></g></g></g></g><g id="kw"><g id="kx"><g id="ky"><g id="kz"><path id="la" class="rz" d="M252,287.82l-1.17,3.59,1.8.58"/><path id="lb" class="rz" d="M252,287.82l1.17,3.59-1.8.58"/></g><g id="lc"><path id="ld" class="rz" d="M255.6,290.43h-3.78v1.89"/><path id="le" class="rz" d="M255.59,290.43l-3.06,2.22-1.11-1.53"/></g><g id="lf"><path id="lg" class="rz" d="M248.41,290.43l3.06,2.22,1.11-1.53"/><path id="lh" class="rz" d="M248.4,290.43h3.78v1.89"/></g><g id="li"><path id="lj" class="rz" d="M254.22,294.66l-1.17-3.59-1.8.58"/><path id="lk" class="rz" d="M254.22,294.66l-3.06-2.22,1.11-1.53"/></g><g id="ll"><path id="lm" class="rz" d="M249.78,294.66l3.06-2.22-1.11-1.53"/><path id="ln" class="rz" d="M249.78,294.66l1.17-3.59,1.8.58"/></g></g></g></g><g id="lo"><g id="lp"><g id="lq"><g id="lr"><path id="ls" class="rz" d="M262.2,270.93l-.97,3,1.5.49"/><path id="lt" class="rz" d="M262.2,270.93l.97,3-1.5.49"/></g><g id="lu"><path id="lv" class="rz" d="M265.2,273.11h-3.15v1.58"/><path id="lw" class="rz" d="M265.2,273.11l-2.55,1.85-.93-1.27"/></g><g id="lx"><path id="ly" class="rz" d="M259.2,273.11l2.55,1.85.93-1.27"/><path id="lz" class="rz" d="M259.2,273.11h3.15v1.58"/></g><g id="ma"><path id="mb" class="rz" d="M264.05,276.63l-.97-3-1.5.49"/><path id="mc" class="rz" d="M264.05,276.63l-2.55-1.85.93-1.27"/></g><g id="md"><path id="me" class="rz" d="M260.35,276.63l2.55-1.85-.93-1.27"/><path id="mf" class="rz" d="M260.35,276.63l.97-3,1.5.49"/></g></g></g></g><g id="mg"><g id="mh"><g id="mi"><g id="mj"><path id="mk" class="rz" d="M252,263.01l-.97,3,1.5.49"/><path id="ml" class="rz" d="M252,263.01l.97,3-1.5.49"/></g><g id="mm"><path id="mn" class="rz" d="M255,265.19h-3.15v1.58"/><path id="mo" class="rz" d="M255,265.19l-2.55,1.85-.93-1.27"/></g><g id="mp"><path id="mq" class="rz" d="M249,265.19l2.55,1.85.93-1.27"/><path id="mr" class="rz" d="M249,265.19h3.15v1.58"/></g><g id="ms"><path id="mt" class="rz" d="M253.85,268.71l-.97-3-1.5.49"/><path id="mu" class="rz" d="M253.85,268.71l-2.55-1.85.93-1.27"/></g><g id="mv"><path id="mw" class="rz" d="M250.15,268.71l2.55-1.85-.93-1.27"/><path id="mx" class="rz" d="M250.15,268.71l.97-3,1.5.49"/></g></g></g></g><g id="my"><g id="mz"><g id="na"><g id="nb"><path id="nc" class="rz" d="M243.12,271.56l-.78,2.4,1.2.39"/><path id="nd" class="rz" d="M243.12,271.56l.78,2.4-1.2.39"/></g><g id="ne"><path id="nf" class="rz" d="M245.52,273.3h-2.52v1.26"/><path id="ng" class="rz" d="M245.52,273.3l-2.04,1.48-.74-1.02"/></g><g id="nh"><path id="ni" class="rz" d="M240.72,273.3l2.04,1.48.74-1.02"/><path id="nj" class="rz" d="M240.72,273.3h2.52v1.26"/></g><g id="nk"><path id="nl" class="rz" d="M244.6,276.12l-.78-2.4-1.2.39"/><path id="nm" class="rz" d="M244.6,276.12l-2.04-1.48.74-1.02"/></g><g id="nn"><path id="no" class="rz" d="M241.64,276.12l2.04-1.48-.74-1.02"/><path id="np" class="rz" d="M241.64,276.12l.78-2.4,1.2.39"/></g></g></g></g><g id="nq"><g id="nr"><g id="ns"><g id="nt"><path id="nu" class="rz" d="M247.56,278.4l-.56,1.71.86.28"/><path id="nv" class="rz" d="M247.56,278.4l.56,1.71-.86.28"/></g><g id="nw"><path id="nx" class="rz" d="M249.27,279.64h-1.8v.9"/><path id="ny" class="rz" d="M249.27,279.64l-1.46,1.06-.53-.73"/></g><g id="nz"><path id="oa" class="rz" d="M245.85,279.64l1.46,1.06.53-.73"/><path id="ob" class="rz" d="M245.85,279.64h1.8v.9"/></g><g id="oc"><path id="od" class="rz" d="M248.62,281.66l-.56-1.71-.86.28"/><path id="oe" class="rz" d="M248.62,281.66l-1.46-1.06.53-.73"/></g><g id="of"><path id="og" class="rz" d="M246.5,281.66l1.46-1.06-.53-.73"/><path id="oh" class="rz" d="M246.5,281.66l.56-1.71.86.28"/></g></g></g></g><g id="oi"><g id="oj"><g id="ok"><g id="ol"><path id="om" class="rz" d="M278.4,308.25l-.97,3,1.5.49"/><path id="on" class="rz" d="M278.4,308.25l.97,3-1.5.49"/></g><g id="oo"><path id="op" class="rz" d="M281.4,310.43h-3.15v1.58"/><path id="oq" class="rz" d="M281.4,310.43l-2.55,1.85-.93-1.27"/></g><g id="or"><path id="os" class="rz" d="M275.4,310.43l2.55,1.85.93-1.27"/><path id="ot" class="rz" d="M275.4,310.43h3.15v1.58"/></g><g id="ou"><path id="ov" class="rz" d="M280.25,313.95l-.97-3-1.5.49"/><path id="ow" class="rz" d="M280.25,313.95l-2.55-1.85.93-1.27"/></g><g id="ox"><path id="oy" class="rz" d="M276.55,313.95l2.55-1.85-.93-1.27"/><path id="oz" class="rz" d="M276.55,313.95l.97-3,1.5.49"/></g></g></g></g><g id="pa"><g id="pb"><g id="pc"><g id="pd"><path id="pe" class="rz" d="M285.96,301.08l-.78,2.4,1.2.39"/><path id="pf" class="rz" d="M285.96,301.08l.78,2.4-1.2.39"/></g><g id="pg"><path id="ph" class="rz" d="M288.36,302.82h-2.52v1.26"/><path id="pi" class="rz" d="M288.36,302.82l-2.04,1.48-.74-1.02"/></g><g id="pj"><path id="pk" class="rz" d="M283.56,302.82l2.04,1.48.74-1.02"/><path id="pl" class="rz" d="M283.56,302.82h2.52v1.26"/></g><g id="pm"><path id="pn" class="rz" d="M287.44,305.64l-.78-2.4-1.2.39"/><path id="po" class="rz" d="M287.44,305.64l-2.04-1.48.74-1.02"/></g><g id="pp"><path id="pq" class="rz" d="M284.48,305.64l2.04-1.48-.74-1.02"/><path id="pr" class="rz" d="M284.48,305.64l.78-2.4,1.2.39"/></g></g></g></g><g id="ps"><g id="pt"><g id="pu"><g id="pv"><path id="pw" class="rz" d="M271.44,298.92l-.78,2.4,1.2.39"/><path id="px" class="rz" d="M271.44,298.92l.78,2.4-1.2.39"/></g><g id="py"><path id="pz" class="rz" d="M273.84,300.66h-2.52v1.26"/><path id="qa" class="rz" d="M273.84,300.66l-2.04,1.48-.74-1.02"/></g><g id="qb"><path id="qc" class="rz" d="M269.04,300.66l2.04,1.48.74-1.02"/><path id="qd" class="rz" d="M269.04,300.66h2.52v1.26"/></g><g id="qe"><path id="qf" class="rz" d="M272.92,303.48l-.78-2.4-1.2.39"/><path id="qg" class="rz" d="M272.92,303.48l-2.04-1.48.74-1.02"/></g><g id="qh"><path id="qi" class="rz" d="M269.96,303.48l2.04-1.48-.74-1.02"/><path id="qj" class="rz" d="M269.96,303.48l.78-2.4,1.2.39"/></g></g></g></g><g id="qk"><g id="ql"><g id="qm"><g id="qn"><path id="qo" class="rz" d="M216.6,295.02l-1.17,3.59,1.8.58"/><path id="qp" class="rz" d="M216.6,295.02l1.17,3.59-1.8.58"/></g><g id="qq"><path id="qr" class="rz" d="M220.2,297.63h-3.78v1.89"/><path id="qs" class="rz" d="M220.19,297.63l-3.06,2.22-1.11-1.53"/></g><g id="qt"><path id="qu" class="rz" d="M213.01,297.63l3.06,2.22,1.11-1.53"/><path id="qv" class="rz" d="M213.01,297.63h3.78v1.89"/></g><g id="qw"><path id="qx" class="rz" d="M218.82,301.86l-1.17-3.59-1.8.58"/><path id="qy" class="rz" d="M218.82,301.86l-3.06-2.22,1.11-1.53"/></g><g id="qz"><path id="ra" class="rz" d="M214.38,301.86l3.06-2.22-1.11-1.53"/><path id="rb" class="rz" d="M214.38,301.86l1.17-3.59,1.8.58"/></g></g></g></g><g id="rc"><g id="rd"><g id="re"><g id="rf"><path id="rg" class="rz" d="M252,319.74l-.39,1.2.6.19"/><path id="rh" class="rz" d="M252,319.74l.39,1.2-.6.19"/></g><g id="ri"><path id="rj" class="rz" d="M253.2,320.61h-1.26v.63"/><path id="rk" class="rz" d="M253.2,320.61l-1.02.74-.37-.51"/></g><g id="rl"><path id="rm" class="rz" d="M250.8,320.61l1.02.74.37-.51"/><path id="rn" class="rz" d="M250.8,320.61h1.26v.63"/></g><g id="ro"><path id="rp" class="rz" d="M252.74,322.02l-.39-1.2-.6.19"/><path id="rq" class="rz" d="M252.74,322.02l-1.02-.74.37-.51"/></g><g id="rr"><path id="rs" class="rz" d="M251.26,322.02l1.02-.74-.37-.51"/><path id="rt" class="rz" d="M251.26,322.02l.39-1.2.6.19"/></g></g></g></g></svg>